<?xml version="1.0" encoding="UTF-8"?>
<!DOCTYPE svg PUBLIC "-//W3C//DTD SVG 1.1//EN" "http://www.w3.org/Graphics/SVG/1.1/DTD/svg11.dtd">
<svg xmlns="http://www.w3.org/2000/svg" version="1.1" width="64px" height="64px" style="shape-rendering:geometricPrecision; text-rendering:geometricPrecision; image-rendering:optimizeQuality; fill-rule:evenodd; clip-rule:evenodd" xmlns:xlink="http://www.w3.org/1999/xlink">
<g><path style="opacity:0.971" fill="#fb3a4b" d="M 13.5,34.5 C 15.5816,34.3757 17.0816,33.3757 18,31.5C 18.7684,27.0804 18.6018,22.7471 17.5,18.5C 19.8333,18.5 22.1667,18.5 24.5,18.5C 28.8619,19.328 31.5285,17.6613 32.5,13.5C 34.8333,13.5 37.1667,13.5 39.5,13.5C 39.5,12.5 39.5,11.5 39.5,10.5C 34.1667,10.5 28.8333,10.5 23.5,10.5C 23.5,11.5 23.5,12.5 23.5,13.5C 21.8333,13.5 20.1667,13.5 18.5,13.5C 18.162,10.8431 18.8287,8.50976 20.5,6.5C 27.8333,5.16667 35.1667,5.16667 42.5,6.5C 44.1713,8.50976 44.838,10.8431 44.5,13.5C 47.1667,13.5 49.8333,13.5 52.5,13.5C 54.0733,16.3726 53.7399,19.0393 51.5,21.5C 50.6679,31.1495 50.1679,40.8162 50,50.5C 49.6905,51.7659 49.1905,52.9326 48.5,54C 37.1667,54.6667 25.8333,54.6667 14.5,54C 13.5223,47.5898 13.189,41.0898 13.5,34.5 Z M 32.5,13.5 C 29.5,13.5 26.5,13.5 23.5,13.5C 23.5,12.5 23.5,11.5 23.5,10.5C 28.8333,10.5 34.1667,10.5 39.5,10.5C 39.5,11.5 39.5,12.5 39.5,13.5C 37.1667,13.5 34.8333,13.5 32.5,13.5 Z"/></g>
<g><path style="opacity:0.998" fill="#fd7481" d="M 18.5,13.5 C 20.1667,13.5 21.8333,13.5 23.5,13.5C 26.5,13.5 29.5,13.5 32.5,13.5C 31.5285,17.6613 28.8619,19.328 24.5,18.5C 24.5,17.5 24.5,16.5 24.5,15.5C 21.5,15.5 18.5,15.5 15.5,15.5C 15.2852,17.1788 15.9519,18.1788 17.5,18.5C 18.6018,22.7471 18.7684,27.0804 18,31.5C 17.0816,33.3757 15.5816,34.3757 13.5,34.5C 13.5,30.1667 13.5,25.8333 13.5,21.5C 12.5,21.5 11.5,21.5 10.5,21.5C 10.5,18.8333 10.5,16.1667 10.5,13.5C 13.1667,13.5 15.8333,13.5 18.5,13.5 Z"/></g>
<g><path style="opacity:1" fill="#fff7f8" d="M 24.5,18.5 C 22.1667,18.5 19.8333,18.5 17.5,18.5C 15.9519,18.1788 15.2852,17.1788 15.5,15.5C 18.5,15.5 21.5,15.5 24.5,15.5C 24.5,16.5 24.5,17.5 24.5,18.5 Z"/></g>
<g><path style="opacity:1" fill="#b91415" d="M 24.5,27.5 C 27.0751,28.7284 29.4084,30.3951 31.5,32.5C 33.3159,31.1851 34.9825,29.6851 36.5,28C 38.6667,27.5 39.5,28.3333 39,30.5C 37.3149,32.0175 35.8149,33.6841 34.5,35.5C 35.8149,37.3159 37.3149,38.9825 39,40.5C 39.5,42.6667 38.6667,43.5 36.5,43C 34.9825,41.3149 33.3159,39.8149 31.5,38.5C 29.6841,39.8149 28.0175,41.3149 26.5,43C 24.3333,43.5 23.5,42.6667 24,40.5C 25.6851,38.9825 27.1851,37.3159 28.5,35.5C 27.1851,33.6841 25.6851,32.0175 24,30.5C 23.5304,29.4232 23.6971,28.4232 24.5,27.5 Z"/></g>
<g><path style="opacity:0.272" fill="#b81414" d="M 45.5,63.5 C 36.1667,63.5 26.8333,63.5 17.5,63.5C 16.1225,62.7656 14.6225,62.0989 13,61.5C 12.3828,60.5509 12.5494,59.7175 13.5,59C 25.5,57 37.5,57 49.5,59C 50.4506,59.7175 50.6172,60.5509 50,61.5C 48.3775,62.0989 46.8775,62.7656 45.5,63.5 Z"/></g>
</svg>
