<svg width="200" height="180" viewBox="0 0 200 180" fill="none" xmlns="http://www.w3.org/2000/svg">
<g clip-path="url(#clip0_6310_7948)">
<path d="M198.245 68.6578C198.173 68.6579 198.104 68.6359 198.045 68.5949L101.007 1.01477C100.711 0.810065 100.36 0.700668 100.001 0.701281C99.6418 0.701894 99.2913 0.812485 98.9967 1.01819L2.65745 68.5943C2.58125 68.6477 2.48694 68.6687 2.39527 68.6526C2.30359 68.6365 2.22206 68.5847 2.16861 68.5085C2.11517 68.4323 2.09418 68.338 2.11026 68.2463C2.12635 68.1546 2.1782 68.0731 2.2544 68.0196L98.5937 0.443563C99.0062 0.155616 99.4969 0.000830043 100 3.32898e-06C100.503 -0.000823385 100.994 0.152347 101.408 0.438937L198.446 68.0189C198.507 68.0616 198.553 68.1228 198.577 68.1935C198.602 68.2643 198.602 68.3408 198.58 68.4121C198.558 68.4834 198.513 68.5456 198.453 68.5898C198.393 68.634 198.32 68.6579 198.245 68.6578Z" fill="#3F3D56"/>
<path d="M8.1626 71.0543L100.097 2.91992L192.728 75.9024L104.833 128.008L57.1142 117.13L8.1626 71.0543Z" fill="#E6E6E6"/>
<path d="M61.1424 160.189H15.7247C15.4458 160.189 15.1696 160.135 14.9119 160.028C14.6541 159.922 14.4199 159.766 14.2225 159.569C14.0252 159.371 13.8687 159.137 13.7619 158.88C13.6551 158.622 13.6001 158.346 13.6001 158.067C13.6001 157.788 13.6551 157.512 13.7619 157.255C13.8687 156.997 14.0252 156.763 14.2225 156.566C14.4199 156.369 14.6541 156.213 14.9119 156.106C15.1696 156 15.4458 155.945 15.7247 155.945H61.1424C61.4212 155.945 61.6975 156 61.9552 156.106C62.213 156.213 62.4472 156.369 62.6445 156.566C62.8418 156.763 62.9984 156.997 63.1052 157.255C63.212 157.512 63.267 157.788 63.267 158.067C63.267 158.346 63.212 158.622 63.1052 158.88C62.9984 159.137 62.8418 159.371 62.6445 159.569C62.4472 159.766 62.213 159.922 61.9552 160.028C61.6975 160.135 61.4212 160.189 61.1424 160.189Z" fill="#6C63FF"/>
<path d="M32.0196 151.068H15.7247C15.4458 151.068 15.1696 151.014 14.9119 150.907C14.6541 150.801 14.4199 150.645 14.2225 150.447C14.0252 150.25 13.8687 150.016 13.7619 149.759C13.6551 149.501 13.6001 149.225 13.6001 148.946C13.6001 148.667 13.6551 148.391 13.7619 148.133C13.8687 147.876 14.0252 147.642 14.2225 147.445C14.4199 147.248 14.6541 147.091 14.9119 146.985C15.1696 146.878 15.4458 146.824 15.7247 146.824H32.0196C32.2984 146.824 32.5746 146.878 32.8324 146.985C33.0902 147.091 33.3244 147.248 33.5217 147.445C33.719 147.642 33.8756 147.876 33.9824 148.133C34.0892 148.391 34.1442 148.667 34.1442 148.946C34.1442 149.225 34.0892 149.501 33.9824 149.759C33.8756 150.016 33.719 150.25 33.5217 150.447C33.3244 150.645 33.0902 150.801 32.8324 150.907C32.5746 151.014 32.2984 151.068 32.0196 151.068Z" fill="#6C63FF"/>
<path d="M101.389 109.003C101.044 109.003 100.702 108.936 100.383 108.806L43.6841 85.2797V11.6397C43.6848 10.9886 43.9438 10.3643 44.4043 9.90382C44.8647 9.44337 45.489 9.18435 46.1402 9.18359H154.912C155.563 9.18435 156.188 9.44337 156.648 9.90382C157.109 10.3643 157.368 10.9886 157.368 11.6397V85.3311L157.262 85.3767L102.427 108.794C102.098 108.932 101.746 109.003 101.389 109.003Z" fill="white"/>
<path d="M101.389 109.178C101.021 109.178 100.657 109.107 100.316 108.968L43.5088 85.3966V11.6394C43.5096 10.9417 43.7871 10.2728 44.2804 9.77946C44.7738 9.28611 45.4427 9.0086 46.1404 9.00781H154.912C155.61 9.0086 156.279 9.28611 156.772 9.77946C157.266 10.2728 157.543 10.9417 157.544 11.6394V85.4466L102.496 108.955C102.145 109.102 101.769 109.178 101.389 109.178ZM44.2105 84.9278L100.584 108.319C101.109 108.532 101.698 108.529 102.221 108.309L156.842 84.9833V11.6394C156.842 11.1278 156.638 10.6373 156.276 10.2755C155.914 9.91369 155.424 9.71017 154.912 9.70957H46.1404C45.6287 9.71017 45.1382 9.91369 44.7765 10.2755C44.4147 10.6373 44.2112 11.1278 44.2106 11.6394L44.2105 84.9278Z" fill="#3F3D56"/>
<path d="M197.544 67.957H197.474L157.193 85.157L102.081 108.69C101.865 108.781 101.634 108.828 101.401 108.829C101.167 108.831 100.936 108.786 100.719 108.697L43.8596 85.1079L2.58943 67.9851L2.52638 67.957H2.45614C1.80495 67.9578 1.18064 68.2168 0.720183 68.6772C0.259724 69.1377 0.000722544 69.762 0 70.4132V177.08C0.000723471 177.731 0.259724 178.355 0.720183 178.816C1.18064 179.276 1.80495 179.535 2.45614 179.536H197.544C198.195 179.535 198.819 179.276 199.28 178.816C199.74 178.355 199.999 177.731 200 177.08V70.4132C199.999 69.762 199.74 69.1377 199.28 68.6772C198.819 68.2168 198.195 67.9578 197.544 67.957ZM199.298 177.08C199.298 177.545 199.113 177.991 198.784 178.32C198.455 178.649 198.009 178.834 197.544 178.834H2.45614C1.99091 178.834 1.54478 178.649 1.21581 178.32C0.886839 177.991 0.70194 177.545 0.701754 177.08V70.4132C0.702391 69.9595 0.878372 69.5236 1.19291 69.1967C1.50744 68.8697 1.93617 68.677 2.38949 68.6588L43.8596 85.8658L100.449 109.346C101.062 109.596 101.748 109.592 102.358 109.336L157.193 85.9184L197.614 68.6588C198.067 68.6783 198.494 68.8716 198.808 69.1983C199.122 69.5251 199.297 69.9602 199.298 70.4132V177.08Z" fill="#3F3D56"/>
<path d="M100.823 88.1225C98.7296 88.1264 96.692 87.4496 95.0172 86.194L94.9134 86.1161L73.0499 69.3766C72.0373 68.6008 71.1875 67.6331 70.5489 66.5289C69.9104 65.4247 69.4955 64.2055 69.3281 62.9409C69.1607 61.6763 69.2441 60.3912 69.5733 59.1588C69.9026 57.9265 70.4714 56.771 71.2472 55.7585C72.023 54.7459 72.9907 53.8961 74.0949 53.2576C75.1992 52.619 76.4184 52.2042 77.6829 52.0368C78.9475 51.8694 80.2326 51.9527 81.465 52.282C82.6973 52.6112 83.8528 53.18 84.8653 53.9558L99.0269 64.8147L132.493 21.1702C133.269 20.1579 134.237 19.3085 135.341 18.6703C136.446 18.0321 137.665 17.6177 138.93 17.4507C140.194 17.2838 141.48 17.3676 142.712 17.6973C143.944 18.0271 145.099 18.5963 146.111 19.3725L145.903 19.655L146.117 19.3766C148.159 20.9459 149.495 23.2611 149.832 25.8143C150.169 28.3674 149.479 30.95 147.915 32.9954L108.551 84.3317C107.64 85.5147 106.47 86.472 105.129 87.1294C103.789 87.7868 102.316 88.1266 100.823 88.1225Z" fill="#6C63FF"/>
</g>
<defs>
<clipPath id="clip0_6310_7948">
<rect width="200" height="179.535" fill="white"/>
</clipPath>
</defs>
</svg>
