<svg width="41" height="40" viewBox="0 0 41 40" fill="none" xmlns="http://www.w3.org/2000/svg">
<rect x="0.333496" width="40" height="40" rx="4" fill="#3A3A3A"/>
<path d="M24.4868 14.9138C24.3022 14.9138 24.1217 14.9685 23.9682 15.0711C23.8148 15.1736 23.6951 15.3194 23.6245 15.4899C23.5538 15.6605 23.5354 15.8481 23.5714 16.0292C23.6074 16.2102 23.6963 16.3765 23.8268 16.5071C23.9573 16.6376 24.1236 16.7265 24.3047 16.7625C24.4857 16.7985 24.6734 16.78 24.8439 16.7094C25.0145 16.6387 25.1603 16.5191 25.2628 16.3656C25.3654 16.2121 25.4201 16.0317 25.4201 15.8471C25.4201 15.5996 25.3218 15.3622 25.1467 15.1871C24.9717 15.0121 24.7343 14.9138 24.4868 14.9138ZM28.0646 16.796C28.0494 16.1507 27.9286 15.5122 27.7068 14.906C27.509 14.3873 27.2012 13.9177 26.8046 13.5293C26.4194 13.1307 25.9487 12.8248 25.4279 12.6349C24.8233 12.4063 24.1841 12.2827 23.5379 12.2693C22.7134 12.2227 22.449 12.2227 20.3334 12.2227C18.2179 12.2227 17.9534 12.2227 17.129 12.2693C16.4828 12.2827 15.8436 12.4063 15.239 12.6349C14.7192 12.8267 14.2488 13.1323 13.8623 13.5293C13.4637 13.9145 13.1578 14.3852 12.9679 14.906C12.7393 15.5106 12.6157 16.1498 12.6023 16.796C12.5557 17.6204 12.5557 17.8849 12.5557 20.0004C12.5557 22.116 12.5557 22.3804 12.6023 23.2049C12.6157 23.8511 12.7393 24.4903 12.9679 25.0949C13.1578 25.6156 13.4637 26.0864 13.8623 26.4715C14.2488 26.8686 14.7192 27.1742 15.239 27.366C15.8436 27.5945 16.4828 27.7182 17.129 27.7315C17.9534 27.7782 18.2179 27.7782 20.3334 27.7782C22.449 27.7782 22.7134 27.7782 23.5379 27.7315C24.1841 27.7182 24.8233 27.5945 25.4279 27.366C25.9487 27.1761 26.4194 26.8702 26.8046 26.4715C27.203 26.0847 27.511 25.6146 27.7068 25.0949C27.9286 24.4887 28.0494 23.8502 28.0646 23.2049C28.0646 22.3804 28.1112 22.116 28.1112 20.0004C28.1112 17.8849 28.1112 17.6204 28.0646 16.796ZM26.6646 23.1115C26.6589 23.6053 26.5695 24.0944 26.4001 24.5582C26.2759 24.8967 26.0765 25.2025 25.8168 25.4527C25.5645 25.7097 25.2593 25.9088 24.9223 26.036C24.4585 26.2054 23.9694 26.2948 23.4757 26.3004C22.6979 26.3393 22.4101 26.3471 20.3646 26.3471C18.319 26.3471 18.0312 26.3471 17.2534 26.3004C16.7408 26.31 16.2303 26.2311 15.7446 26.0671C15.4224 25.9334 15.1312 25.7348 14.889 25.4838C14.6308 25.2339 14.4339 24.9278 14.3134 24.5893C14.1236 24.1189 14.0182 23.6186 14.0023 23.1115C14.0023 22.3338 13.9557 22.046 13.9557 20.0004C13.9557 17.9549 13.9557 17.6671 14.0023 16.8893C14.0058 16.3846 14.098 15.8844 14.2746 15.4115C14.4115 15.0833 14.6216 14.7906 14.889 14.556C15.1253 14.2886 15.4173 14.0762 15.7446 13.9338C16.2186 13.7627 16.7183 13.6733 17.2223 13.6693C18.0001 13.6693 18.2879 13.6227 20.3334 13.6227C22.379 13.6227 22.6668 13.6227 23.4446 13.6693C23.9383 13.675 24.4274 13.7644 24.8912 13.9338C25.2447 14.0649 25.5619 14.2782 25.8168 14.556C26.0717 14.7949 26.2708 15.087 26.4001 15.4115C26.573 15.8852 26.6624 16.3852 26.6646 16.8893C26.7034 17.6671 26.7112 17.9549 26.7112 20.0004C26.7112 22.046 26.7034 22.3338 26.6646 23.1115ZM20.3334 16.0104C19.5446 16.012 18.774 16.2473 18.1188 16.6866C17.4637 17.126 16.9535 17.7497 16.6527 18.4789C16.3519 19.2081 16.274 20.0101 16.4288 20.7836C16.5837 21.5571 16.9643 22.2673 17.5226 22.8245C18.0809 23.3818 18.7919 23.761 19.5657 23.9143C20.3394 24.0677 21.1413 23.9882 21.8699 23.686C22.5985 23.3837 23.2212 22.8723 23.6593 22.2163C24.0974 21.5604 24.3312 20.7893 24.3312 20.0004C24.3322 19.4755 24.2295 18.9556 24.0289 18.4705C23.8282 17.9854 23.5337 17.5448 23.1621 17.174C22.7906 16.8032 22.3494 16.5095 21.864 16.3098C21.3785 16.1101 20.8584 16.0084 20.3334 16.0104ZM20.3334 22.5904C19.8212 22.5904 19.3204 22.4385 18.8945 22.1539C18.4686 21.8693 18.1366 21.4648 17.9406 20.9916C17.7446 20.5183 17.6933 19.9976 17.7932 19.4952C17.8931 18.9927 18.1398 18.5312 18.502 18.169C18.8643 17.8068 19.3257 17.5601 19.8282 17.4602C20.3306 17.3603 20.8513 17.4116 21.3246 17.6076C21.7979 17.8036 22.2024 18.1356 22.4869 18.5615C22.7715 18.9874 22.9234 19.4882 22.9234 20.0004C22.9234 20.3406 22.8565 20.6774 22.7263 20.9916C22.5961 21.3058 22.4054 21.5913 22.1648 21.8318C21.9243 22.0723 21.6388 22.2631 21.3246 22.3933C21.0104 22.5234 20.6736 22.5904 20.3334 22.5904Z" fill="white"/>
</svg>
