<svg width="300" height="300" viewBox="0 0 300 300" fill="none" xmlns="http://www.w3.org/2000/svg">
<path d="M212.729 106.443L215.004 103.329L249.878 102.354L257.901 151.11L255.602 154.372L218.453 158.461L212.729 106.443Z" fill="#3E3D3D"/>
<path d="M215.004 103.194L252.152 99.1035L257.877 151.122L220.728 155.211L215.004 103.194Z" fill="#B81414"/>
<path d="M20.0298 115.732L60.5142 103.654L77.4199 160.344L36.935 172.421L20.0298 115.732Z" fill="#F1F1F1"/>
<path d="M244.266 181.665C244.266 189.564 237.864 195.967 229.967 195.967C222.07 195.967 215.668 189.564 215.668 181.665C215.668 173.766 222.07 167.363 229.967 167.363C237.864 167.363 244.266 173.766 244.266 181.665Z" fill="#F1F1F1"/>
<path d="M216.642 224.57L223.467 235.946H190.319L216.642 224.57Z" fill="#F1F1F1"/>
<path d="M57.4023 228.795L54.1528 236.271H81.4508L57.4023 228.795Z" fill="#F1F1F1"/>
<path d="M89.5752 110.155C89.5752 109.078 90.4481 108.205 91.5252 108.205H196.169C197.246 108.205 198.119 109.078 198.119 110.155V175.164C198.119 176.241 197.246 177.114 196.169 177.114H91.5252C90.4481 177.114 89.5752 176.241 89.5752 175.164V110.155Z" fill="#F1F1F1"/>
<path fill-rule="evenodd" clip-rule="evenodd" d="M88.9258 110.155C88.9258 108.719 90.0898 107.555 91.5253 107.555H196.169C197.604 107.555 198.769 108.719 198.769 110.155V175.164C198.769 176.599 197.604 177.764 196.169 177.764H91.5253C90.0898 177.764 88.9258 176.599 88.9258 175.164V110.155ZM91.5253 108.855C90.807 108.855 90.2253 109.436 90.2253 110.155V175.164C90.2253 175.882 90.807 176.464 91.5253 176.464H196.169C196.887 176.464 197.469 175.882 197.469 175.164V110.155C197.469 109.436 196.887 108.855 196.169 108.855H91.5253Z" fill="#3E3D3D"/>
<path d="M218.254 116.188L219.554 112.105L250.224 96.8281L278.7 137.458L277.322 141.595L245.352 160.955L218.254 116.188Z" fill="#3E3D3D"/>
<path d="M219.554 111.961L251.524 92.6016L278.622 137.368L246.652 156.728L219.554 111.961Z" fill="#887040"/>
<path d="M27.6011 108.459H69.8485V167.617H27.6011V108.459Z" fill="#F1F1F1"/>
<path d="M52.2851 119.51L56.7945 120.115L51.5216 159.418L48.7049 163.304L47.0122 158.812L52.2851 119.51Z" fill="#212D45"/>
<path fill-rule="evenodd" clip-rule="evenodd" d="M248.821 106.157L231.597 116.883L230.91 115.779L248.134 105.053L248.821 106.157ZM244.599 118.181L235.824 123.707L235.132 122.607L243.906 117.081L244.599 118.181Z" fill="white"/>
<path d="M240.352 131.227L257.846 121.207L263.337 130.797L245.843 140.817L240.352 131.227Z" fill="#F5F6FA"/>
<path d="M241.016 181.665C241.016 187.768 236.07 192.716 229.967 192.716C223.864 192.716 218.917 187.768 218.917 181.665C218.917 175.561 223.864 170.613 229.967 170.613C236.07 170.613 241.016 175.561 241.016 181.665Z" fill="white"/>
<path d="M242.015 185.24L249.628 188.907L247.655 193.007L240.042 189.341L242.015 185.24Z" fill="#F1F1F1"/>
<path d="M111.781 195.075C111.363 194.083 111.829 192.94 112.821 192.521L126 186.972C126.992 186.554 128.136 187.02 128.553 188.012L139.146 213.176C139.564 214.17 139.098 215.313 138.105 215.731L124.927 221.281C123.934 221.698 122.791 221.232 122.373 220.24L111.781 195.075Z" fill="#F1F1F1"/>
<path d="M112.978 194.571C112.839 194.24 112.995 193.859 113.326 193.72L115.889 192.641C116.146 192.532 116.445 192.6 116.629 192.811L117.367 193.651C117.552 193.862 117.85 193.93 118.108 193.822L122.635 191.915C122.893 191.806 123.053 191.545 123.031 191.266L122.945 190.151C122.924 189.872 123.084 189.611 123.341 189.502L126.504 188.17C126.835 188.031 127.216 188.186 127.355 188.517L137.948 213.682C138.087 214.013 137.932 214.394 137.601 214.533L124.422 220.082C124.091 220.222 123.71 220.066 123.571 219.736L112.978 194.571Z" fill="white"/>
<path d="M75.2123 67.2443C74.767 65.976 75.7082 64.6484 77.0514 64.6484H213.999C215.402 64.6484 216.346 66.0859 215.789 67.374L198.119 108.205H89.5753L75.2123 67.2443Z" fill="#F1F1F1"/>
<mask id="mask0_1_54" style="mask-type:luminance" maskUnits="userSpaceOnUse" x="74" y="64" width="143" height="45">
<path d="M74.3989 64H216.666V108.902H74.3989V64Z" fill="white"/>
</mask>
<g mask="url(#mask0_1_54)">
<path fill-rule="evenodd" clip-rule="evenodd" d="M74.599 67.4615C74.0053 65.7703 75.2605 64 77.0516 64H213.999C215.869 64 217.128 65.9167 216.385 67.6333L198.546 108.856H89.1152L74.599 67.4615ZM77.0516 65.3005C76.1563 65.3005 75.5287 66.1849 75.8251 67.0307L90.0365 107.556H197.692L215.192 67.1167C215.564 66.2583 214.934 65.3005 213.999 65.3005H77.0516Z" fill="#3E3D3D"/>
</g>
<path d="M81.3598 71.1311C80.926 69.8655 81.8666 68.5488 83.2041 68.5488H208.155C209.556 68.5488 210.499 69.9837 209.945 71.2712L195.157 105.604H93.1625L81.3598 71.1311Z" fill="white"/>
<path d="M130.523 158.261C130.523 157.183 131.396 156.311 132.472 156.311H155.221C156.298 156.311 157.171 157.183 157.171 158.261V170.613C157.171 171.69 156.298 172.563 155.221 172.563H132.472C131.396 172.563 130.523 171.69 130.523 170.613V158.261Z" fill="#F1F1F1"/>
<path d="M98.3497 99.1035L92.8252 76.0254H126.298L124.998 99.1035H98.3497Z" fill="#887040"/>
<path fill-rule="evenodd" clip-rule="evenodd" d="M188.694 80.9001H137.023V79.5996H188.694V80.9001ZM166.92 90.0012H135.723V88.7012H166.92V90.0012ZM165.945 98.4522H134.748V97.1522H165.945V98.4522Z" fill="#3E3D3D"/>
<path d="M100.625 117.955H107.774V121.494H100.625V117.955Z" fill="#3A3A3A"/>
<path d="M109.074 117.955H116.224V121.494H109.074V117.955Z" fill="#3A3A3A"/>
<path d="M117.523 117.955H125.323V121.494H117.523V117.955Z" fill="#3A3A3A"/>
<path d="M126.623 117.955H133.773V121.494H126.623V117.955Z" fill="#3A3A3A"/>
<path d="M135.072 117.955H142.872V121.494H135.072V117.955Z" fill="#3A3A3A"/>
<path d="M144.172 117.955H151.971V121.494H144.172V117.955Z" fill="#3A3A3A"/>
<path d="M153.271 117.955H160.421V121.494H153.271V117.955Z" fill="#3A3A3A"/>
<path d="M161.721 117.955H169.52V121.494H161.721V117.955Z" fill="#3A3A3A"/>
<path d="M170.82 117.955H177.97V121.494H170.82V117.955Z" fill="#3A3A3A"/>
<path d="M179.27 117.955H187.069V121.494H179.27V117.955Z" fill="#3A3A3A"/>
<path d="M100.625 122.832H102.575V126.733H100.625V122.832Z" fill="#3A3A3A"/>
<path d="M100.625 128.682H104.525V132.582H100.625V128.682Z" fill="#3A3A3A"/>
<path d="M100.625 134.236H105.825V138.484H100.625V134.236Z" fill="#3A3A3A"/>
<path d="M100.625 139.898H109.074V144.146H100.625V139.898Z" fill="#3A3A3A"/>
<path d="M103.875 122.91H107.774V127.157H103.875V122.91Z" fill="#3A3A3A"/>
<path d="M105.825 128.574H109.724V132.822H105.825V128.574Z" fill="#3A3A3A"/>
<path d="M107.124 134.236H111.024V138.484H107.124V134.236Z" fill="#3A3A3A"/>
<path d="M111.024 128.574H114.923V132.822H111.024V128.574Z" fill="#3A3A3A"/>
<path d="M112.324 134.236H116.224V138.484H112.324V134.236Z" fill="#3A3A3A"/>
<path d="M110.374 139.898H114.274V144.146H110.374V139.898Z" fill="#3A3A3A"/>
<path d="M100.625 145.562H104.525V149.809H100.625V145.562Z" fill="#3A3A3A"/>
<path d="M116.224 128.574H120.124V132.822H116.224V128.574Z" fill="#3A3A3A"/>
<path d="M117.523 134.236H121.423V138.484H117.523V134.236Z" fill="#3A3A3A"/>
<path d="M115.574 139.898H119.474V144.146H115.574V139.898Z" fill="#3A3A3A"/>
<path d="M105.825 145.562H109.724V149.809H105.825V145.562Z" fill="#3A3A3A"/>
<path d="M121.424 128.574H125.323V132.822H121.424V128.574Z" fill="#3A3A3A"/>
<path d="M122.724 134.236H126.623V138.484H122.724V134.236Z" fill="#3A3A3A"/>
<path d="M120.773 139.898H124.673V144.146H120.773V139.898Z" fill="#3A3A3A"/>
<path d="M111.024 145.562H114.923V149.809H111.024V145.562Z" fill="#3A3A3A"/>
<path d="M126.623 128.574H130.523V132.822H126.623V128.574Z" fill="#3A3A3A"/>
<path d="M127.923 134.236H131.822V138.484H127.923V134.236Z" fill="#3A3A3A"/>
<path d="M125.973 139.898H129.873V144.146H125.973V139.898Z" fill="#3A3A3A"/>
<path d="M116.224 145.562H120.124V149.809H116.224V145.562Z" fill="#3A3A3A"/>
<path d="M131.822 128.574H135.722V132.822H131.822V128.574Z" fill="#3A3A3A"/>
<path d="M133.123 134.236H137.023V138.484H133.123V134.236Z" fill="#3A3A3A"/>
<path d="M131.173 139.898H135.072V144.146H131.173V139.898Z" fill="#3A3A3A"/>
<path d="M137.022 128.574H140.922V132.822H137.022V128.574Z" fill="#3A3A3A"/>
<path d="M138.322 134.236H142.222V138.484H138.322V134.236Z" fill="#3A3A3A"/>
<path d="M136.373 139.898H140.272V144.146H136.373V139.898Z" fill="#3A3A3A"/>
<path d="M142.222 128.574H146.122V132.822H142.222V128.574Z" fill="#3A3A3A"/>
<path d="M143.522 134.236H147.422V138.484H143.522V134.236Z" fill="#3A3A3A"/>
<path d="M141.572 139.898H145.472V144.146H141.572V139.898Z" fill="#3A3A3A"/>
<path d="M147.422 128.574H151.321V132.822H147.422V128.574Z" fill="#3A3A3A"/>
<path d="M148.722 134.236H152.622V138.484H148.722V134.236Z" fill="#3A3A3A"/>
<path d="M146.772 139.898H150.671V144.146H146.772V139.898Z" fill="#3A3A3A"/>
<path d="M152.622 128.574H156.522V132.822H152.622V128.574Z" fill="#3A3A3A"/>
<path d="M153.921 134.236H157.821V138.484H153.921V134.236Z" fill="#3A3A3A"/>
<path d="M151.972 139.898H155.872V144.146H151.972V139.898Z" fill="#3A3A3A"/>
<path d="M157.821 128.574H161.721V132.822H157.821V128.574Z" fill="#3A3A3A"/>
<path d="M159.121 134.236H163.021V138.484H159.121V134.236Z" fill="#3A3A3A"/>
<path d="M157.171 139.898H161.071V144.146H157.171V139.898Z" fill="#3A3A3A"/>
<path d="M163.021 128.574H166.92V132.822H163.021V128.574Z" fill="#3A3A3A"/>
<path d="M164.321 134.236H168.22V138.484H164.321V134.236Z" fill="#3A3A3A"/>
<path d="M162.371 139.898H166.271V144.146H162.371V139.898Z" fill="#3A3A3A"/>
<path d="M169.521 134.236H181.87V138.484H169.521V134.236Z" fill="#3A3A3A"/>
<path d="M167.57 139.898H181.87V144.146H167.57V139.898Z" fill="#3A3A3A"/>
<path d="M168.221 128.574H172.121V132.822H168.221V128.574Z" fill="#3A3A3A"/>
<path d="M173.42 128.574H181.87V132.822H173.42V128.574Z" fill="#3A3A3A"/>
<path d="M109.074 122.91H112.974V127.157H109.074V122.91Z" fill="#3A3A3A"/>
<path d="M114.274 122.91H118.173V127.157H114.274V122.91Z" fill="#3A3A3A"/>
<path d="M119.474 122.91H123.373V127.157H119.474V122.91Z" fill="#3A3A3A"/>
<path d="M124.673 122.91H128.573V127.157H124.673V122.91Z" fill="#3A3A3A"/>
<path d="M129.873 122.91H133.773V127.157H129.873V122.91Z" fill="#3A3A3A"/>
<path d="M135.072 122.91H138.972V127.157H135.072V122.91Z" fill="#3A3A3A"/>
<path d="M140.272 122.91H144.172V127.157H140.272V122.91Z" fill="#3A3A3A"/>
<path d="M145.472 122.91H149.372V127.157H145.472V122.91Z" fill="#3A3A3A"/>
<path d="M150.671 122.91H154.571V127.157H150.671V122.91Z" fill="#3A3A3A"/>
<path d="M155.872 122.91H159.771V127.157H155.872V122.91Z" fill="#3A3A3A"/>
<path d="M161.071 122.91H164.971V127.157H161.071V122.91Z" fill="#3A3A3A"/>
<path d="M166.271 122.91H170.171V127.157H166.271V122.91Z" fill="#3A3A3A"/>
<path d="M183.169 122.91H187.069V127.157H183.169V122.91Z" fill="#3A3A3A"/>
<path d="M183.169 128.574H187.069V132.822H183.169V128.574Z" fill="#3A3A3A"/>
<path d="M183.169 134.236H187.069V138.484H183.169V134.236Z" fill="#3A3A3A"/>
<path d="M183.169 139.898H187.069V144.146H183.169V139.898Z" fill="#3A3A3A"/>
<path d="M183.169 145.562H187.069V149.809H183.169V145.562Z" fill="#3A3A3A"/>
<path d="M177.97 145.562H181.87V149.809H177.97V145.562Z" fill="#3A3A3A"/>
<path d="M172.771 145.562H176.67V149.809H172.771V145.562Z" fill="#3A3A3A"/>
<path d="M167.57 145.562H171.47V149.809H167.57V145.562Z" fill="#3A3A3A"/>
<path d="M162.371 145.562H166.271V149.809H162.371V145.562Z" fill="#3A3A3A"/>
<path d="M157.171 145.562H161.071V149.809H157.171V145.562Z" fill="#3A3A3A"/>
<path d="M121.424 145.562H155.872V149.809H121.424V145.562Z" fill="#3A3A3A"/>
<path d="M171.471 122.91H181.87V127.157H171.471V122.91Z" fill="#3A3A3A"/>
<path d="M80.801 190.441C78.9807 194.861 67.9099 215.253 62.6021 224.895L84.3755 234.322C87.7338 222.403 94.7099 197.787 95.75 194.666C97.05 190.766 99.9744 186.865 103.549 184.265C106.409 182.185 109.724 177.33 111.024 175.164L114.262 165.445C114.635 164.327 114.082 163.112 112.995 162.659C111.89 162.198 110.619 162.684 110.103 163.764L107.449 169.313L102.574 173.864L103.549 167.688L108.424 157.611L115.248 152.697C115.998 152.157 116.245 151.153 115.832 150.328C115.342 149.348 114.121 148.992 113.181 149.555L106.799 153.386L102.574 158.587L105.824 150.786L112.118 144.216C112.774 143.532 112.762 142.448 112.093 141.778C111.48 141.165 110.508 141.096 109.815 141.616L104.524 145.585L98.3494 148.51C95.75 148.835 94.45 151.436 89.575 156.961C84.7005 162.487 84.7005 170.938 84.3755 177.439C84.0505 183.94 83.0755 184.915 80.801 190.441Z" fill="#F1BAA9"/>
<path d="M90.7929 207.069L76.7502 200.685C75.7606 200.236 75.3304 199.063 75.7929 198.079L76.7591 196.026C77.2023 195.084 78.3085 194.657 79.2705 195.055L93.1497 200.818C94.0731 201.201 94.557 202.222 94.2695 203.179L93.4669 205.854C93.1273 206.986 91.8679 207.558 90.7929 207.069Z" fill="#F1F1F1"/>
<path d="M88.9257 200.842C88.9257 203.535 86.7429 205.718 84.0507 205.718C81.3586 205.718 79.1763 203.535 79.1763 200.842C79.1763 198.15 81.3586 195.967 84.0507 195.967C86.7429 195.967 88.9257 198.15 88.9257 200.842Z" fill="black"/>
<path d="M179.595 194.991C180.634 196.551 186.961 220.344 189.994 232.045L213.393 222.944C209.927 218.177 201.628 206.302 196.169 196.941C189.344 185.239 189.994 179.388 188.694 174.188C187.654 170.027 185.878 164.653 185.119 162.486L183.413 158.584C183.116 157.907 182.28 157.662 181.666 158.071C181.213 158.374 181.024 158.946 181.207 159.459L182.519 163.136V167.362L178.945 157.935L175.634 154.37C175.097 153.792 174.235 153.655 173.545 154.038C172.625 154.549 172.378 155.76 173.025 156.591L176.345 160.861L177.645 166.712L172.445 160.211L166.712 157.219C165.78 156.733 164.632 157.158 164.241 158.134C163.914 158.953 164.237 159.889 165.001 160.331L169.845 163.136L173.42 168.337L166.595 165.086H163.304C162.609 165.086 162.046 165.65 162.046 166.345C162.046 166.938 162.46 167.451 163.04 167.575L166.595 168.337L171.145 172.562L174.72 181.664L171.145 180.363L167.292 173.757C166.886 173.061 166.049 172.745 165.284 173C164.393 173.297 163.886 174.268 164.117 175.179C164.326 176.007 164.608 177.17 164.971 178.738C165.945 182.964 168.22 186.539 169.195 187.839C170.17 189.139 178.295 193.04 179.595 194.991Z" fill="#F1BAA9"/>
<path d="M186.382 233.112L186.965 234.745C187.226 235.475 187.895 235.982 188.668 236.035L196.356 236.565C196.66 236.586 196.966 236.535 197.247 236.417L219.384 227.094C220.498 226.625 220.921 225.264 220.27 224.245L217.215 219.471C216.698 218.664 215.671 218.352 214.793 218.735L187.439 230.668C186.499 231.079 186.037 232.146 186.382 233.112Z" fill="#5E4618"/>
<path d="M55.7675 229.808L73.6602 236.159C73.869 236.233 74.0904 236.271 74.3117 236.271H86.7456C87.4841 236.271 88.1591 235.854 88.4893 235.193L88.594 234.984C89.1159 233.939 88.6091 232.673 87.5107 232.277L58.8237 221.948C57.8456 221.595 56.7638 222.072 56.3638 223.033L54.6196 227.22C54.1893 228.252 54.7128 229.434 55.7675 229.808Z" fill="#5E4618"/>
<path d="M59.6771 191.74C59.6771 195.151 56.9131 197.916 53.5026 197.916C50.0922 197.916 47.3276 195.151 47.3276 191.74C47.3276 188.329 50.0922 185.564 53.5026 185.564C56.9131 185.564 59.6771 188.329 59.6771 191.74Z" fill="#F1F1F1"/>
<mask id="mask1_1_54" style="mask-type:luminance" maskUnits="userSpaceOnUse" x="20" y="235" width="260" height="2">
<path d="M20 235.568H279.733V236.923H20V235.568Z" fill="white"/>
</mask>
<g mask="url(#mask1_1_54)">
<path fill-rule="evenodd" clip-rule="evenodd" d="M20.0312 236.273C20.0312 235.914 20.3219 235.622 20.6813 235.622H279.04C279.399 235.622 279.69 235.914 279.69 236.273C279.69 236.632 279.399 236.923 279.04 236.923H20.6813C20.3219 236.923 20.0312 236.632 20.0312 236.273Z" fill="#3E3D3D"/>
</g>
</svg>
