<svg width="300" height="190" viewBox="0 0 300 190" fill="none" xmlns="http://www.w3.org/2000/svg">
<g clip-path="url(#clip0_6079_20818)">
<path d="M190.792 59.4432C191.358 53.3321 192.921 47.3557 195.418 41.7526C196.114 40.1933 196.881 38.6683 197.717 37.1776C197.759 37.0997 197.769 37.0085 197.745 36.9232C197.721 36.8379 197.665 36.7652 197.589 36.7205C197.513 36.6758 197.422 36.6626 197.336 36.6836C197.25 36.7046 197.176 36.7582 197.129 36.8331C194.088 42.2623 191.958 48.1559 190.823 54.2781C190.507 55.9877 190.27 57.7094 190.111 59.4432C190.071 59.8806 190.752 59.8778 190.792 59.4432Z" fill="#E6E6E6"/>
<path d="M199.366 38.2729C201.747 38.2729 203.678 36.337 203.678 33.949C203.678 31.5609 201.747 29.625 199.366 29.625C196.984 29.625 195.054 31.5609 195.054 33.949C195.054 36.337 196.984 38.2729 199.366 38.2729Z" fill="#E6E6E6"/>
<path d="M191.233 59.5586C191.6 55.5941 192.614 51.7169 194.235 48.0819C194.686 47.0703 195.183 46.081 195.726 45.1139C195.753 45.0634 195.759 45.0042 195.744 44.9488C195.728 44.8935 195.692 44.8464 195.643 44.8174C195.593 44.7884 195.534 44.7798 195.479 44.7934C195.423 44.807 195.375 44.8418 195.344 44.8904C193.371 48.4126 191.989 52.236 191.253 56.2078C191.049 57.3169 190.895 58.4339 190.792 59.5586C190.765 59.8424 191.207 59.8406 191.233 59.5586Z" fill="#E6E6E6"/>
<path d="M196.795 45.8232C198.34 45.8232 199.593 44.5673 199.593 43.018C199.593 41.4688 198.34 40.2129 196.795 40.2129C195.25 40.2129 193.998 41.4688 193.998 43.018C193.998 44.5673 195.25 45.8232 196.795 45.8232Z" fill="#E6E6E6"/>
<path d="M190.676 59.2921C188.534 55.9397 186.955 52.2572 186.003 48.3918C185.739 47.3156 185.524 46.229 185.358 45.1319C185.349 45.0753 185.318 45.0245 185.272 44.9905C185.225 44.9564 185.168 44.9416 185.111 44.9492C185.054 44.9569 185.003 44.9864 184.967 45.0315C184.932 45.0765 184.915 45.1337 184.921 45.1909C185.525 49.1849 186.781 53.052 188.636 56.6376C189.155 57.6384 189.719 58.6141 190.328 59.5645C190.481 59.8043 190.828 59.5304 190.676 59.2921Z" fill="#E6E6E6"/>
<path d="M184.917 45.6259C186.462 45.6259 187.714 44.37 187.714 42.8208C187.714 41.2715 186.462 40.0156 184.917 40.0156C183.372 40.0156 182.12 41.2715 182.12 42.8208C182.12 44.37 183.372 45.6259 184.917 45.6259Z" fill="#E6E6E6"/>
<path d="M182.088 61.7756V56.2641C182.089 55.7161 182.306 55.1908 182.692 54.8033C183.079 54.4158 183.603 54.1979 184.149 54.1973H196.974C197.52 54.1979 198.044 54.4158 198.43 54.8033C198.817 55.1908 199.034 55.7161 199.035 56.2641V61.7756C199.034 62.3236 198.817 62.8489 198.43 63.2364C198.044 63.6238 197.52 63.8418 196.974 63.8424H184.149C183.603 63.8418 183.079 63.6238 182.692 63.2364C182.306 62.8489 182.089 62.3236 182.088 61.7756Z" fill="#F2F2F2"/>
<path d="M196.516 26.639H191.019C190.473 26.6384 189.949 26.4204 189.563 26.0329C189.176 25.6455 188.959 25.1201 188.958 24.5722V2.06682C188.959 1.51885 189.176 0.993515 189.563 0.606046C189.949 0.218576 190.473 0.000617546 191.019 0H196.516C197.062 0.000617546 197.586 0.218576 197.972 0.606046C198.359 0.993515 198.576 1.51885 198.577 2.06682V24.5722C198.576 25.1201 198.359 25.6455 197.972 26.0329C197.586 26.4204 197.062 26.6384 196.516 26.639Z" fill="#F2F2F2"/>
<path d="M198.348 4.36328H189.187V6.20045H198.348V4.36328Z" fill="#CCCCCC"/>
<path d="M198.348 18.6016H189.187V20.4387H198.348V18.6016Z" fill="#CCCCCC"/>
<path d="M210.256 26.639H204.76C204.213 26.6384 203.689 26.4204 203.303 26.0329C202.917 25.6455 202.699 25.1201 202.699 24.5722V2.06682C202.699 1.51885 202.917 0.993515 203.303 0.606046C203.689 0.218576 204.213 0.000617546 204.76 0H210.256C210.802 0.000617546 211.326 0.218576 211.713 0.606046C212.099 0.993515 212.316 1.51885 212.317 2.06682V24.5722C212.316 25.1201 212.099 25.6455 211.713 26.0329C211.326 26.4204 210.802 26.6384 210.256 26.639Z" fill="#F2F2F2"/>
<path d="M212.088 4.36328H202.928V6.20045H212.088V4.36328Z" fill="#CCCCCC"/>
<path d="M212.088 18.6016H202.928V20.4387H212.088V18.6016Z" fill="#CCCCCC"/>
<path d="M223.996 26.639H218.5C217.954 26.6384 217.43 26.4204 217.044 26.0329C216.657 25.6455 216.44 25.1201 216.439 24.5722V2.06682C216.44 1.51885 216.657 0.993515 217.044 0.606046C217.43 0.218576 217.954 0.000617546 218.5 0H223.996C224.543 0.000617546 225.067 0.218576 225.453 0.606046C225.84 0.993515 226.057 1.51885 226.058 2.06682V24.5722C226.057 25.1201 225.84 25.6455 225.453 26.0329C225.067 26.4204 224.543 26.6384 223.996 26.639Z" fill="#F2F2F2"/>
<path d="M225.829 4.36328H216.668V6.20045H225.829V4.36328Z" fill="#CCCCCC"/>
<path d="M225.829 18.6016H216.668V20.4387H225.829V18.6016Z" fill="#CCCCCC"/>
<path d="M231.325 63.8421H225.829C225.282 63.8415 224.758 63.6235 224.372 63.2361C223.986 62.8486 223.768 62.3233 223.768 61.7753V39.2699C223.768 38.722 223.986 38.1966 224.372 37.8092C224.758 37.4217 225.282 37.2037 225.829 37.2031H231.325C231.871 37.2037 232.395 37.4217 232.782 37.8092C233.168 38.1966 233.385 38.722 233.386 39.2699V61.7753C233.385 62.3233 233.168 62.8486 232.782 63.2361C232.395 63.6235 231.871 63.8415 231.325 63.8421Z" fill="#F2F2F2"/>
<path d="M233.157 41.5664H223.997V43.4036H233.157V41.5664Z" fill="#CCCCCC"/>
<path d="M233.157 55.8047H223.997V57.6419H233.157V55.8047Z" fill="#CCCCCC"/>
<path d="M245.065 63.8421H239.569C239.023 63.8415 238.499 63.6235 238.112 63.2361C237.726 62.8486 237.509 62.3233 237.508 61.7753V39.2699C237.509 38.722 237.726 38.1966 238.112 37.8092C238.499 37.4217 239.023 37.2037 239.569 37.2031H245.065C245.612 37.2037 246.136 37.4217 246.522 37.8092C246.908 38.1966 247.126 38.722 247.126 39.2699V61.7753C247.126 62.3233 246.908 62.8486 246.522 63.2361C246.136 63.6235 245.612 63.8415 245.065 63.8421Z" fill="#F2F2F2"/>
<path d="M246.897 41.5664H237.737V43.4036H246.897V41.5664Z" fill="#CCCCCC"/>
<path d="M246.897 55.8047H237.737V57.6419H246.897V55.8047Z" fill="#CCCCCC"/>
<path d="M258.806 63.8421H253.31C252.763 63.8415 252.239 63.6235 251.853 63.2361C251.466 62.8486 251.249 62.3233 251.249 61.7753V39.2699C251.249 38.722 251.466 38.1966 251.853 37.8092C252.239 37.4217 252.763 37.2037 253.31 37.2031H258.806C259.352 37.2037 259.876 37.4217 260.262 37.8092C260.649 38.1966 260.866 38.722 260.867 39.2699V61.7753C260.866 62.3233 260.649 62.8486 260.262 63.2361C259.876 63.6235 259.352 63.8415 258.806 63.8421Z" fill="#F2F2F2"/>
<path d="M260.638 41.5664H251.478V43.4036H260.638V41.5664Z" fill="#CCCCCC"/>
<path d="M260.638 55.8047H251.478V57.6419H260.638V55.8047Z" fill="#CCCCCC"/>
<path d="M195.141 101.045H189.645C189.099 101.045 188.575 100.827 188.189 100.439C187.802 100.052 187.585 99.5264 187.584 98.9784V76.4731C187.585 75.9251 187.802 75.3998 188.189 75.0123C188.575 74.6248 189.099 74.4069 189.645 74.4062H195.141C195.688 74.4069 196.212 74.6248 196.598 75.0123C196.985 75.3998 197.202 75.9251 197.203 76.4731V98.9784C197.202 99.5264 196.985 100.052 196.598 100.439C196.212 100.827 195.688 101.045 195.141 101.045Z" fill="#F2F2F2"/>
<path d="M196.974 78.7695H187.813V80.6067H196.974V78.7695Z" fill="#CCCCCC"/>
<path d="M196.974 93.0059H187.813V94.843H196.974V93.0059Z" fill="#CCCCCC"/>
<path d="M208.882 101.045H203.386C202.839 101.045 202.315 100.827 201.929 100.439C201.543 100.052 201.325 99.5264 201.325 98.9784V76.4731C201.325 75.9251 201.543 75.3998 201.929 75.0123C202.315 74.6248 202.839 74.4069 203.386 74.4062H208.882C209.428 74.4069 209.952 74.6248 210.339 75.0123C210.725 75.3998 210.942 75.9251 210.943 76.4731V98.9784C210.942 99.5264 210.725 100.052 210.339 100.439C209.952 100.827 209.428 101.045 208.882 101.045Z" fill="#F2F2F2"/>
<path d="M210.714 78.7695H201.554V80.6067H210.714V78.7695Z" fill="#CCCCCC"/>
<path d="M210.714 93.0059H201.554V94.843H210.714V93.0059Z" fill="#CCCCCC"/>
<path d="M222.622 101.045H217.126C216.58 101.045 216.056 100.827 215.67 100.439C215.283 100.052 215.066 99.5264 215.065 98.9784V76.4731C215.066 75.9251 215.283 75.3998 215.67 75.0123C216.056 74.6248 216.58 74.4069 217.126 74.4062H222.622C223.169 74.4069 223.693 74.6248 224.079 75.0123C224.466 75.3998 224.683 75.9251 224.684 76.4731V98.9784C224.683 99.5264 224.466 100.052 224.079 100.439C223.693 100.827 223.169 101.045 222.622 101.045Z" fill="#F2F2F2"/>
<path d="M224.454 78.7695H215.294V80.6067H224.454V78.7695Z" fill="#CCCCCC"/>
<path d="M224.454 93.0059H215.294V94.843H224.454V93.0059Z" fill="#CCCCCC"/>
<path d="M237.737 26.639H232.241C231.694 26.6384 231.17 26.4204 230.784 26.0329C230.398 25.6455 230.18 25.1201 230.18 24.5722V2.06682C230.18 1.51885 230.398 0.993515 230.784 0.606046C231.17 0.218576 231.694 0.000617546 232.241 0H237.737C238.283 0.000617546 238.807 0.218576 239.194 0.606046C239.58 0.993515 239.797 1.51885 239.798 2.06682V24.5722C239.797 25.1201 239.58 25.6455 239.194 26.0329C238.807 26.4204 238.283 26.6384 237.737 26.639Z" fill="#F2F2F2"/>
<path d="M239.569 4.36328H230.409V6.20045H239.569V4.36328Z" fill="#CCCCCC"/>
<path d="M239.569 18.6016H230.409V20.4387H239.569V18.6016Z" fill="#CCCCCC"/>
<path d="M251.477 26.639H245.981C245.435 26.6384 244.911 26.4204 244.524 26.0329C244.138 25.6455 243.921 25.1201 243.92 24.5722V2.06682C243.921 1.51885 244.138 0.993515 244.524 0.606046C244.911 0.218576 245.435 0.000617546 245.981 0H251.477C252.024 0.000617546 252.548 0.218576 252.934 0.606046C253.321 0.993515 253.538 1.51885 253.538 2.06682V24.5722C253.538 25.1201 253.321 25.6455 252.934 26.0329C252.548 26.4204 252.024 26.6384 251.477 26.639Z" fill="#F2F2F2"/>
<path d="M253.309 4.36328H244.149V6.20045H253.309V4.36328Z" fill="#CCCCCC"/>
<path d="M253.309 18.6016H244.149V20.4387H253.309V18.6016Z" fill="#CCCCCC"/>
<path d="M265.218 26.639H259.722C259.175 26.6384 258.651 26.4204 258.265 26.0329C257.879 25.6455 257.661 25.1201 257.661 24.5722V2.06682C257.661 1.51885 257.879 0.993515 258.265 0.606046C258.651 0.218576 259.175 0.000617546 259.722 0H265.218C265.764 0.000617546 266.288 0.218576 266.675 0.606046C267.061 0.993515 267.278 1.51885 267.279 2.06682V24.5722C267.278 25.1201 267.061 25.6455 266.675 26.0329C266.288 26.4204 265.764 26.6384 265.218 26.639Z" fill="#F2F2F2"/>
<path d="M267.05 4.36328H257.89V6.20045H267.05V4.36328Z" fill="#CCCCCC"/>
<path d="M267.05 18.6016H257.89V20.4387H267.05V18.6016Z" fill="#CCCCCC"/>
<path d="M278.958 26.639H273.462C272.916 26.6384 272.392 26.4204 272.005 26.0329C271.619 25.6455 271.402 25.1201 271.401 24.5722V2.06682C271.402 1.51885 271.619 0.993515 272.005 0.606046C272.392 0.218576 272.916 0.000617546 273.462 0H278.958C279.505 0.000617546 280.029 0.218576 280.415 0.606046C280.801 0.993515 281.019 1.51885 281.019 2.06682V24.5722C281.019 25.1201 280.801 25.6455 280.415 26.0329C280.029 26.4204 279.505 26.6384 278.958 26.639Z" fill="#F2F2F2"/>
<path d="M280.79 4.36328H271.63V6.20045H280.79V4.36328Z" fill="#CCCCCC"/>
<path d="M280.79 18.6016H271.63V20.4387H280.79V18.6016Z" fill="#CCCCCC"/>
<path d="M299.542 27.3287H169.008C168.886 27.3287 168.77 27.2803 168.684 27.1942C168.598 27.1081 168.55 26.9913 168.55 26.8694C168.55 26.7476 168.598 26.6308 168.684 26.5447C168.77 26.4585 168.886 26.4102 169.008 26.4102H299.542C299.663 26.4102 299.78 26.4585 299.866 26.5447C299.952 26.6308 300 26.7476 300 26.8694C300 26.9913 299.952 27.1081 299.866 27.1942C299.78 27.2803 299.663 27.3287 299.542 27.3287Z" fill="#CCCCCC"/>
<path d="M299.542 64.5299H169.008C168.886 64.5299 168.77 64.4815 168.684 64.3954C168.598 64.3092 168.55 64.1924 168.55 64.0706C168.55 63.9488 168.598 63.832 168.684 63.7458C168.77 63.6597 168.886 63.6113 169.008 63.6113H299.542C299.663 63.6113 299.78 63.6597 299.866 63.7458C299.952 63.832 300 63.9488 300 64.0706C300 64.1924 299.952 64.3092 299.866 64.3954C299.78 64.4815 299.663 64.5299 299.542 64.5299Z" fill="#CCCCCC"/>
<path d="M299.542 101.733H169.008C168.886 101.733 168.77 101.685 168.684 101.599C168.598 101.512 168.55 101.396 168.55 101.274C168.55 101.152 168.598 101.035 168.684 100.949C168.77 100.863 168.886 100.814 169.008 100.814H299.542C299.663 100.814 299.78 100.863 299.866 100.949C299.952 101.035 300 101.152 300 101.274C300 101.396 299.952 101.512 299.866 101.599C299.78 101.685 299.663 101.733 299.542 101.733Z" fill="#CCCCCC"/>
<path d="M266.365 96.6464C266.931 90.5353 268.493 84.5588 270.991 78.9557C271.687 77.3964 272.453 75.8714 273.289 74.3808C273.331 74.3028 273.341 74.2116 273.317 74.1263C273.294 74.041 273.238 73.9683 273.161 73.9236C273.085 73.8789 272.994 73.8657 272.909 73.8867C272.823 73.9077 272.749 73.9613 272.701 74.0362C269.66 79.4655 267.53 85.359 266.396 91.4812C266.08 93.1908 265.843 94.9126 265.684 96.6464C265.643 97.0837 266.325 97.0809 266.365 96.6464Z" fill="#E6E6E6"/>
<path d="M274.938 75.4741C277.32 75.4741 279.25 73.5382 279.25 71.1501C279.25 68.7621 277.32 66.8262 274.938 66.8262C272.557 66.8262 270.626 68.7621 270.626 71.1501C270.626 73.5382 272.557 75.4741 274.938 75.4741Z" fill="#E6E6E6"/>
<path d="M266.806 96.7598C267.173 92.7953 268.187 88.9181 269.807 85.283C270.259 84.2715 270.756 83.2821 271.298 82.3151C271.325 82.2645 271.332 82.2053 271.316 82.15C271.301 82.0947 271.265 82.0476 271.215 82.0186C271.166 81.9896 271.107 81.981 271.051 81.9946C270.996 82.0082 270.947 82.043 270.917 82.0915C268.944 85.6138 267.562 89.4372 266.826 93.4089C266.621 94.5181 266.467 95.635 266.364 96.7598C266.338 97.0435 266.78 97.0417 266.806 96.7598Z" fill="#E6E6E6"/>
<path d="M272.368 83.0263C273.913 83.0263 275.165 81.7704 275.165 80.2212C275.165 78.6719 273.913 77.416 272.368 77.416C270.823 77.416 269.571 78.6719 269.571 80.2212C269.571 81.7704 270.823 83.0263 272.368 83.0263Z" fill="#E6E6E6"/>
<path d="M266.248 96.4952C264.106 93.1428 262.527 89.4604 261.575 85.5949C261.311 84.5188 261.096 83.4322 260.931 82.3351C260.921 82.2784 260.89 82.2277 260.844 82.1936C260.798 82.1595 260.74 82.1447 260.683 82.1524C260.627 82.16 260.575 82.1895 260.539 82.2346C260.504 82.2797 260.487 82.3368 260.493 82.394C261.098 86.388 262.353 90.2551 264.209 93.8407C264.728 94.8416 265.291 95.8172 265.9 96.7676C266.053 97.0075 266.401 96.7335 266.248 96.4952Z" fill="#E6E6E6"/>
<path d="M260.489 82.8291C262.034 82.8291 263.287 81.5732 263.287 80.0239C263.287 78.4747 262.034 77.2188 260.489 77.2188C258.945 77.2188 257.692 78.4747 257.692 80.0239C257.692 81.5732 258.945 82.8291 260.489 82.8291Z" fill="#E6E6E6"/>
<path d="M257.661 98.9768V93.4653C257.661 92.9173 257.879 92.3919 258.265 92.0045C258.651 91.617 259.175 91.3991 259.722 91.3984H272.546C273.093 91.3991 273.616 91.617 274.003 92.0045C274.389 92.3919 274.607 92.9173 274.607 93.4653V98.9768C274.607 99.5247 274.389 100.05 274.003 100.438C273.616 100.825 273.093 101.043 272.546 101.044H259.722C259.175 101.043 258.651 100.825 258.265 100.438C257.879 100.05 257.661 99.5247 257.661 98.9768Z" fill="#F2F2F2"/>
<path d="M174.962 166.954H0.458015C0.336542 166.954 0.220051 166.905 0.134156 166.819C0.0482617 166.733 0 166.616 0 166.494C0 166.373 0.0482617 166.256 0.134156 166.17C0.220051 166.084 0.336542 166.035 0.458015 166.035H174.962C175.083 166.035 175.2 166.084 175.286 166.17C175.372 166.256 175.42 166.373 175.42 166.494C175.42 166.616 175.372 166.733 175.286 166.819C175.2 166.905 175.083 166.954 174.962 166.954Z" fill="#3F3D56"/>
<path d="M91.1721 106.786C98.0019 106.786 103.538 101.234 103.538 94.3853C103.538 87.5364 98.0019 81.9844 91.1721 81.9844C84.3423 81.9844 78.8057 87.5364 78.8057 94.3853C78.8057 101.234 84.3423 106.786 91.1721 106.786Z" fill="#2F2E41"/>
<path d="M79.4222 173.992L79.0947 168.371L100.56 164.428L101.044 172.724L79.4222 173.992Z" fill="#FFB8B8"/>
<path d="M80.4621 164.261L81.094 175.102L74.2873 175.501L73.2574 157.835C74.1513 157.782 75.0467 157.907 75.8926 158.201C76.7384 158.496 77.5181 158.955 78.1871 159.552C78.8561 160.148 79.4014 160.871 79.7917 161.68C80.182 162.488 80.4098 163.365 80.4621 164.261Z" fill="#2F2E41"/>
<path d="M88.7583 173.941L85.1926 178.291L66.7639 166.57L72.0261 160.15L88.7583 173.941Z" fill="#FFB8B8"/>
<path d="M81.4064 180.376L88.2827 171.987L93.5501 176.328L82.3444 190C81.6526 189.43 81.0797 188.728 80.6582 187.936C80.2367 187.144 79.9749 186.276 79.8878 185.383C79.8007 184.489 79.89 183.587 80.1506 182.728C80.4111 181.869 80.8378 181.07 81.4064 180.376Z" fill="#2F2E41"/>
<path d="M78.4976 153.712L76.0611 165.23C76.005 165.496 76.0081 165.77 76.0703 166.034C76.1324 166.298 76.252 166.544 76.4205 166.756C76.589 166.969 76.8022 167.141 77.0448 167.26C77.2874 167.38 77.5534 167.444 77.8238 167.449L101.777 167.836C102.047 167.84 102.315 167.785 102.561 167.673C102.807 167.562 103.025 167.397 103.2 167.191C103.376 166.985 103.503 166.743 103.574 166.481C103.645 166.22 103.658 165.946 103.611 165.68L101.515 153.774C101.441 153.348 101.219 152.963 100.889 152.686C100.559 152.408 100.142 152.256 99.7113 152.256H80.2898C79.87 152.256 79.4628 152.4 79.1366 152.666C78.8103 152.931 78.5848 153.3 78.4976 153.712Z" fill="#2F2E41"/>
<path d="M82.4699 157.767C82.4699 157.767 59.1111 143.07 54.531 150.878C52.2409 154.782 53.3859 158.571 55.1035 161.384C56.6974 163.946 58.9854 165.999 61.7001 167.305L80.6378 176.598L87.5081 169.25L82.9279 165.116L82.4699 157.767Z" fill="#2F2E41"/>
<path d="M94.3783 155.471C94.3783 155.471 124.607 146.745 118.653 163.279C112.699 179.814 90.2561 173.384 90.2561 173.384L87.9661 166.494L95.7523 160.983L94.3783 155.471Z" fill="#2F2E41"/>
<path d="M91.3272 108.497C97.54 108.497 102.577 103.446 102.577 97.2162C102.577 90.9861 97.54 85.9355 91.3272 85.9355C85.1144 85.9355 80.0779 90.9861 80.0779 97.2162C80.0779 103.446 85.1144 108.497 91.3272 108.497Z" fill="#FFB8B8"/>
<path d="M91.9167 157.294C87.2422 157.223 82.5917 156.608 78.0584 155.463L77.9245 155.426L71.6471 126.47C71.0824 123.925 71.4664 121.262 72.7265 118.982C73.9866 116.702 76.0356 114.963 78.4866 114.095C86.0575 111.371 94.3093 111.206 101.983 113.624C104.557 114.456 106.725 116.231 108.052 118.595C109.379 120.959 109.769 123.737 109.144 126.377L102.132 155.402L102.034 155.449C99.1198 156.833 95.4761 157.294 91.9167 157.294Z" fill="#CCCCCC"/>
<path d="M83.4844 159.542C83.7124 158.907 84.0765 158.33 84.5511 157.851C85.0257 157.372 85.5992 157.003 86.2314 156.77C86.8635 156.538 87.5387 156.447 88.2096 156.504C88.8805 156.562 89.5307 156.766 90.1143 157.102L102.475 146.344L103.593 154.799L91.684 163.719C91.055 164.665 90.102 165.346 89.0054 165.635C87.9088 165.923 86.7449 165.798 85.7342 165.283C84.7235 164.768 83.9362 163.899 83.5216 162.841C83.1069 161.783 83.0937 160.609 83.4844 159.542Z" fill="#FFB8B8"/>
<path d="M95.2727 161.89C95.0716 161.89 94.8716 161.861 94.679 161.803C94.3662 161.712 94.0799 161.547 93.8438 161.321C93.6077 161.096 93.4289 160.818 93.3222 160.509L91.8303 156.271C91.6906 155.879 91.6728 155.454 91.7793 155.052C91.8859 154.65 92.1116 154.29 92.4267 154.019L109.267 143.881L102.629 114.182L102.798 114.141C102.866 114.124 109.668 112.572 112.455 120.025C114.407 125.245 121.63 136.595 121.12 144.265C121.024 145.799 120.414 147.256 119.39 148.4C118.366 149.544 116.987 150.308 115.477 150.57L96.5204 161.461C96.1633 161.739 95.7245 161.89 95.2727 161.89Z" fill="#CCCCCC"/>
<path d="M97.1617 158.535C96.9337 157.899 96.5696 157.322 96.095 156.843C95.6204 156.364 95.0469 155.995 94.4148 155.762C93.7826 155.53 93.1074 155.439 92.4365 155.496C91.7656 155.554 91.1154 155.758 90.5318 156.095L78.1715 145.336L77.0532 153.791L88.9622 162.711C89.5911 163.657 90.5442 164.339 91.6407 164.627C92.7373 164.915 93.9012 164.79 94.9119 164.275C95.9226 163.76 96.7099 162.891 97.1245 161.833C97.5392 160.775 97.5524 159.602 97.1617 158.535Z" fill="#FFB8B8"/>
<path d="M86.6133 161.889C86.1615 161.888 85.7228 161.737 85.3657 161.459L65.0353 151.487C63.5247 151.225 62.146 150.461 61.122 149.317C60.098 148.173 59.4884 146.716 59.3916 145.182C58.8821 137.512 67.479 125.243 69.4308 120.023C72.2179 112.57 79.0196 114.122 79.0884 114.14L79.2572 114.18L71.2446 144.797L89.4594 154.017C89.7745 154.288 90.0002 154.648 90.1067 155.05C90.2132 155.452 90.1955 155.877 90.0558 156.269L88.5639 160.508C88.4572 160.816 88.2783 161.095 88.0423 161.32C87.8062 161.545 87.5198 161.71 87.2071 161.801C87.0144 161.859 86.8144 161.888 86.6133 161.889Z" fill="#CCCCCC"/>
<path d="M110.867 166.494H70.1033C69.2533 166.493 68.4384 166.154 67.8374 165.551C67.2363 164.949 66.8982 164.131 66.8972 163.279V140.774C66.8982 139.921 67.2363 139.104 67.8374 138.501C68.4384 137.899 69.2533 137.56 70.1033 137.559H110.867C111.717 137.56 112.532 137.899 113.133 138.501C113.734 139.104 114.072 139.921 114.073 140.774V163.279C114.072 164.131 113.734 164.949 113.133 165.551C112.532 166.154 111.717 166.493 110.867 166.494Z" fill="#405888"/>
<path d="M90.4852 154.781C92.0029 154.781 93.2332 153.547 93.2332 152.025C93.2332 150.503 92.0029 149.27 90.4852 149.27C88.9674 149.27 87.7371 150.503 87.7371 152.025C87.7371 153.547 88.9674 154.781 90.4852 154.781Z" fill="white"/>
<path d="M79.9653 96.7577C79.2986 95.0618 80.3925 93.0409 82.0152 92.2194C83.638 91.3979 85.5962 91.5541 87.332 92.0955C88.7907 92.5505 90.1578 93.2557 91.5809 93.8126C92.9839 94.436 94.5165 94.7098 96.0479 94.6103C97.5659 94.4384 99.0767 93.5848 99.6978 92.1853C100.342 90.7345 99.9038 88.9642 98.9123 87.7261C97.8573 86.5292 96.4919 85.6492 94.968 85.184C91.621 84.0016 87.755 83.967 84.6478 85.6858C81.5406 87.4045 79.429 91.0642 80.0712 94.5639" fill="#2F2E41"/>
<path d="M14.9599 161.588C15.5258 155.477 17.0886 149.5 19.5861 143.897C20.2822 142.338 21.0483 140.813 21.8845 139.322C21.9264 139.244 21.9365 139.153 21.9127 139.068C21.8888 138.982 21.8328 138.91 21.7566 138.865C21.6803 138.82 21.5897 138.807 21.5039 138.828C21.4181 138.849 21.3438 138.903 21.2966 138.978C18.2557 144.407 16.1254 150.3 14.9907 156.423C14.6751 158.132 14.4379 159.854 14.2791 161.588C14.2387 162.025 14.9198 162.022 14.9599 161.588Z" fill="#E6E6E6"/>
<path d="M23.5334 140.417C25.9148 140.417 27.8453 138.482 27.8453 136.093C27.8453 133.705 25.9148 131.77 23.5334 131.77C21.152 131.77 19.2214 133.705 19.2214 136.093C19.2214 138.482 21.152 140.417 23.5334 140.417Z" fill="#405888"/>
<path d="M15.401 161.703C15.7681 157.739 16.782 153.861 18.4023 150.226C18.8538 149.215 19.3509 148.226 19.8933 147.258C19.9205 147.208 19.9271 147.149 19.9116 147.093C19.8961 147.038 19.8598 146.991 19.8103 146.962C19.7609 146.933 19.7021 146.924 19.6464 146.938C19.5908 146.952 19.5426 146.986 19.512 147.035C17.5392 150.557 16.1571 154.381 15.421 158.352C15.2163 159.461 15.0624 160.578 14.9594 161.703C14.9332 161.987 15.375 161.985 15.401 161.703Z" fill="#E6E6E6"/>
<path d="M20.9631 147.968C22.5081 147.968 23.7605 146.712 23.7605 145.163C23.7605 143.613 22.5081 142.357 20.9631 142.357C19.4182 142.357 18.1658 143.613 18.1658 145.163C18.1658 146.712 19.4182 147.968 20.9631 147.968Z" fill="#405888"/>
<path d="M14.8434 161.439C12.7012 158.086 11.1226 154.404 10.1706 150.538C9.90615 149.462 9.69125 148.376 9.52584 147.278C9.51628 147.222 9.48516 147.171 9.43901 147.137C9.39287 147.103 9.33531 147.088 9.27851 147.096C9.2217 147.103 9.17009 147.133 9.13455 147.178C9.09901 147.223 9.08231 147.28 9.08801 147.337C9.69287 151.331 10.9482 155.198 12.8039 158.784C13.3228 159.785 13.8865 160.761 14.4952 161.711C14.6485 161.951 14.9958 161.677 14.8434 161.439Z" fill="#E6E6E6"/>
<path d="M9.08471 147.77C10.6296 147.77 11.8821 146.515 11.8821 144.965C11.8821 143.416 10.6296 142.16 9.08471 142.16C7.53977 142.16 6.28735 143.416 6.28735 144.965C6.28735 146.515 7.53977 147.77 9.08471 147.77Z" fill="#405888"/>
<path d="M6.25586 163.92V158.409C6.25648 157.861 6.47383 157.335 6.86022 156.948C7.24661 156.56 7.77049 156.342 8.31693 156.342H21.1414C21.6878 156.342 22.2117 156.56 22.5981 156.948C22.9845 157.335 23.2018 157.861 23.2024 158.409V163.92C23.2018 164.468 22.9845 164.993 22.5981 165.381C22.2117 165.768 21.6878 165.986 21.1414 165.987H8.31693C7.77049 165.986 7.24661 165.768 6.86022 165.381C6.47383 164.993 6.25648 164.468 6.25586 163.92Z" fill="#F2F2F2"/>
<path d="M144.004 170.352C144.004 173.373 141.562 174.746 138.55 174.746C135.537 174.746 133.095 173.373 133.095 170.352C133.095 167.332 134.307 163.807 138.55 165.022C142.792 163.199 144.004 167.332 144.004 170.352Z" fill="#FF6584"/>
<path d="M138.284 166.437C138.072 166.438 137.867 166.36 137.707 166.22C137.548 166.08 137.445 165.886 137.418 165.675C137.237 164.168 136.242 161.216 135.822 160.017L135.822 160.017C135.78 159.898 135.767 159.77 135.784 159.645C135.802 159.519 135.849 159.4 135.923 159.298C135.993 159.206 136.082 159.13 136.184 159.075C136.286 159.02 136.398 158.987 136.513 158.979C136.628 158.97 136.744 158.987 136.853 159.026C136.961 159.066 137.06 159.128 137.143 159.209C137.217 159.287 137.274 159.379 137.311 159.48C137.348 159.581 137.364 159.688 137.357 159.795C137.275 161.334 138.394 163.821 139.068 165.167C139.132 165.293 139.164 165.434 139.161 165.576C139.159 165.718 139.122 165.857 139.054 165.982C138.986 166.106 138.889 166.212 138.771 166.291C138.653 166.369 138.517 166.418 138.376 166.432C138.346 166.436 138.315 166.437 138.284 166.437Z" fill="#3F3D56"/>
<path d="M142.32 163.042C144.213 161.488 142.728 158.308 140.358 158.919C140.039 158.995 139.745 159.152 139.505 159.375C138.051 160.752 137.826 164.275 137.826 164.275C137.826 164.275 140.393 164.624 142.32 163.042Z" fill="#3F3D56"/>
</g>
<defs>
<clipPath id="clip0_6079_20818">
<rect width="300" height="190" fill="white"/>
</clipPath>
</defs>
</svg>
