<svg width="300" height="298" viewBox="0 0 300 298" fill="none" xmlns="http://www.w3.org/2000/svg">
<path d="M69.6811 123.074C70.1327 123.458 70.828 123.59 71.4343 123.772C74.3491 124.651 77.271 125.513 80.1929 126.378C85.2514 127.45 90.2882 128.635 95.3686 129.571C111.95 132.633 128.546 135.612 145.138 138.599C148.719 139.243 152.301 140.034 155.915 140.308C158.001 140.468 160.346 140.155 162.25 139.325C172.865 134.697 183.413 129.913 193.921 125.043C199.55 122.433 205.053 119.55 210.811 116.645C215.851 113.267 217.386 108.443 217.404 103.003C217.419 98.8383 215.468 96.4419 211.711 95.5626C211.338 96.1074 211.079 96.9587 210.571 97.1504C211.079 96.9587 211.338 96.1074 211.639 95.5099C211.388 95.4059 211.212 95.3531 210.872 95.3283C208.147 96.244 205.55 97.062 203.02 98.0483C205.55 97.0651 208.143 96.244 210.775 95.2251C204.232 93.1282 197.689 90.9064 191.006 89.2402C175.565 85.3918 160.038 81.8747 144.597 78.0729C141.621 77.3434 138.77 77.279 135.892 78.0232C123.387 81.2516 110.86 84.4023 98.4194 87.8588C90.2311 90.1342 82.1749 92.8791 74.0616 95.4136C72.8788 95.7799 71.7569 96.1967 72.728 97.7736C73.8202 97.869 74.9507 97.8388 76.0358 97.9598C74.946 97.8458 73.8085 97.9047 72.7069 97.9125C72.7819 100.048 74.7468 98.6707 75.5999 99.5639C76.0765 99.5857 76.41 99.5569 76.7147 99.6353C83.3405 101.351 89.9444 103.145 96.5874 104.787C107.967 107.595 119.371 110.308 130.765 113.06C138.064 114.823 145.389 116.506 152.659 118.382C157.89 119.735 160.776 123.564 160.739 128.561C160.773 123.565 157.886 119.738 152.659 118.389C145.389 116.514 138.068 114.833 130.765 113.067C119.371 110.315 107.967 107.603 96.5874 104.794C89.9444 103.152 83.3405 101.358 76.7147 99.6423C76.41 99.5639 76.0765 99.5926 75.5999 99.7207C76.1882 103.239 77.3061 106.577 77.5757 109.981C77.8515 113.452 77.26 116.965 73.8147 119.137C73.1296 119.567 72.5671 120.187 72.0468 120.824C73.0124 121.088 73.9233 121.333 74.8272 121.525C73.9132 121.333 72.9663 121.084 71.8858 120.821C71.1725 120.682 70.703 120.533 70.2936 120.636C69.6882 120.789 69.1249 121.123 68.5444 121.379C68.914 121.957 69.1827 122.651 69.6811 123.074ZM181.441 107.941C180.721 108.204 179.871 108.126 179.079 108.204C179.867 108.126 180.717 108.204 181.441 107.941ZM101.51 113.217C104.181 113.939 106.887 114.534 109.551 115.278C114.215 116.581 118.848 117.994 123.515 119.29C126.394 120.087 129.313 120.749 132.321 121.554C134.648 122.305 136.895 122.889 139.079 123.676C140.943 124.345 142.958 124.096 144.805 125.416C146.479 126.613 148.891 126.826 151.007 127.356C151.07 127.373 151.135 127.381 151.201 127.384C151.133 127.381 151.067 127.373 151.003 127.356C148.888 126.826 146.475 126.613 144.801 125.416C142.955 124.099 140.94 124.349 139.076 123.676C136.895 122.893 134.648 122.309 132.429 121.636C129.313 120.749 126.394 120.087 123.512 119.29C118.844 117.994 114.212 116.581 109.548 115.278C106.884 114.534 104.177 113.939 101.506 113.217C101.015 113.085 100.607 112.654 100.158 112.359C100.623 112.28 101.106 112.074 101.544 112.129C101.107 112.078 100.622 112.28 100.162 112.359C100.61 112.65 101.019 113.085 101.51 113.217ZM103.402 112.457C104.787 112.708 106.168 112.979 107.534 113.303C106.167 112.981 104.787 112.709 103.402 112.457ZM126.819 122.249C126.326 121.975 125.848 121.674 125.337 121.444C125 121.294 124.613 121.237 124.247 121.159C122.2 120.721 120.153 120.273 118.095 119.878C117.898 119.838 117.637 120.118 117.405 120.253C117.405 120.253 117.404 120.252 117.403 120.251C117.636 120.119 117.898 119.834 118.095 119.874C120.153 120.269 122.2 120.717 124.247 121.155C124.616 121.233 125 121.291 125.337 121.44C125.85 121.672 126.33 121.974 126.825 122.249C126.823 122.249 126.821 122.249 126.819 122.249ZM126.487 122.26C126.068 122.275 125.648 122.291 125.226 122.305C123.323 121.78 121.483 121.386 119.663 121.014C121.481 121.38 123.309 121.752 125.169 122.191C125.633 122.267 126.063 122.269 126.487 122.26ZM115.19 119.11C114.873 118.997 114.562 118.866 114.237 118.773C113.301 118.503 112.376 118.144 111.419 118.015C110.651 117.913 109.846 118.093 109.056 118.146C109.054 118.146 109.051 118.145 109.05 118.144C109.842 118.09 110.648 117.909 111.419 118.012C112.376 118.14 113.301 118.499 114.237 118.77C114.564 118.863 114.876 118.995 115.194 119.109C115.193 119.109 115.192 119.11 115.19 119.11ZM112.967 119.49C112.318 119.365 111.673 119.2 111.025 119.066C110.979 119.044 110.936 119.024 110.891 119.003C111.632 119.182 112.307 119.36 112.967 119.49ZM159.055 135.441C159.758 135.082 160.081 133.985 160.572 133.223C160.559 132.504 160.445 131.771 160.506 131.069C160.448 131.774 160.576 132.502 160.708 133.199C160.995 132.985 161.189 132.818 161.285 132.597C163.816 127.353 160.956 120.675 155.865 117.998C160.964 120.67 163.83 127.355 161.3 132.604C161.196 132.818 161.002 132.985 160.715 133.199C160.084 133.985 159.765 135.078 159.062 135.438C158.273 135.843 157.394 136.297 156.519 136.582C157.391 136.297 158.269 135.843 159.055 135.441ZM149.798 121.414C149.62 121.341 149.443 121.269 149.263 121.2C149.443 121.269 149.621 121.341 149.798 121.414ZM148.793 121.022C148.599 120.951 148.404 120.881 148.207 120.812C148.405 120.881 148.6 120.952 148.793 121.022ZM145.624 119.935C143.867 119.474 142.202 119.047 140.562 118.614C142.229 119.052 143.901 119.481 145.568 119.917C145.587 119.923 145.605 119.929 145.624 119.935ZM95.8827 107.722C96.0538 107.946 96.1827 108.24 96.4085 108.375C96.7272 108.568 97.1218 108.628 97.4764 108.763C100.671 109.977 104.188 109.92 107.361 111.273C108.551 111.782 109.924 111.843 111.183 112.213C115.449 113.462 119.69 114.787 123.96 116.029C131.486 118.219 139.025 120.361 146.554 122.54C147.573 122.836 148.537 123.359 149.569 123.519C150.005 123.59 150.548 123.007 151.046 122.717V122.718C150.551 123.007 150.007 123.59 149.565 123.523C148.533 123.359 147.569 122.839 146.551 122.543C139.022 120.365 131.482 118.222 123.957 116.032C119.69 114.79 115.445 113.466 111.18 112.217C109.921 111.846 108.548 111.782 107.358 111.277C104.181 109.923 100.668 109.981 97.4733 108.767C97.1178 108.631 96.7241 108.571 96.4046 108.379C96.1788 108.243 96.0499 107.948 95.878 107.723C95.8796 107.723 95.8811 107.723 95.8827 107.722ZM96.2288 115.485C95.8421 115.53 95.4405 115.662 95.0671 115.602C91.9444 115.107 88.8218 114.601 85.7139 114.029C85.3194 113.957 85.0007 113.487 84.6452 113.202C84.6468 113.101 84.646 113.037 84.6452 112.99C88.221 113.486 91.7499 113.977 95.2608 114.545C95.6264 114.605 95.91 115.16 96.2288 115.485ZM95.1428 110.82C94.9491 110.878 94.7413 111.013 94.5655 110.981C92.3499 110.579 90.1382 110.159 87.9257 109.728C87.7788 109.699 87.6608 109.55 87.528 109.458C87.7038 109.358 87.8897 109.162 88.0585 109.176C88.7257 109.24 89.3882 109.368 90.0553 109.475C91.8225 109.853 93.2788 110.148 94.7343 110.472C94.8882 110.508 95.0061 110.699 95.1428 110.82ZM86.2046 105.004C88.1413 105.413 90.0514 105.958 91.9663 106.467C92.2241 106.534 92.4577 106.691 92.7046 106.809C92.4178 107.019 92.1561 107.314 91.8374 107.404C91.5897 107.471 91.271 107.286 90.9843 107.2C88.9186 106.592 86.8499 105.983 84.785 105.374C85.0897 105.21 85.696 104.894 86.2046 105.004ZM75.7515 121.698C75.603 121.674 75.4546 121.648 75.3054 121.62C75.4538 121.649 75.603 121.674 75.7515 121.698Z" fill="#303033"/>
<path d="M72.0908 152.315C72.4455 152.497 72.6783 152.614 72.9221 152.672C89.4963 156.498 106.07 160.318 122.645 164.145C132.981 166.534 143.317 168.926 153.649 171.322C156.034 171.877 158.564 170.278 159.278 167.869C160.332 164.294 159.698 160.842 158.697 157.391C157.256 152.006 152.81 151.251 148.192 150.425C137.366 148.481 126.563 146.406 115.783 144.23C105.067 142.066 94.383 139.749 83.7025 137.421C79.601 136.527 75.5502 135.412 71.3408 134.537C71.5924 135.481 71.9791 136.288 72.3627 137.096C73.0408 137.29 73.7127 137.519 74.3947 137.695C73.7088 137.522 73.0221 137.305 72.2588 137.172C71.8213 138.186 72.0439 138.82 73.2807 138.951C76.4783 139.46 79.5228 139.969 82.5556 140.532C88.5752 141.649 94.5978 142.761 100.603 143.95C104.414 144.704 108.193 145.619 111.997 146.427C114.948 147.054 117.913 147.627 120.874 148.207C120.93 148.219 120.988 148.221 121.047 148.219C120.986 148.222 120.925 148.219 120.867 148.207C117.905 147.627 114.94 147.054 111.99 146.427C108.189 145.619 104.407 144.704 100.596 143.95C94.5908 142.761 88.5681 141.649 82.5486 140.532C79.515 139.966 76.4713 139.46 73.2767 139.112C73.1767 139.667 73.2447 140.037 73.2846 140.407C73.5994 143.483 74.6361 146.573 73.1549 149.766C72.7713 150.681 72.3736 151.454 72.0908 152.315ZM145.841 153.639C145.617 153.566 145.39 153.495 145.165 153.423C145.391 153.495 145.616 153.567 145.841 153.639ZM124.975 148.193C129.822 149.464 134.648 150.817 139.488 152.105C139.932 152.223 140.456 152.062 140.94 152.034C142.042 152.425 143.059 152.753 144.039 153.065C143.07 152.759 142.085 152.45 141.055 152.109C140.452 152.062 139.932 152.223 139.488 152.105C134.648 150.817 129.822 149.464 124.975 148.193C124.506 148.068 123.921 148.375 123.387 148.482V148.481C123.917 148.375 124.506 148.068 124.975 148.193ZM121.117 150.393C120.745 150.328 120.374 150.244 120.006 150.156C120.379 150.244 120.749 150.326 121.117 150.389C121.572 150.468 122.061 150.329 122.537 150.29C122.538 150.291 122.539 150.292 122.541 150.293C122.064 150.333 121.573 150.471 121.117 150.393ZM106.086 144.501C106.338 144.492 106.589 144.49 106.838 144.495C106.59 144.49 106.34 144.492 106.088 144.501C106.088 144.501 106.087 144.501 106.086 144.501ZM110.088 147.32C110.32 147.591 110.513 148.033 110.796 148.101C112.404 148.482 114.024 148.831 115.691 149.183C113.991 148.828 112.388 148.482 110.796 148.104C110.513 148.036 110.323 147.592 110.086 147.321C110.087 147.321 110.088 147.321 110.088 147.32Z" fill="#303033"/>
<path d="M238.94 164.982C235.23 165.708 231.666 166.396 228.145 167.246C201.012 173.815 173.887 180.415 146.759 187.007C143.848 187.716 140.954 188.499 138.029 189.129C137.072 189.334 136.027 189.125 135.219 189.74C136.029 189.121 137.073 189.331 138.032 189.126C140.961 188.496 143.851 187.713 146.762 187.004C173.887 180.411 201.016 173.811 228.149 167.243C231.669 166.392 235.233 165.705 238.94 164.836C238.427 164.113 237.84 163.323 237.051 162.913C235.875 162.301 234.562 161.949 233.305 161.5C222.925 157.819 212.546 154.142 202.167 150.465C198.619 152.467 195.053 154.438 191.498 156.428C195.072 154.424 198.671 152.428 202.282 150.38C206.953 148.09 211.503 145.897 216.049 143.697C219.591 141.985 221.86 139.083 222.416 135.353C222.886 132.202 222.814 128.863 222.312 125.712C221.817 122.604 220.19 119.692 217.139 118.279C215.217 117.389 212.966 117.211 210.736 116.756C205.053 119.557 199.55 122.437 193.921 125.046C183.413 129.917 172.866 134.701 162.25 139.329C160.346 140.158 158.002 140.472 155.915 140.312C152.301 140.037 148.719 139.247 145.138 138.603C128.542 135.612 111.95 132.636 95.3687 129.574C90.2883 128.635 85.2516 127.45 80.0742 126.474C76.6617 127.232 73.3383 127.791 70.0859 128.635C69.1898 128.863 68.5125 129.917 67.7344 130.593C67.8453 130.58 67.9766 130.54 68.0914 130.522C67.9734 130.555 67.8352 130.629 67.7055 130.728C67.5195 133.341 69.8062 133.427 71.3266 134.402C75.5539 135.41 79.6086 136.524 83.7101 137.417C94.3898 139.745 105.073 142.063 115.79 144.228C126.57 146.406 137.376 148.478 148.2 150.422C152.81 151.251 157.252 152.006 158.852 157.349C158.961 156.989 159.03 156.639 159.016 156.312C159.034 156.642 158.962 156.996 158.855 157.36C159.701 160.849 160.335 164.306 159.281 167.88C158.568 170.29 156.037 171.885 153.653 171.333C143.316 168.934 132.984 166.541 122.648 164.156C106.074 160.329 89.5 156.509 72.9258 152.683C72.6781 152.625 72.4484 152.508 71.925 152.323C71.4484 152.223 71.2156 152.141 71.0719 152.22C70.2687 152.668 68.9641 153.024 68.8063 153.654C68.7695 153.802 68.7555 153.935 68.7602 154.059C68.7539 153.933 68.7688 153.795 68.8063 153.644C68.9641 153.013 70.2687 152.657 71.0719 152.209C71.2117 152.131 71.4453 152.213 71.807 152.223C72.3734 151.458 72.775 150.685 73.0117 149.795C71.0398 150.308 69.2617 151.052 67.4148 151.536C63.6758 152.511 61.518 155.103 60.9977 158.609C60.3523 162.978 60.3023 167.442 60.1305 171.871C59.9938 175.384 61.9656 177.845 64.6977 179.745C72.3523 185.074 79.9203 190.543 87.743 195.623C100.119 203.664 112.452 211.799 125.936 217.986C129.094 219.435 132.307 220.859 135.874 220.332C139.28 219.83 142.693 219.208 146.009 218.3C165.806 212.878 185.593 207.424 205.344 201.842C215.353 199.012 225.287 195.908 235.23 192.846C235.918 192.632 236.394 191.735 236.972 191.155C236.248 190.831 235.52 190.51 234.796 190.187C221.783 193.663 208.764 197.119 195.755 200.607C208.762 197.113 221.773 193.638 234.745 190.069C231.132 186.787 230.533 182.643 231.035 178.275C231.254 176.349 231.924 174.445 232.619 172.615C233.257 170.939 234.198 169.386 235.008 167.778C235.015 167.776 235.022 167.775 235.029 167.773C235.05 167.766 235.093 167.773 235.097 167.773C235.183 167.692 235.287 167.656 235.631 167.634C236.706 167.367 237.57 167.165 238.409 166.891C239.395 166.57 239.736 165.961 238.94 164.982ZM176.343 191.717C176.308 191.711 176.276 191.704 176.242 191.698C181.639 190.197 186.866 188.633 192.136 187.214C186.851 188.638 181.606 190.208 176.343 191.717ZM189.358 190.522C188.159 190.825 186.946 191.132 185.701 191.443C185.667 191.449 185.639 191.453 185.607 191.46C186.909 191.137 188.149 190.826 189.358 190.522ZM183.391 192.219C183.853 192.252 184.346 192.404 184.776 192.298C187.701 191.575 190.616 190.799 193.53 190.026C193.585 190.011 193.635 189.981 193.684 189.945C193.634 189.983 193.583 190.015 193.526 190.03C190.612 190.802 187.698 191.578 184.772 192.302C184.341 192.408 183.851 192.255 183.384 192.223C183.387 192.222 183.389 192.221 183.391 192.219ZM189.923 183.633C190.109 183.662 190.316 183.76 190.473 183.711C191.168 183.483 191.827 183.131 192.534 182.977C194.484 182.551 196.47 182.28 198.406 181.806C200.397 181.32 202.385 180.816 204.38 180.304C202.376 180.821 200.392 181.323 198.406 181.81C196.47 182.284 194.484 182.554 192.534 182.981C191.827 183.138 191.164 183.49 190.473 183.715C190.315 183.768 190.107 183.665 189.92 183.636C189.921 183.635 189.922 183.634 189.923 183.633ZM175.013 191.399C174.916 191.369 174.823 191.341 174.73 191.311C174.823 191.341 174.918 191.369 175.013 191.399ZM187.361 132.575C194.178 128.883 200.999 125.157 207.9 121.415C208.639 121.008 209.331 120.651 209.98 120.267C209.341 120.647 208.676 120.993 208.033 121.365C201.036 125.145 194.187 128.88 187.361 132.575ZM181.819 135.568C183.504 134.66 185.188 133.752 186.873 132.84C185.187 133.752 183.503 134.661 181.819 135.568ZM179.526 135.282C189.741 129.692 199.969 124.131 210.223 118.61C211.026 118.179 212.019 118.101 212.926 117.859C212.926 117.859 212.926 117.86 212.925 117.86C212.019 118.101 211.028 118.18 210.226 118.61C199.973 124.131 189.744 129.692 179.53 135.282C178.778 135.694 178.19 136.391 177.523 136.958C177.522 136.958 177.52 136.958 177.519 136.958C178.186 136.392 178.777 135.69 179.526 135.282ZM101.291 174.541C98.1289 172.871 94.9203 171.276 91.8805 169.407C86.0687 165.833 80.3508 162.113 74.6211 158.407C74.0156 158.015 72.725 157.627 74.0797 156.478C73.6344 156.31 73.1617 156.132 72.6758 155.962C73.1906 156.132 73.7031 156.31 74.2195 156.47C74.5391 156.62 74.8617 156.769 75.4711 156.918C75.7922 156.934 76.0477 156.939 76.2687 156.951C76.0695 156.945 75.8531 156.946 75.6039 156.943C82.7812 162.394 90.3601 167.428 98.5844 171.454C99.782 172.038 100.908 172.775 102.012 173.523C102.324 173.736 102.438 174.234 102.643 174.601C102.187 174.587 101.65 174.73 101.291 174.541ZM132.724 193.806C131.52 196.356 130.881 199.047 131.532 202.066C131.801 201.771 131.955 201.514 132.048 201.24C132.962 198.581 133.687 195.84 134.859 193.298C134.978 193.041 135.151 192.783 135.36 192.538C135.152 192.783 134.981 193.039 134.863 193.294C133.691 195.836 132.966 198.577 132.052 201.237C131.959 201.515 131.802 201.767 131.529 202.223C131.445 203.387 131.481 204.371 131.565 205.345C131.48 204.369 131.441 203.383 131.389 202.251C130.838 199.102 131.509 196.37 132.724 193.806ZM205.823 183.776C207.262 183.309 208.687 182.794 210.148 182.415C208.686 182.797 207.26 183.309 205.823 183.776ZM225.216 174.829C223.928 175.178 222.639 175.519 221.349 175.858C222.641 175.517 223.93 175.175 225.216 174.825C225.566 174.733 225.803 174.227 226.092 173.913C226.093 173.913 226.094 173.914 226.094 173.914C225.804 174.227 225.567 174.733 225.216 174.829Z" fill="#303033"/>
<path d="M235.172 167.837C235.358 167.837 235.466 167.772 235.491 167.691C235.287 167.655 235.183 167.691 235.172 167.837Z" fill="#303033"/>
<path d="M127.757 186.192C128.273 186.445 128.768 186.816 129.313 186.915C130.015 187.043 130.758 186.951 131.482 186.954C130.965 186.48 130.528 185.814 129.919 185.565C125.738 183.843 121.53 182.191 117.306 180.571C116.805 180.379 116.169 180.525 115.596 180.514C116.026 180.92 116.388 181.486 116.897 181.703C120.411 183.191 123.96 184.608 127.757 186.192Z" fill="#2E59A7"/>
<path d="M184.991 203.5C169.073 207.804 153.169 212.172 137.287 216.597C135.884 216.988 135.229 216.462 134.594 215.536C132.508 212.493 131.891 209.001 131.572 205.43C131.482 204.426 131.443 203.415 131.389 202.251C130.582 197.637 132.396 193.917 134.702 190.314C135.544 189 136.852 189.377 138.032 189.125C140.961 188.495 143.851 187.712 146.762 187.004C173.887 180.41 201.016 173.81 228.149 167.242C231.669 166.391 235.233 165.704 238.94 164.836C238.427 164.113 237.84 163.322 237.051 162.913C235.875 162.3 234.562 161.948 233.305 161.5C222.925 157.819 212.546 154.141 202.167 150.464L73.9609 149.684C73.6383 149.469 73.2156 149.482 72.8672 149.678C72.3367 149.975 71.7828 150.142 71.1828 150.338C69.9297 150.744 68.6914 151.202 67.4148 151.535C63.6758 152.511 61.518 155.103 60.9977 158.609C60.3523 162.977 60.3023 167.441 60.1305 171.87C59.9938 175.384 61.9656 177.844 64.6977 179.744C72.3523 185.074 79.9203 190.542 87.743 195.622C100.119 203.664 112.452 211.798 125.936 217.986C129.094 219.435 132.307 220.859 135.874 220.332C139.28 219.83 142.693 219.206 146.009 218.299C165.806 212.877 185.593 207.423 205.344 201.842C215.353 199.011 225.287 195.907 235.23 192.845C235.918 192.631 236.394 191.734 236.972 191.154C236.248 190.83 235.52 190.51 234.796 190.186C218.193 194.621 201.579 199.021 184.991 203.5Z" fill="#40876D"/>
<path d="M222.312 125.712C221.817 122.604 220.19 119.693 217.139 118.279C215.217 117.389 212.966 117.212 210.736 116.755L117.465 112.117L80.0742 126.475C76.6617 127.233 73.3383 127.791 70.0859 128.635C69.1898 128.863 68.5125 129.917 67.7344 130.593C67.9242 130.572 68.1828 130.458 68.2969 130.539C73.0656 133.972 78.8625 134.499 84.2976 135.734C101.707 139.692 119.203 143.281 136.684 146.909C141.789 147.969 146.941 148.92 152.118 149.493C156.302 149.956 158.044 152.426 158.966 155.994C159.077 156.41 158.998 156.876 158.855 157.36C159.701 160.85 160.335 164.306 159.281 167.881C158.568 170.29 156.037 171.885 153.653 171.333C143.316 168.934 132.984 166.542 122.648 164.156C106.074 160.33 89.5 156.51 72.9258 152.682C72.6781 152.626 72.4484 152.509 71.925 152.323C71.4484 152.224 71.2156 152.142 71.0719 152.22C70.2687 152.668 68.9641 153.025 68.8062 153.655C68.5055 154.862 69.6883 155.196 70.7742 155.424C71.943 155.669 73.0726 156.115 74.2195 156.47C74.5391 156.62 74.8617 156.77 75.4711 156.919C76.1414 156.951 76.532 156.941 76.9015 157.026C83.6992 158.585 90.489 160.188 97.2937 161.722C116.715 166.104 136.157 170.4 155.556 174.876C159.123 175.698 161.981 175 164.91 172.95C169.937 169.429 175.042 166.001 180.312 162.857C187.497 158.571 194.868 154.588 202.282 150.379C206.953 148.091 211.503 145.897 216.049 143.697C219.591 141.985 221.86 139.084 222.416 135.353C222.886 132.203 222.814 128.863 222.312 125.712Z" fill="#FCAC3D"/>
<path d="M217.404 103.003C217.386 108.443 215.851 113.267 210.811 116.645C205.053 119.549 199.55 122.433 193.921 125.043C183.413 129.913 172.865 134.697 162.25 139.325C160.346 140.155 158.001 140.468 155.915 140.308C152.301 140.034 148.719 139.243 145.138 138.599C128.546 135.612 111.95 132.633 95.3686 129.571C90.2882 128.635 85.2514 127.45 80.1929 126.378C77.271 125.513 74.3491 124.651 71.4343 123.772C70.828 123.59 70.1327 123.458 69.6811 123.074C69.1827 122.651 68.914 121.957 68.5444 121.379C69.1249 121.123 69.6882 120.789 70.2936 120.636C70.703 120.533 71.1725 120.682 71.8858 120.821C73.4522 121.202 74.7397 121.558 76.0515 121.746C80.2139 122.352 84.4233 122.693 88.5421 123.498C106.834 127.072 125.104 130.753 143.374 134.434C147.11 135.185 150.777 136.321 154.542 136.837C155.972 137.033 157.661 136.157 159.062 135.438C159.765 135.078 160.084 133.985 160.715 133.199C161.002 132.985 161.196 132.818 161.3 132.604C164.19 126.609 160.041 118.742 153.566 117.118C146.238 115.281 138.91 113.416 131.536 111.793C113.344 107.785 95.2538 103.416 77.3679 98.2113C75.9046 97.7845 74.2772 97.9086 72.728 97.7736C71.7569 96.1967 72.8788 95.7799 74.0616 95.4136C82.1749 92.8783 90.2311 90.1342 98.4194 87.8588C110.86 84.4023 123.387 81.2516 135.892 78.0232C138.77 77.279 141.621 77.3434 144.597 78.0729C160.037 81.8747 175.565 85.3918 191.006 89.2402C197.689 90.9064 204.232 93.1282 210.775 95.2251L211.643 95.6658C211.664 95.6301 211.689 95.5983 211.711 95.5626C215.468 96.4419 217.419 98.8383 217.404 103.003Z" fill="#405888"/>
<path d="M208.033 121.365C208.968 120.824 209.951 120.343 210.829 119.724C211.589 119.186 212.23 118.485 212.927 117.859C212.02 118.1 211.026 118.178 210.223 118.609C199.97 124.131 189.741 129.692 179.527 135.281C178.777 135.69 178.186 136.391 177.52 136.957C178.437 136.786 179.473 136.829 180.255 136.409C189.451 131.468 198.607 126.456 208.033 121.365Z" fill="#FCAC3D"/>
<path d="M234.745 190.067C218.193 194.62 201.579 199.02 184.991 203.503C169.073 207.807 153.173 212.174 137.287 216.599C135.884 216.991 135.229 216.461 134.594 215.538C132.504 212.495 131.891 209.002 131.572 205.432C131.482 204.428 131.443 203.42 131.529 202.221C131.801 201.765 131.959 201.512 132.052 201.235C132.966 198.575 133.691 195.834 134.863 193.292C135.336 192.267 136.663 191.242 137.792 190.964C148.275 188.369 158.805 185.952 169.309 183.45C191.211 178.234 213.109 173.001 235.011 167.771C234.201 169.38 233.258 170.936 232.62 172.613C231.924 174.443 231.254 176.347 231.035 178.273C230.533 182.641 231.132 186.785 234.745 190.067ZM176.343 191.715C181.606 190.206 186.852 188.636 192.136 187.212C195.983 186.176 199.898 185.39 203.755 184.389C205.91 183.83 207.99 182.975 210.148 182.414C212.349 181.844 214.601 181.481 216.827 180.996C217.139 180.929 217.408 180.68 217.698 180.516C217.343 180.362 216.948 180.021 216.644 180.085C213.202 180.819 209.757 181.555 206.341 182.41C201.823 183.538 197.32 184.742 192.828 185.966C187.145 187.514 181.477 189.113 175.809 190.712C175.426 190.822 175.088 191.107 174.73 191.309C175.16 191.445 175.594 191.576 176.343 191.715ZM212.812 178.07C216.948 176.998 221.09 175.944 225.216 174.827C225.567 174.731 225.804 174.225 226.095 173.912C225.707 173.806 225.287 173.549 224.937 173.62C222.645 174.087 220.351 174.564 218.089 175.151C210.141 177.216 202.192 179.295 194.266 181.448C192.907 181.819 191.652 182.57 190.358 183.172C190.178 183.253 190.063 183.474 189.92 183.634C190.107 183.663 190.315 183.766 190.473 183.713C191.164 183.488 191.827 183.136 192.534 182.979C194.484 182.552 196.47 182.282 198.406 181.808C203.121 180.651 207.817 179.42 212.812 178.07ZM185.557 191.47C185.252 191.527 184.934 191.544 184.646 191.652C184.216 191.808 183.804 192.029 183.384 192.221C183.851 192.253 184.341 192.406 184.772 192.3C187.698 191.576 190.613 190.8 193.527 190.028C193.699 189.982 193.835 189.797 193.989 189.679C193.821 189.611 193.634 189.455 193.491 189.487C190.938 190.117 188.393 190.768 185.557 191.47Z" fill="#E5E1D7"/>
<path d="M158.697 157.391C159.698 160.842 160.332 164.294 159.278 167.869C158.564 170.279 156.034 171.877 153.649 171.322C143.317 168.926 132.981 166.534 122.645 164.145C106.07 160.318 89.4963 156.498 72.9221 152.672C72.6783 152.614 72.4455 152.497 72.09 152.315C72.3736 151.454 72.7713 150.681 73.1549 149.767C74.6361 146.573 73.5994 143.483 73.2846 140.407C73.2447 140.037 73.1767 139.667 73.2767 139.112C76.4713 139.46 79.515 139.966 82.5486 140.532C88.5681 141.649 94.5908 142.761 100.596 143.95C104.407 144.704 108.189 145.619 111.99 146.427C114.94 147.054 117.905 147.627 120.867 148.207C121.099 148.254 121.358 148.157 121.605 148.129C121.419 147.879 121.275 147.47 121.038 147.403C119.906 147.089 118.759 146.762 117.593 146.634C113.71 146.203 110.143 144.348 106.081 144.501C104.199 144.573 102.306 143.255 100.356 142.857C91.9017 141.126 83.4228 139.507 74.9588 137.827C74.0799 137.652 73.2267 137.342 72.3627 137.096C71.9791 136.288 71.5924 135.481 71.3408 134.537C75.5502 135.413 79.601 136.527 83.7025 137.421C94.383 139.749 105.067 142.066 115.783 144.23C126.563 146.406 137.366 148.482 148.192 150.425C152.81 151.251 157.256 152.006 158.697 157.391ZM140.94 152.034C140.456 152.062 139.932 152.223 139.488 152.105C134.648 150.817 129.822 149.464 124.975 148.193C124.506 148.068 123.917 148.375 123.387 148.481C123.817 148.727 124.219 149.09 124.681 149.204C129.503 150.396 134.332 151.557 139.162 152.714C141.317 153.23 143.471 153.736 145.633 154.217C145.902 154.277 146.213 154.156 146.504 154.12C146.285 153.957 146.088 153.722 145.841 153.639C144.292 153.138 142.729 152.668 140.94 152.034ZM118.21 149.706C119.178 149.941 120.138 150.222 121.117 150.393C121.573 150.471 122.064 150.333 122.541 150.293C122.135 149.976 121.77 149.474 121.315 149.368C117.905 148.574 114.481 147.844 111.054 147.132C110.756 147.072 110.409 147.253 110.086 147.321C110.323 147.592 110.513 148.036 110.795 148.104C113.151 148.662 115.521 149.151 118.21 149.706Z" fill="#E5E1D7"/>
<path d="M160.572 133.222C160.081 133.984 159.759 135.08 159.055 135.44C157.654 136.155 155.965 137.035 154.534 136.839C150.774 136.323 147.102 135.191 143.367 134.436C125.097 130.755 106.827 127.07 88.5351 123.5C84.4164 122.696 80.207 122.353 76.0445 121.748C74.7328 121.556 73.4453 121.204 72.0469 120.823C72.5672 120.186 73.1297 119.566 73.8148 119.135C77.2601 116.964 77.8516 113.45 77.5758 109.979C77.307 106.576 76.1883 103.236 75.6 99.7191C76.0773 99.5911 76.4101 99.5624 76.7148 99.6408C83.3406 101.357 89.9445 103.151 96.5875 104.792C107.967 107.601 119.371 110.314 130.765 113.066C138.068 114.831 145.389 116.512 152.659 118.388C158.633 119.929 161.551 124.706 160.544 130.77C160.411 131.56 160.558 132.4 160.572 133.222ZM84.6172 112.984L84.6422 112.895C84.6422 112.895 84.6492 112.958 84.6453 113.201C85.0008 113.485 85.3195 113.956 85.714 114.027C88.8219 114.6 91.9445 115.106 95.0672 115.6C95.4406 115.661 95.8422 115.529 96.2289 115.483C95.9101 115.159 95.6265 114.604 95.2609 114.543C91.7406 113.974 88.2023 113.482 84.6172 112.984ZM145.568 119.915C143.51 119.377 141.445 118.854 139.391 118.306C136.441 117.519 133.497 116.693 130.543 115.917C127.649 115.159 124.763 114.355 121.83 113.77C120.956 113.596 120.228 113.489 119.346 113.097C117.152 112.122 114.657 111.805 112.28 111.243C109.48 110.581 106.666 109.972 103.873 109.278C101.499 108.69 99.1547 108 96.7812 107.405C96.5234 107.341 96.1828 107.608 95.8781 107.722C96.05 107.946 96.1789 108.242 96.4047 108.377C96.7242 108.569 97.1179 108.63 97.4734 108.766C100.668 109.979 104.181 109.922 107.358 111.275C108.548 111.78 109.921 111.845 111.18 112.215C115.445 113.464 119.691 114.788 123.957 116.031C131.482 118.22 139.022 120.364 146.551 122.542C147.569 122.838 148.533 123.358 149.566 123.521C150.006 123.589 150.552 123.005 151.046 122.717C150.734 122.311 150.509 121.716 150.1 121.538C148.727 120.944 147.282 120.502 145.568 119.915ZM132.429 121.635C134.648 122.308 136.895 122.891 139.076 123.674C140.94 124.347 142.955 124.098 144.801 125.415C146.475 126.611 148.888 126.825 151.003 127.355C151.512 127.484 152.14 127.145 152.713 127.024C152.366 126.587 152.108 125.949 151.655 125.746C149.099 124.603 146.314 124.169 143.675 123.165C139.259 121.481 134.616 120.374 130.034 119.143C122.795 117.195 115.539 115.319 108.272 113.475C106.077 112.916 103.834 112.532 101.6 112.133C101.148 112.051 100.642 112.276 100.159 112.357C100.607 112.653 101.016 113.083 101.506 113.215C104.177 113.938 106.884 114.532 109.548 115.277C114.212 116.58 118.845 117.993 123.512 119.289C126.394 120.086 129.313 120.748 132.429 121.635ZM125.226 122.304C125.76 122.286 126.294 122.265 126.825 122.247C126.33 121.972 125.85 121.67 125.337 121.438C125 121.289 124.616 121.232 124.247 121.154C122.2 120.716 120.153 120.267 118.095 119.872C117.898 119.833 117.636 120.118 117.403 120.249C117.575 120.388 117.726 120.617 117.916 120.655C120.311 121.147 122.712 121.61 125.226 122.304ZM84.7851 105.373C86.85 105.981 88.9187 106.59 90.9844 107.199C91.2711 107.284 91.5898 107.47 91.8375 107.402C92.1562 107.313 92.418 107.017 92.7047 106.808C92.4578 106.69 92.2242 106.533 91.9664 106.465C90.0515 105.956 88.1414 105.411 86.2047 105.002C85.6961 104.892 85.0898 105.209 84.7851 105.373ZM90.0555 109.473C89.3883 109.367 88.7258 109.239 88.0586 109.174C87.8898 109.161 87.7039 109.356 87.5281 109.456C87.6609 109.549 87.7789 109.698 87.9258 109.726C90.1383 110.157 92.35 110.578 94.5656 110.98C94.7414 111.011 94.9492 110.876 95.143 110.819C95.0062 110.698 94.8883 110.506 94.7344 110.47C93.2789 110.146 91.8226 109.851 90.0555 109.473ZM111.025 119.064C112.004 119.267 112.976 119.549 113.965 119.641C114.355 119.677 114.782 119.299 115.194 119.107C114.876 118.993 114.564 118.861 114.237 118.769C113.302 118.498 112.377 118.139 111.42 118.011C110.648 117.907 109.842 118.089 109.05 118.142C109.616 118.409 110.183 118.669 111.025 119.064Z" fill="#E5E1D7"/>
<path d="M235.029 167.771C213.105 173.004 191.207 178.237 169.305 183.452C158.798 185.955 148.271 188.373 137.788 190.968C136.662 191.246 135.333 192.271 134.859 193.296C133.687 195.837 132.962 198.579 132.048 201.238C131.955 201.512 131.801 201.769 131.532 202.064C130.579 197.639 132.393 193.919 134.698 190.316C135.537 189.003 136.849 189.38 138.029 189.127C140.954 188.497 143.848 187.714 146.759 187.005C173.887 180.413 201.012 173.812 228.145 167.244C231.665 166.393 235.23 165.706 238.94 164.98C239.736 165.959 239.395 166.568 238.409 166.888C237.57 167.162 236.706 167.365 235.631 167.632C235.287 167.654 235.183 167.689 235.097 167.771C235.093 167.771 235.05 167.764 235.029 167.771Z" fill="#303033"/>
<path d="M158.852 157.347C157.252 152.004 152.81 151.249 148.2 150.42C137.376 148.476 126.57 146.404 115.79 144.225C105.073 142.061 94.3898 139.743 83.7102 137.415C79.6086 136.522 75.5539 135.407 71.3266 134.4C69.8063 133.424 67.5195 133.339 67.7055 130.726C67.9281 130.555 68.186 130.441 68.3008 130.527C73.0688 133.958 78.8625 134.485 84.3016 135.721C101.711 139.679 119.203 143.264 136.687 146.895C141.793 147.956 146.944 148.907 152.122 149.48C156.305 149.943 158.048 152.413 158.969 155.98C159.073 156.397 158.998 156.863 158.852 157.347Z" fill="#303033"/>
<path d="M160.709 133.196C160.558 132.399 160.411 131.559 160.544 130.761C161.551 124.703 158.636 119.925 152.659 118.38C145.389 116.504 138.064 114.82 130.765 113.058C119.371 110.306 107.967 107.593 96.5876 104.785C89.9446 103.143 83.3407 101.349 76.715 99.6332C76.4103 99.5548 76.0775 99.5835 75.6001 99.5618C74.747 98.6686 72.7821 100.046 72.7071 97.9104C74.2626 97.8995 75.8907 97.7784 77.3532 98.2021C95.2399 103.407 113.331 107.779 131.522 111.784C138.9 113.41 146.224 115.276 153.552 117.109C160.027 118.732 164.179 126.6 161.285 132.595C161.189 132.815 160.995 132.983 160.709 133.196Z" fill="#303033"/>
<path d="M72.2588 137.171C73.2338 137.341 74.0838 137.651 74.9658 137.826C83.4306 139.506 91.9095 141.125 100.363 142.856C102.313 143.254 104.206 144.572 106.088 144.5C110.147 144.347 113.718 146.202 117.6 146.633C118.766 146.761 119.913 147.088 121.045 147.402C121.286 147.47 121.426 147.875 121.613 148.128C121.365 148.156 121.103 148.253 120.874 148.206C117.913 147.626 114.948 147.053 111.997 146.426C108.193 145.618 104.414 144.703 100.603 143.949C94.5978 142.76 88.5752 141.648 82.5556 140.531C79.5228 139.968 76.4783 139.459 73.2806 138.95C72.0439 138.819 71.8213 138.185 72.2588 137.171Z" fill="#303033"/>
<path d="M211.639 95.5089C211.338 96.1073 211.079 96.9578 210.571 97.1503C200.883 100.803 191.168 104.388 181.441 107.94C180.717 108.204 179.867 108.126 179.079 108.204C179.674 107.738 180.204 107.104 180.878 106.834C188.239 103.868 195.61 100.935 203.002 98.0544C205.537 97.0649 208.139 96.2462 210.871 95.3281C211.212 95.353 211.388 95.4057 211.639 95.5089Z" fill="#303033"/>
<path d="M235.172 167.837C235.183 167.691 235.287 167.655 235.491 167.691C235.466 167.772 235.358 167.837 235.172 167.837Z" fill="#E5E1D7"/>
<path d="M74.0795 156.48C74.542 156.612 74.8646 156.761 75.317 156.939C82.781 162.393 90.3639 167.427 98.5842 171.453C99.7779 172.037 100.908 172.773 102.012 173.522C102.324 173.731 102.438 174.233 102.643 174.6C102.187 174.589 101.65 174.731 101.291 174.539C98.1287 172.874 94.9201 171.275 91.8803 169.406C86.0685 165.832 80.3506 162.111 74.6209 158.406C74.0186 158.018 72.7248 157.633 74.0795 156.48Z" fill="#303033"/>
<path d="M127.628 186.119C123.96 184.606 120.411 183.189 116.891 181.698C116.378 181.48 116.019 180.914 115.589 180.508C116.162 180.519 116.797 180.373 117.299 180.566C121.523 182.185 125.731 183.84 129.912 185.56C130.521 185.812 130.958 186.475 131.475 186.948C130.751 186.945 130.008 187.038 129.306 186.909C128.765 186.817 128.273 186.443 127.628 186.119Z" fill="#303033"/>
<path d="M207.9 121.415C198.603 126.456 189.451 131.468 180.258 136.409C179.476 136.829 178.44 136.786 177.523 136.957C178.19 136.391 178.777 135.694 179.53 135.281C189.744 129.692 199.972 124.131 210.226 118.609C211.03 118.178 212.022 118.1 212.93 117.859C212.234 118.488 211.592 119.186 210.833 119.724C209.951 120.343 208.972 120.824 207.9 121.415Z" fill="#303033"/>
<path d="M176.185 191.713C175.593 191.577 175.164 191.446 174.729 191.31C175.088 191.108 175.422 190.819 175.809 190.713C181.477 189.114 187.145 187.515 192.828 185.967C197.32 184.742 201.819 183.539 206.34 182.41C209.757 181.556 213.198 180.82 216.643 180.086C216.948 180.022 217.343 180.363 217.698 180.517C217.408 180.681 217.139 180.93 216.826 180.997C214.604 181.482 212.349 181.845 210.147 182.414C207.993 182.973 205.913 183.831 203.755 184.39C199.897 185.39 195.983 186.177 192.136 187.213C186.847 188.637 181.602 190.207 176.185 191.713Z" fill="#303033"/>
<path d="M212.668 178.143C207.821 179.418 203.124 180.653 198.406 181.806C196.47 182.28 194.484 182.55 192.533 182.977C191.827 183.131 191.168 183.483 190.473 183.711C190.315 183.761 190.107 183.661 189.92 183.632C190.063 183.476 190.178 183.255 190.358 183.17C191.648 182.571 192.903 181.817 194.266 181.447C202.192 179.293 210.137 177.214 218.089 175.149C220.351 174.562 222.645 174.085 224.937 173.618C225.287 173.548 225.707 173.804 226.094 173.911C225.804 174.223 225.567 174.733 225.216 174.826C221.09 175.946 216.945 177 212.668 178.143Z" fill="#303033"/>
<path d="M185.701 191.441C188.393 190.768 190.942 190.113 193.494 189.483C193.634 189.448 193.824 189.604 193.993 189.676C193.839 189.797 193.702 189.978 193.53 190.024C190.615 190.797 187.701 191.573 184.776 192.296C184.345 192.403 183.851 192.249 183.388 192.217C183.808 192.025 184.216 191.804 184.65 191.648C184.933 191.544 185.252 191.527 185.701 191.441Z" fill="#303033"/>
<path d="M141.055 152.108C142.729 152.663 144.292 153.133 145.841 153.638C146.088 153.72 146.285 153.955 146.504 154.119C146.213 154.155 145.902 154.276 145.633 154.215C143.471 153.734 141.312 153.229 139.162 152.713C134.332 151.556 129.499 150.395 124.681 149.203C124.219 149.089 123.817 148.726 123.387 148.48C123.921 148.373 124.505 148.067 124.975 148.192C129.822 149.463 134.648 150.816 139.487 152.104C139.932 152.222 140.452 152.061 141.055 152.108Z" fill="#303033"/>
<path d="M118.048 149.68C115.521 149.146 113.151 148.659 110.795 148.1C110.512 148.032 110.319 147.587 110.086 147.316C110.409 147.249 110.756 147.064 111.054 147.128C114.481 147.843 117.905 148.57 121.315 149.364C121.769 149.471 122.135 149.973 122.541 150.289C122.064 150.328 121.573 150.467 121.117 150.389C120.138 150.222 119.178 149.94 118.048 149.68Z" fill="#303033"/>
<path d="M145.715 119.959C147.282 120.504 148.727 120.946 150.103 121.536C150.513 121.711 150.738 122.309 151.05 122.715C150.552 123.003 150.006 123.59 149.57 123.519C148.537 123.359 147.573 122.836 146.554 122.54C139.025 120.361 131.486 118.219 123.96 116.029C119.691 114.787 115.449 113.462 111.183 112.213C109.924 111.843 108.552 111.782 107.361 111.273C104.188 109.92 100.671 109.977 97.4766 108.763C97.1219 108.628 96.7274 108.568 96.4087 108.375C96.1829 108.24 96.0532 107.945 95.8813 107.72C96.1829 107.606 96.5266 107.339 96.7852 107.404C99.1548 107.998 101.503 108.689 103.877 109.276C106.67 109.966 109.484 110.579 112.284 111.241C114.66 111.804 117.156 112.117 119.35 113.096C120.228 113.487 120.956 113.594 121.834 113.769C124.763 114.352 127.653 115.157 130.546 115.915C133.501 116.687 136.444 117.514 139.395 118.304C141.445 118.856 143.507 119.379 145.715 119.959Z" fill="#303033"/>
<path d="M132.321 121.553C129.313 120.748 126.394 120.086 123.515 119.289C118.848 117.993 114.215 116.58 109.551 115.277C106.887 114.533 104.181 113.939 101.51 113.216C101.019 113.084 100.61 112.65 100.162 112.358C100.642 112.276 101.151 112.055 101.603 112.133C103.837 112.532 106.077 112.92 108.275 113.476C115.539 115.32 122.798 117.196 130.037 119.143C134.619 120.375 139.262 121.482 143.679 123.166C146.317 124.17 149.103 124.601 151.659 125.747C152.115 125.949 152.369 126.587 152.717 127.025C152.144 127.149 151.515 127.484 151.007 127.356C148.891 126.826 146.479 126.612 144.805 125.415C142.958 124.095 140.943 124.345 139.079 123.675C136.895 122.888 134.648 122.304 132.321 121.553Z" fill="#303033"/>
<path d="M84.6703 112.967C88.2023 113.479 91.7406 113.97 95.2648 114.544C95.6304 114.604 95.9133 115.159 96.2328 115.483C95.8453 115.526 95.4437 115.658 95.0711 115.601C91.9484 115.106 88.8258 114.6 85.7172 114.028C85.3234 113.956 85.0039 113.486 84.6562 113.084C84.6633 112.967 84.6703 112.967 84.6703 112.967Z" fill="#303033"/>
<path d="M125.168 122.19C122.712 121.61 120.311 121.147 117.915 120.659C117.725 120.62 117.572 120.392 117.403 120.253C117.636 120.118 117.897 119.837 118.095 119.876C120.153 120.271 122.2 120.72 124.247 121.158C124.613 121.236 125 121.293 125.336 121.442C125.85 121.674 126.33 121.976 126.825 122.25C126.29 122.265 125.756 122.286 125.168 122.19Z" fill="#303033"/>
<path d="M84.6562 105.352C85.0898 105.21 85.6961 104.893 86.2086 105C88.1445 105.409 90.0554 105.954 91.9703 106.463C92.2281 106.531 92.4609 106.688 92.7086 106.805C92.4219 107.011 92.1601 107.31 91.8406 107.399C91.5937 107.467 91.2742 107.282 90.9875 107.197C88.9187 106.591 86.85 105.979 84.6562 105.352Z" fill="#303033"/>
<path d="M90.2094 109.509C91.8195 109.851 93.275 110.146 94.7273 110.474C94.8813 110.509 94.9992 110.702 95.1359 110.823C94.9422 110.88 94.7375 111.011 94.5586 110.983C92.343 110.581 90.1305 110.161 87.9188 109.73C87.775 109.701 87.6531 109.552 87.5211 109.459C87.7 109.36 87.8867 109.164 88.0516 109.178C88.7258 109.239 89.3883 109.37 90.2094 109.509Z" fill="#303033"/>
<path d="M110.885 119.001C110.179 118.674 109.616 118.411 109.05 118.147C109.842 118.093 110.648 117.912 111.419 118.015C112.376 118.144 113.301 118.503 114.237 118.773C114.564 118.866 114.876 118.997 115.194 119.112C114.782 119.3 114.355 119.681 113.965 119.645C112.976 119.55 112.004 119.272 110.885 119.001Z" fill="#303033"/>
<path d="M84.6561 112.964C84.6491 112.96 84.6421 112.897 84.6421 112.897C84.6421 112.897 84.6171 112.985 84.6421 112.978C84.6702 112.968 84.6632 112.968 84.6561 112.964Z" fill="#303033"/>
<path d="M291.969 141.132C287.7 152.446 275.008 158.181 263.62 153.942C252.232 149.703 246.461 137.094 250.729 125.78C254.998 114.465 267.691 108.73 279.078 112.969C290.466 117.209 296.238 129.818 291.969 141.132Z" fill="#E2CEA7"/>
<path d="M287.284 139.386C283.985 148.129 274.178 152.56 265.378 149.284C256.577 146.008 252.117 136.265 255.416 127.522C258.715 118.779 268.522 114.347 277.323 117.623C286.123 120.9 290.583 130.642 287.284 139.386Z" fill="#EAEEF5"/>
<path d="M286.792 145.041L295.788 154.379L290.726 159.193L281.729 149.855L286.792 145.041Z" fill="#E2CEA7"/>
</svg>
