<svg width="320" height="270" viewBox="0 0 320 270" fill="none" xmlns="http://www.w3.org/2000/svg">
<g clip-path="url(#clip0_6079_20989)">
<path d="M265.334 217.88L159.169 169.374L213.835 49.5293L320 98.0358L265.334 217.88Z" fill="#F2F2F2"/>
<path d="M281.507 148.256L201.137 111.535C200.985 111.466 200.868 111.339 200.81 111.183C200.751 111.027 200.758 110.855 200.827 110.703C200.896 110.552 201.022 110.434 201.178 110.376C201.334 110.317 201.507 110.323 201.658 110.393L282.028 147.113C282.179 147.183 282.297 147.309 282.355 147.465C282.413 147.621 282.407 147.794 282.338 147.945C282.269 148.097 282.142 148.215 281.987 148.273C281.831 148.331 281.658 148.325 281.507 148.256Z" fill="white"/>
<path d="M285.976 138.459L205.606 101.738C205.531 101.704 205.464 101.655 205.408 101.595C205.351 101.535 205.308 101.464 205.279 101.387C205.25 101.309 205.237 101.227 205.24 101.145C205.243 101.062 205.262 100.981 205.296 100.906C205.33 100.831 205.379 100.764 205.439 100.707C205.499 100.651 205.57 100.608 205.647 100.579C205.725 100.55 205.807 100.537 205.889 100.539C205.971 100.542 206.052 100.562 206.127 100.596L286.497 137.317C286.572 137.351 286.639 137.399 286.696 137.46C286.752 137.52 286.795 137.591 286.824 137.668C286.853 137.745 286.866 137.828 286.863 137.91C286.861 137.992 286.841 138.074 286.807 138.149C286.773 138.224 286.724 138.291 286.664 138.347C286.604 138.404 286.533 138.447 286.456 138.476C286.379 138.505 286.296 138.518 286.214 138.515C286.132 138.512 286.051 138.493 285.976 138.459Z" fill="white"/>
<path d="M290.445 128.66L210.075 91.9394C210 91.9052 209.933 91.8565 209.877 91.7962C209.82 91.7358 209.777 91.665 209.748 91.5877C209.719 91.5105 209.706 91.4283 209.709 91.3459C209.712 91.2635 209.731 91.1824 209.765 91.1074C209.799 91.0324 209.848 90.9649 209.908 90.9087C209.968 90.8525 210.039 90.8087 210.116 90.7799C210.194 90.751 210.276 90.7377 210.358 90.7406C210.44 90.7436 210.521 90.7627 210.596 90.7969L290.966 127.518C291.117 127.587 291.234 127.714 291.292 127.869C291.35 128.025 291.344 128.198 291.275 128.349C291.206 128.501 291.08 128.618 290.924 128.677C290.769 128.735 290.596 128.729 290.445 128.66Z" fill="white"/>
<path d="M294.914 118.863L214.544 82.1426C214.469 82.1083 214.402 82.0596 214.346 81.9993C214.289 81.9389 214.246 81.8681 214.217 81.7909C214.188 81.7136 214.175 81.6314 214.178 81.549C214.181 81.4666 214.2 81.3856 214.234 81.3105C214.268 81.2355 214.317 81.168 214.377 81.1118C214.437 81.0556 214.508 81.0118 214.585 80.983C214.663 80.9542 214.745 80.9408 214.827 80.9438C214.909 80.9467 214.99 80.9658 215.065 81.0001L295.435 117.721C295.51 117.755 295.577 117.804 295.634 117.864C295.69 117.924 295.733 117.995 295.762 118.073C295.791 118.15 295.804 118.232 295.801 118.314C295.799 118.397 295.779 118.478 295.745 118.553C295.711 118.628 295.662 118.695 295.602 118.752C295.542 118.808 295.471 118.852 295.394 118.88C295.317 118.909 295.234 118.923 295.152 118.92C295.07 118.917 294.989 118.898 294.914 118.863Z" fill="white"/>
<path d="M277.468 157.109L197.098 120.389C197.023 120.354 196.956 120.306 196.899 120.245C196.843 120.185 196.8 120.114 196.771 120.037C196.742 119.96 196.729 119.878 196.732 119.795C196.735 119.713 196.754 119.632 196.788 119.557C196.822 119.482 196.871 119.414 196.931 119.358C196.991 119.302 197.062 119.258 197.139 119.229C197.216 119.2 197.299 119.187 197.381 119.19C197.463 119.193 197.544 119.212 197.619 119.246L277.989 155.967C278.14 156.036 278.258 156.163 278.316 156.319C278.374 156.475 278.368 156.647 278.299 156.799C278.23 156.95 278.104 157.068 277.948 157.126C277.792 157.185 277.619 157.179 277.468 157.109Z" fill="white"/>
<path d="M290.889 104.491L228.11 75.8072C227.756 75.6549 227.471 75.378 227.309 75.0292C227.146 74.6803 227.117 74.2838 227.228 73.915C227.295 73.7145 227.404 73.5305 227.547 73.3748C227.69 73.2191 227.864 73.0953 228.058 73.0112C228.252 72.9271 228.461 72.8847 228.673 72.8868C228.884 72.8888 229.093 72.9353 229.285 73.0231L292.045 101.698C292.404 101.851 292.695 102.132 292.86 102.486C293.025 102.841 293.053 103.244 292.939 103.618C292.87 103.816 292.76 103.997 292.616 104.15C292.473 104.303 292.299 104.425 292.106 104.507C291.913 104.589 291.705 104.63 291.496 104.627C291.286 104.624 291.079 104.578 290.889 104.491Z" fill="white"/>
<path d="M49.3313 98.0358L155.496 49.5293L210.162 169.374L103.997 217.88L49.3313 98.0358Z" fill="#F2F2F2"/>
<path d="M87.8245 148.256L168.194 111.535C168.269 111.501 168.337 111.452 168.393 111.392C168.449 111.332 168.493 111.261 168.522 111.183C168.55 111.106 168.564 111.024 168.561 110.942C168.558 110.859 168.539 110.778 168.504 110.703C168.47 110.628 168.422 110.561 168.361 110.504C168.301 110.448 168.23 110.404 168.153 110.376C168.076 110.347 167.994 110.333 167.911 110.336C167.829 110.339 167.748 110.358 167.673 110.393L87.3034 147.113C87.2284 147.148 87.161 147.196 87.1048 147.257C87.0486 147.317 87.0049 147.388 86.9761 147.465C86.9473 147.542 86.934 147.625 86.9369 147.707C86.9399 147.789 86.959 147.87 86.9932 147.945C87.0274 148.02 87.0761 148.088 87.1364 148.144C87.1967 148.2 87.2674 148.244 87.3446 148.273C87.4218 148.302 87.5039 148.315 87.5863 148.312C87.6686 148.309 87.7496 148.29 87.8245 148.256Z" fill="white"/>
<path d="M83.3555 138.459L163.725 101.738C163.877 101.669 163.994 101.543 164.053 101.387C164.111 101.231 164.105 101.058 164.035 100.906C163.966 100.755 163.84 100.637 163.684 100.579C163.528 100.52 163.355 100.527 163.204 100.596L82.8344 137.317C82.7595 137.351 82.692 137.399 82.6358 137.46C82.5797 137.52 82.5359 137.591 82.5071 137.668C82.4783 137.745 82.465 137.828 82.4679 137.91C82.4709 137.993 82.49 138.074 82.5242 138.149C82.5584 138.224 82.6071 138.291 82.6674 138.347C82.7277 138.404 82.7984 138.447 82.8756 138.476C82.9528 138.505 83.0349 138.518 83.1173 138.515C83.1996 138.512 83.2806 138.493 83.3555 138.459Z" fill="white"/>
<path d="M78.8864 128.66L159.256 91.9395C159.407 91.8703 159.525 91.7438 159.583 91.5877C159.642 91.4317 159.635 91.2589 159.566 91.1074C159.497 90.9559 159.371 90.8381 159.215 90.7799C159.059 90.7216 158.886 90.7278 158.735 90.7969L78.3653 127.518C78.2141 127.587 78.0965 127.713 78.0385 127.869C77.9804 128.025 77.9866 128.198 78.0557 128.349C78.1247 128.501 78.251 128.619 78.4068 128.677C78.5626 128.735 78.7351 128.729 78.8864 128.66Z" fill="white"/>
<path d="M74.4173 118.863L154.787 82.1426C154.862 82.1083 154.929 82.0596 154.986 81.9993C155.042 81.9389 155.086 81.8681 155.114 81.7909C155.143 81.7136 155.156 81.6314 155.154 81.549C155.151 81.4666 155.131 81.3856 155.097 81.3105C155.063 81.2355 155.014 81.168 154.954 81.1118C154.894 81.0556 154.823 81.0118 154.746 80.983C154.669 80.9542 154.586 80.9408 154.504 80.9438C154.422 80.9467 154.341 80.9658 154.266 81.0001L73.8962 117.721C73.7448 117.79 73.6271 117.916 73.5689 118.073C73.5107 118.229 73.5169 118.401 73.586 118.553C73.6551 118.704 73.7815 118.822 73.9374 118.88C74.0933 118.939 74.2659 118.932 74.4173 118.863Z" fill="white"/>
<path d="M91.8634 157.109L172.233 120.389C172.384 120.32 172.502 120.193 172.56 120.037C172.619 119.881 172.612 119.708 172.543 119.557C172.474 119.405 172.348 119.287 172.192 119.229C172.036 119.171 171.863 119.177 171.712 119.246L91.3422 155.967C91.2673 156.001 91.1998 156.05 91.1436 156.11C91.0875 156.171 91.0437 156.241 91.0149 156.319C90.9861 156.396 90.9728 156.478 90.9757 156.56C90.9787 156.643 90.9978 156.724 91.032 156.799C91.0662 156.874 91.1149 156.941 91.1752 156.998C91.2355 157.054 91.3062 157.098 91.3834 157.126C91.4606 157.155 91.5427 157.169 91.6251 157.166C91.7074 157.163 91.7884 157.144 91.8634 157.109Z" fill="white"/>
<path d="M78.4426 104.491L141.222 75.8072C141.575 75.6549 141.86 75.378 142.023 75.0292C142.185 74.6803 142.214 74.2838 142.104 73.915C142.036 73.7145 141.927 73.5305 141.784 73.3748C141.641 73.2191 141.467 73.0953 141.273 73.0112C141.079 72.9271 140.87 72.8847 140.658 72.8868C140.447 72.8888 140.239 72.9353 140.046 73.0231L77.2865 101.698C76.9268 101.851 76.6364 102.132 76.4712 102.486C76.3061 102.841 76.2778 103.244 76.392 103.618C76.4617 103.816 76.5717 103.997 76.7152 104.15C76.8586 104.303 77.0324 104.425 77.2253 104.507C77.4182 104.589 77.626 104.63 77.8356 104.627C78.0452 104.624 78.2519 104.578 78.4426 104.491Z" fill="white"/>
<path d="M10.6127 239.545C11.283 229.154 17.0681 218.611 26.6989 214.67C23.4517 225.518 24.143 237.165 28.6504 247.552C30.4033 251.551 32.7689 255.817 31.5925 260.022C30.8605 262.639 28.8142 264.73 26.4696 266.1C24.1249 267.47 21.4767 268.214 18.8614 268.944L18.3656 269.407C13.5964 260.152 9.9424 249.937 10.6127 239.545Z" fill="#F0F0F0"/>
<path d="M26.8081 214.86C21.4643 221.619 18.3843 229.891 18.0056 238.502C17.8912 240.354 18.0693 242.213 18.5332 244.01C19.0416 245.746 20.0052 247.313 21.3238 248.55C22.5301 249.728 23.9003 250.794 24.7994 252.245C25.2487 252.994 25.5345 253.83 25.6382 254.698C25.7419 255.566 25.6612 256.446 25.4012 257.281C24.8076 259.377 23.4968 261.134 22.1552 262.808C20.6657 264.667 19.0891 266.575 18.5502 268.954C18.4849 269.242 18.0418 269.124 18.107 268.836C19.0447 264.697 22.8546 262.151 24.5196 258.374C25.2965 256.611 25.5475 254.604 24.617 252.848C23.8034 251.312 22.3914 250.212 21.1597 249.03C19.8557 247.842 18.8622 246.353 18.2659 244.692C17.712 242.925 17.4627 241.076 17.5287 239.225C17.6107 235.055 18.3472 230.924 19.7114 226.984C21.2433 222.478 23.5342 218.267 26.4849 214.534C26.6676 214.303 26.9897 214.63 26.8081 214.86Z" fill="white"/>
<path d="M17.9643 235.722C16.5294 235.462 15.2335 234.7 14.3079 233.573C13.3824 232.445 12.8876 231.025 12.9117 229.566C12.9133 229.506 12.9378 229.449 12.9802 229.408C13.0226 229.366 13.0795 229.342 13.139 229.342C13.1985 229.341 13.2558 229.364 13.299 229.405C13.3422 229.446 13.3678 229.502 13.3704 229.561C13.3454 230.92 13.8065 232.243 14.6705 233.291C15.5345 234.34 16.7444 235.044 18.082 235.278C18.3726 235.329 18.2532 235.773 17.9643 235.722Z" fill="white"/>
<path d="M20.6335 248.033C23.0978 246.355 24.8395 243.809 25.5112 240.902C25.5776 240.614 26.0207 240.732 25.9544 241.02C25.2498 244.043 23.4319 246.689 20.8637 248.43C20.6188 248.596 20.39 248.198 20.6335 248.033Z" fill="white"/>
<path d="M21.6936 222.886C22.2278 223.102 22.8074 223.182 23.3802 223.118C23.9531 223.055 24.5012 222.851 24.9755 222.523C25.2182 222.355 25.4467 222.752 25.2056 222.92C24.68 223.279 24.0743 223.504 23.4416 223.576C22.8088 223.647 22.1683 223.562 21.5758 223.329C21.5181 223.312 21.4692 223.273 21.439 223.221C21.4088 223.169 21.3995 223.107 21.4131 223.048C21.429 222.99 21.4674 222.94 21.5199 222.909C21.5724 222.879 21.6348 222.87 21.6936 222.886Z" fill="white"/>
<path d="M57.7534 231.315C57.6048 231.425 57.4563 231.534 57.3078 231.648C55.3184 233.133 53.4529 234.778 51.7296 236.566C51.5942 236.702 51.459 236.842 51.3277 236.981C47.2219 241.333 43.9589 246.409 41.7046 251.952C40.8096 254.159 40.0837 256.431 39.533 258.748C38.7727 261.947 38.2028 265.477 36.4814 268.16C36.305 268.442 36.1112 268.713 35.9014 268.971L18.9679 269.976C18.9282 269.959 18.8886 269.946 18.8488 269.929L18.1746 270C18.1946 269.878 18.218 269.753 18.2381 269.631C18.2494 269.561 18.2646 269.49 18.2759 269.419C18.2847 269.372 18.2936 269.325 18.2988 269.282C18.3017 269.267 18.3047 269.251 18.3078 269.239C18.313 269.196 18.3224 269.157 18.3279 269.118C18.4568 268.415 18.5909 267.713 18.7301 267.01C18.7299 267.006 18.7299 267.006 18.7335 267.002C19.8082 261.649 21.3388 256.34 23.626 251.431C23.6949 251.283 23.7633 251.132 23.8399 250.984C24.8831 248.777 26.1049 246.659 27.4928 244.652C28.2564 243.555 29.0749 242.497 29.9453 241.483C32.1993 238.868 34.8503 236.623 37.8013 234.832C43.6844 231.262 50.6429 229.615 57.2498 231.19C57.4188 231.23 57.5842 231.271 57.7534 231.315Z" fill="#F0F0F0"/>
<path d="M57.7282 231.533C49.3953 233.71 41.9596 238.459 36.4773 245.106C35.2717 246.516 34.2956 248.108 33.5852 249.822C32.947 251.514 32.7732 253.347 33.0819 255.129C33.3364 256.796 33.7897 258.472 33.6347 260.173C33.5425 261.042 33.2677 261.882 32.8284 262.637C32.3891 263.393 31.7952 264.047 31.0857 264.556C29.3507 265.872 27.2468 266.486 25.1685 267.014C22.861 267.601 20.4549 268.173 18.5934 269.748C18.3678 269.939 18.0852 269.578 18.3104 269.387C21.5492 266.647 26.1226 266.91 29.7241 264.898C31.4046 263.959 32.8125 262.507 33.1263 260.544C33.4006 258.828 32.9347 257.099 32.6625 255.413C32.3358 253.679 32.4384 251.891 32.9613 250.206C33.5823 248.461 34.4954 246.834 35.6616 245.396C38.2355 242.116 41.3086 239.262 44.7684 236.937C48.7023 234.263 53.0644 232.281 57.666 231.078C57.9508 231.004 58.0112 231.459 57.7282 231.533Z" fill="white"/>
<path d="M38.1167 242.861C37.1273 241.789 36.5508 240.4 36.4902 238.942C36.4296 237.484 36.8889 236.051 37.786 234.901C37.9683 234.669 38.3373 234.941 38.1548 235.174C37.3174 236.244 36.8897 237.578 36.9489 238.935C37.0081 240.293 37.5503 241.585 38.4775 242.578C38.6788 242.794 38.3168 243.076 38.1167 242.861Z" fill="white"/>
<path d="M32.8414 254.299C35.8187 254.443 38.7411 253.46 41.0259 251.544C41.2521 251.354 41.5348 251.715 41.3089 251.905C38.9275 253.894 35.8842 254.912 32.7864 254.754C32.4911 254.739 32.5478 254.283 32.8414 254.299Z" fill="white"/>
<path d="M48.816 234.859C49.1124 235.354 49.527 235.767 50.0225 236.061C50.5179 236.356 51.0787 236.523 51.6546 236.547C51.9499 236.558 51.8929 237.014 51.5995 237.003C50.9635 236.973 50.3443 236.788 49.7962 236.464C49.2481 236.139 48.7876 235.686 48.4551 235.142C48.4195 235.094 48.4037 235.033 48.4109 234.973C48.4181 234.913 48.4479 234.859 48.494 234.82C48.542 234.783 48.6027 234.766 48.663 234.773C48.7233 234.78 48.7782 234.811 48.816 234.859Z" fill="white"/>
<path d="M263.653 218.886H104.905V39.6836H263.653V218.886Z" fill="white"/>
<path d="M263.653 218.886H104.905V39.6836H263.653V218.886ZM105.759 218.032H262.8V40.5378H105.759L105.759 218.032Z" fill="#CACACA"/>
<path d="M244.368 123.591H124.191C124.079 123.591 123.968 123.569 123.864 123.526C123.761 123.483 123.667 123.42 123.587 123.341C123.508 123.262 123.445 123.168 123.402 123.064C123.359 122.96 123.337 122.849 123.337 122.737C123.337 122.625 123.359 122.514 123.402 122.41C123.445 122.306 123.508 122.212 123.587 122.133C123.667 122.054 123.761 121.991 123.864 121.948C123.968 121.905 124.079 121.883 124.191 121.883H244.368C244.594 121.883 244.811 121.973 244.971 122.133C245.131 122.293 245.221 122.51 245.221 122.737C245.221 122.964 245.131 123.181 244.971 123.341C244.811 123.501 244.594 123.591 244.368 123.591Z" fill="#E4E4E4"/>
<path d="M244.368 108.941H124.191C123.965 108.941 123.747 108.851 123.587 108.691C123.427 108.53 123.337 108.313 123.337 108.087C123.337 107.86 123.427 107.643 123.587 107.483C123.747 107.322 123.965 107.232 124.191 107.232H244.368C244.594 107.232 244.811 107.322 244.971 107.483C245.131 107.643 245.221 107.86 245.221 108.087C245.221 108.313 245.131 108.53 244.971 108.691C244.811 108.851 244.594 108.941 244.368 108.941Z" fill="#E4E4E4"/>
<path d="M244.368 94.2904H124.191C124.079 94.2904 123.968 94.2683 123.864 94.2254C123.761 94.1825 123.667 94.1196 123.587 94.0402C123.508 93.9609 123.445 93.8667 123.402 93.7631C123.359 93.6595 123.337 93.5484 123.337 93.4362C123.337 93.324 123.359 93.213 123.402 93.1093C123.445 93.0057 123.508 92.9115 123.587 92.8322C123.667 92.7529 123.761 92.69 123.864 92.6471C123.968 92.6041 124.079 92.582 124.191 92.582H244.368C244.594 92.582 244.811 92.672 244.971 92.8322C245.131 92.9924 245.221 93.2097 245.221 93.4362C245.221 93.6628 245.131 93.88 244.971 94.0402C244.811 94.2004 244.594 94.2904 244.368 94.2904Z" fill="#E4E4E4"/>
<path d="M244.368 79.64H124.191C123.965 79.64 123.747 79.55 123.587 79.3898C123.427 79.2297 123.337 79.0124 123.337 78.7858C123.337 78.5593 123.427 78.342 123.587 78.1818C123.747 78.0216 123.965 77.9316 124.191 77.9316H244.368C244.594 77.9316 244.811 78.0216 244.971 78.1818C245.131 78.342 245.221 78.5593 245.221 78.7858C245.221 79.0124 245.131 79.2297 244.971 79.3898C244.811 79.55 244.594 79.64 244.368 79.64Z" fill="#E4E4E4"/>
<path d="M244.368 136.831H124.191C123.965 136.831 123.747 136.741 123.587 136.581C123.427 136.421 123.337 136.204 123.337 135.977C123.337 135.751 123.427 135.533 123.587 135.373C123.747 135.213 123.965 135.123 124.191 135.123H244.368C244.594 135.123 244.811 135.213 244.971 135.373C245.131 135.533 245.221 135.751 245.221 135.977C245.221 136.204 245.131 136.421 244.971 136.581C244.811 136.741 244.594 136.831 244.368 136.831Z" fill="#E4E4E4"/>
<path d="M244.368 202.56H124.191C123.965 202.56 123.747 202.47 123.587 202.31C123.427 202.15 123.337 201.932 123.337 201.706C123.337 201.479 123.427 201.262 123.587 201.102C123.747 200.942 123.965 200.852 124.191 200.852H244.368C244.594 200.852 244.811 200.942 244.971 201.102C245.131 201.262 245.221 201.479 245.221 201.706C245.221 201.932 245.131 202.15 244.971 202.31C244.811 202.47 244.594 202.56 244.368 202.56Z" fill="#E4E4E4"/>
<path d="M215.58 188.847H152.979C152.561 188.847 152.159 188.68 151.864 188.384C151.568 188.088 151.401 187.687 151.401 187.268V150.413C151.401 149.995 151.568 149.593 151.864 149.297C152.159 149.001 152.561 148.834 152.979 148.834H215.58C215.998 148.834 216.399 149.001 216.695 149.297C216.991 149.593 217.157 149.995 217.158 150.413V187.268C217.157 187.687 216.991 188.088 216.695 188.384C216.399 188.68 215.998 188.847 215.58 188.847Z" fill="white"/>
<path d="M194.674 167.794C194.356 167.452 193.972 167.178 193.545 166.989C193.119 166.799 192.658 166.696 192.192 166.688C191.725 166.68 191.261 166.765 190.828 166.94C190.395 167.114 190.002 167.374 189.671 167.704L172.054 185.336C171.588 185.801 170.958 186.063 170.301 186.064C169.643 186.065 169.012 185.805 168.545 185.342L165.936 182.736C165.613 182.413 165.23 182.156 164.809 181.982C164.387 181.807 163.935 181.717 163.479 181.717C163.023 181.717 162.571 181.807 162.149 181.982C161.728 182.156 161.345 182.413 161.022 182.736L155.972 187.795H212.586V187.074L194.674 167.794Z" fill="#405888"/>
<path d="M215.58 188.847H152.979C152.561 188.847 152.159 188.68 151.864 188.384C151.568 188.088 151.401 187.687 151.401 187.268V150.413C151.401 149.995 151.568 149.593 151.864 149.297C152.159 149.001 152.561 148.834 152.979 148.834H215.58C215.998 148.834 216.399 149.001 216.695 149.297C216.991 149.593 217.157 149.995 217.158 150.413V187.268C217.157 187.687 216.991 188.088 216.695 188.384C216.399 188.68 215.998 188.847 215.58 188.847ZM152.979 149.887C152.84 149.887 152.706 149.943 152.607 150.041C152.509 150.14 152.453 150.274 152.453 150.413V187.268C152.453 187.407 152.509 187.541 152.607 187.64C152.706 187.739 152.84 187.794 152.979 187.794H215.58C215.719 187.794 215.853 187.739 215.951 187.64C216.05 187.541 216.106 187.407 216.106 187.268V150.413C216.106 150.274 216.05 150.14 215.951 150.041C215.853 149.943 215.719 149.887 215.58 149.887L152.979 149.887Z" fill="#3F3D56"/>
<path d="M64.6605 182.687C64.8192 182.127 64.8533 181.539 64.7604 180.964C64.6674 180.389 64.4498 179.842 64.1227 179.361C63.7956 178.88 63.367 178.476 62.8672 178.178C62.3673 177.881 61.8084 177.696 61.2297 177.638L57.9496 163.875L52.9221 169.237L56.8077 181.484C56.7748 182.464 57.102 183.421 57.7273 184.176C58.3526 184.93 59.2326 185.428 60.2005 185.576C61.1685 185.725 62.1571 185.512 62.9791 184.98C63.8011 184.447 64.3993 183.631 64.6605 182.687Z" fill="#FFB6B6"/>
<path d="M55.8926 177.695C55.6553 177.616 55.4373 177.488 55.2527 177.319C55.0682 177.15 54.9212 176.944 54.8214 176.715L47.8666 159.69C46.0932 155.608 45.8614 151.02 47.2146 146.78L51.6709 132.81C51.7387 132.059 51.9538 131.328 52.3039 130.66C52.6539 129.992 53.1322 129.399 53.7112 128.916C54.2903 128.433 54.9587 128.069 55.6784 127.845C56.3981 127.621 57.1549 127.541 57.9056 127.61C58.6562 127.679 59.3859 127.895 60.053 128.246C60.7201 128.597 61.3115 129.077 61.7933 129.657C62.2752 130.237 62.638 130.906 62.8611 131.627C63.0843 132.347 63.1633 133.105 63.0937 133.856L57.1837 156.353L61.142 174.021C61.204 174.382 61.1537 174.753 60.998 175.084C60.8424 175.416 60.5887 175.691 60.2715 175.874L57.3375 177.551C57.0227 177.731 56.6607 177.811 56.2997 177.779C56.1612 177.768 56.0245 177.739 55.8926 177.695Z" fill="#E4E4E4"/>
<path d="M80.6286 264.927H85.4786L87.7863 246.203H80.6274L80.6286 264.927Z" fill="#FFB6B6"/>
<path d="M79.3911 263.342L88.9432 263.342H88.9436C90.558 263.342 92.1062 263.984 93.2478 265.126C94.3894 266.269 95.0308 267.818 95.0309 269.434V269.632L79.3914 269.633L79.3911 263.342Z" fill="#2F2E41"/>
<path d="M53.3303 264.927H58.1803L60.488 246.203H53.3291L53.3303 264.927Z" fill="#FFB6B6"/>
<path d="M52.0928 263.342L61.6448 263.342H61.6452C63.2596 263.342 64.8079 263.984 65.9495 265.126C67.091 266.269 67.7324 267.818 67.7325 269.434V269.632L52.0931 269.633L52.0928 263.342Z" fill="#2F2E41"/>
<path d="M83.5492 170.485L55.1048 167.98C55.1048 167.98 52.2945 185.928 52.6902 193.055C53.0858 200.182 53.4814 211.269 53.4814 211.269L50.3164 259.575L62.5809 257.992L64.1634 218L69.3065 196.222L75.241 223.939L79.1972 259.575L89.8792 258.387L86.3186 215.228C86.3186 215.228 89.4836 176.425 83.5492 170.485Z" fill="#2F2E41"/>
<path d="M72.0759 117.823C76.4459 117.823 79.9884 114.277 79.9884 109.903C79.9884 105.53 76.4459 101.984 72.0759 101.984C67.7059 101.984 64.1633 105.53 64.1633 109.903C64.1633 114.277 67.7059 117.823 72.0759 117.823Z" fill="#FFB8B8"/>
<path d="M80.7407 127.586L75.0894 123.084C75.0894 123.084 68.9694 118.358 65.3794 121.852L63.7676 124.158C63.7676 124.158 54.6293 127.586 54.6293 131.942L55.0638 155.835C55.0638 155.835 51.8987 168.109 56.6463 168.901L84.3014 171.141L83.9446 148.311L80.7407 127.586Z" fill="#E4E4E4"/>
<path d="M65.9437 116.833C65.9437 116.833 57.6355 110.894 61.9874 103.766C65.0065 98.822 71.2626 99.2134 74.8113 99.9168C75.7674 100.093 76.6662 100.5 77.4303 101.102C78.1943 101.703 78.8008 102.482 79.1972 103.37C79.7907 104.756 79.7907 106.142 77.4169 106.142C72.6694 106.142 75.0431 109.706 75.0431 109.706C75.0431 109.706 71.8781 110.498 72.6694 113.269C73.4606 116.041 65.9437 116.833 65.9437 116.833Z" fill="#2F2E41"/>
<path d="M109.288 169.315C109.14 168.752 108.872 168.228 108.5 167.781C108.128 167.333 107.663 166.972 107.137 166.724C106.611 166.475 106.037 166.345 105.456 166.343C104.874 166.34 104.299 166.466 103.771 166.71L93.9626 156.52L92.3516 163.693L101.913 172.27C102.381 173.131 103.149 173.79 104.07 174.121C104.992 174.453 106.003 174.436 106.912 174.071C107.821 173.707 108.565 173.022 109.003 172.145C109.441 171.269 109.542 170.262 109.288 169.315Z" fill="#FFB6B6"/>
<path d="M99.2017 169.469C98.9571 169.521 98.7043 169.522 98.4596 169.47C98.2149 169.418 97.9838 169.316 97.7814 169.169L83.1524 158.036C79.5537 155.421 77.0266 151.586 76.0413 147.246L72.7927 132.946C72.4693 132.264 72.2834 131.525 72.2457 130.771C72.208 130.017 72.3192 129.264 72.5729 128.553C72.8265 127.842 73.2178 127.189 73.7242 126.629C74.2306 126.07 74.8422 125.616 75.524 125.294C76.2058 124.972 76.9445 124.787 77.6977 124.751C78.4508 124.714 79.2038 124.827 79.9134 125.082C80.6231 125.338 81.2754 125.73 81.8332 126.238C82.391 126.746 82.8432 127.359 83.1641 128.042L89.486 150.426L101.86 163.636C102.096 163.915 102.241 164.261 102.275 164.625C102.309 164.99 102.231 165.356 102.05 165.674L100.373 168.611C100.194 168.926 99.922 169.178 99.595 169.335C99.4697 169.395 99.3376 169.44 99.2017 169.469Z" fill="#E4E4E4"/>
<path d="M300.146 11.9484H71.6484C71.5606 11.9481 71.4766 11.9131 71.4146 11.8509C71.3527 11.7887 71.3179 11.7046 71.3179 11.6168C71.3179 11.529 71.3527 11.4449 71.4146 11.3827C71.4766 11.3205 71.5606 11.2855 71.6484 11.2852H300.146C300.233 11.2855 300.317 11.3205 300.379 11.3827C300.441 11.4449 300.476 11.529 300.476 11.6168C300.476 11.7046 300.441 11.7887 300.379 11.8509C300.317 11.9131 300.233 11.9481 300.146 11.9484Z" fill="#CACACA"/>
<path d="M79.1126 7.30204C81.1273 7.30204 82.7606 5.66742 82.7606 3.65102C82.7606 1.63462 81.1273 0 79.1126 0C77.0979 0 75.4646 1.63462 75.4646 3.65102C75.4646 5.66742 77.0979 7.30204 79.1126 7.30204Z" fill="#3F3D56"/>
<path d="M91.7149 7.30204C93.7296 7.30204 95.3629 5.66742 95.3629 3.65102C95.3629 1.63462 93.7296 0 91.7149 0C89.7002 0 88.0669 1.63462 88.0669 3.65102C88.0669 5.66742 89.7002 7.30204 91.7149 7.30204Z" fill="#3F3D56"/>
<path d="M104.317 7.30204C106.332 7.30204 107.965 5.66742 107.965 3.65102C107.965 1.63462 106.332 0 104.317 0C102.302 0 100.669 1.63462 100.669 3.65102C100.669 5.66742 102.302 7.30204 104.317 7.30204Z" fill="#3F3D56"/>
<path d="M292.595 2.23389H283.64C283.465 2.23329 283.297 2.16308 283.173 2.03865C283.049 1.91423 282.979 1.74573 282.979 1.57007C282.979 1.39441 283.049 1.22591 283.173 1.10149C283.297 0.977063 283.465 0.906857 283.64 0.90625H292.595C292.77 0.906857 292.938 0.977063 293.062 1.10149C293.186 1.22591 293.256 1.39441 293.256 1.57007C293.256 1.74573 293.186 1.91423 293.062 2.03865C292.938 2.16308 292.77 2.23329 292.595 2.23389Z" fill="#3F3D56"/>
<path d="M292.595 4.72217H283.64C283.465 4.72157 283.297 4.65136 283.173 4.52694C283.049 4.40251 282.979 4.23401 282.979 4.05835C282.979 3.88269 283.049 3.71419 283.173 3.58977C283.297 3.46534 283.465 3.39514 283.64 3.39453H292.595C292.77 3.39514 292.938 3.46534 293.062 3.58977C293.186 3.71419 293.256 3.88269 293.256 4.05835C293.256 4.23401 293.186 4.40251 293.062 4.52694C292.938 4.65136 292.77 4.72157 292.595 4.72217Z" fill="#3F3D56"/>
<path d="M292.595 7.21241H283.64C283.465 7.2118 283.297 7.1416 283.173 7.01717C283.049 6.89275 282.979 6.72425 282.979 6.54859C282.979 6.37293 283.049 6.20443 283.173 6.08C283.297 5.95558 283.465 5.88537 283.64 5.88477H292.595C292.77 5.88537 292.938 5.95558 293.062 6.08C293.186 6.20443 293.256 6.37293 293.256 6.54859C293.256 6.72425 293.186 6.89275 293.062 7.01717C292.938 7.1416 292.77 7.2118 292.595 7.21241Z" fill="#3F3D56"/>
<path d="M151.13 269.733H0.395628C0.290701 269.733 0.190071 269.691 0.115876 269.617C0.0416818 269.543 0 269.442 0 269.337C0 269.232 0.0416818 269.131 0.115876 269.057C0.190071 268.983 0.290701 268.941 0.395628 268.941H151.13C151.235 268.941 151.335 268.983 151.41 269.057C151.484 269.131 151.526 269.232 151.526 269.337C151.526 269.442 151.484 269.543 151.41 269.617C151.335 269.691 151.235 269.733 151.13 269.733Z" fill="#CACACA"/>
<path d="M231.275 64.1318H137.401C136.878 64.1431 136.369 63.9616 135.971 63.6218C135.573 63.2821 135.313 62.8078 135.242 62.289C135.212 62.0028 135.243 61.7136 135.332 61.4401C135.421 61.1665 135.567 60.9148 135.759 60.7011C135.952 60.4874 136.187 60.3166 136.45 60.1997C136.712 60.0827 136.997 60.0223 137.284 60.0222H231.129C231.66 60.0083 232.178 60.1916 232.583 60.537C232.987 60.8824 233.25 61.3653 233.32 61.8929C233.345 62.1771 233.311 62.4635 233.22 62.7339C233.129 63.0042 232.982 63.2526 232.79 63.4633C232.598 63.6739 232.363 63.8421 232.103 63.9572C231.842 64.0723 231.56 64.1317 231.275 64.1318Z" fill="#405888"/>
</g>
<defs>
<clipPath id="clip0_6079_20989">
<rect width="320" height="270" fill="white"/>
</clipPath>
</defs>
</svg>
