<svg width="340" height="226" viewBox="0 0 340 226" fill="none" xmlns="http://www.w3.org/2000/svg">
<g clip-path="url(#clip0_6079_20918)">
<path d="M161.581 115.29H146.656L147.804 103.08H159.668L161.581 115.29Z" fill="#A0616A"/>
<path opacity="0.1" d="M161.581 115.29H146.656L147.804 103.08H159.668L161.581 115.29Z" fill="black"/>
<path d="M49.9895 69.5178C56.7394 69.5178 62.2113 64.0621 62.2113 57.3322C62.2113 50.6022 56.7394 45.1465 49.9895 45.1465C43.2395 45.1465 37.7676 50.6022 37.7676 57.3322C37.7676 64.0621 43.2395 69.5178 49.9895 69.5178Z" fill="#FF6884"/>
<path d="M105.091 216.453C105.161 217.036 105.181 217.578 105.141 218.111H75.7459C75.4785 217.578 75.2508 217.026 75.0528 216.453C71.4589 206.157 77.3696 189.021 69.8748 163.612C64.3106 144.758 53.9248 130.01 49.0833 123.139C43.133 114.689 36.3907 106.891 28.579 94.4334C26.886 91.7386 25.1435 88.8166 23.3416 85.6282C22.7377 84.5621 15.7774 72.1933 16.4111 71.8083C16.7081 71.6306 18.5496 74.1281 19.1734 74.9671C24.6781 82.3904 27.8761 85.6381 32.4601 90.9784C35.2422 94.2163 38.5292 98.2141 43.1429 104.384C54.9743 120.188 60.8849 128.085 62.9443 133.998C63.4888 135.577 66.3897 144.126 71.8549 154.728C74.6469 160.137 76.0429 162.842 76.8052 162.625C78.9636 162.003 76.0528 139.605 66.9046 117.216C65.3402 113.406 64.172 110.968 61.9542 106.358C58.3504 98.8361 38.2817 57.0309 23.5297 32.007C21.6783 28.8581 19.9061 25.9855 18.2724 23.4683C17.9556 22.9945 17.6487 22.5305 17.3517 22.0863C15.2923 19.0262 13.4706 16.6077 11.9558 15.0481C11.1538 14.2188 9.11431 11.8695 5.02532 7.15099C3.4016 5.27542 2.2135 3.88358 1.41155 2.86681C1.29275 2.71877 1.18385 2.57068 1.09478 2.44235C0.124476 1.17884 -0.152713 0.566765 0.0749837 0.241055C0.401723 -0.22293 1.65907 0.0436138 3.03528 0.527302C3.18381 0.576648 3.3422 0.635872 3.49073 0.695096C4.98574 1.24789 6.50051 1.96854 7.00546 2.21532C11.639 4.43637 16.1636 8.4145 20.3516 13.1429C21.906 14.8901 23.401 16.736 24.8465 18.6314C29.4998 24.7516 33.5591 31.4147 36.6283 36.8934C40.3905 43.6453 42.6479 48.6106 42.6479 48.6106C53.1525 71.7392 64.8056 98.1944 65.4194 97.9674C66.0927 97.7206 53.1723 64.7898 49.4101 46.9029C48.1527 40.911 47.925 36.6071 49.5784 35.7779C49.6378 35.7483 49.6972 35.7187 49.7665 35.6989C50.0239 35.61 50.2615 35.6199 50.3902 35.6298C50.3902 35.6298 51.9248 35.4324 53.5386 35.7779C55.5485 36.2122 57.8356 41.7895 60.0632 49.6175C65.8551 69.7945 71.3599 104.877 71.3599 104.877C76.8646 139.97 85.2208 168.37 87.2009 168.054C88.2999 167.876 86.7257 159.061 88.191 144.363C89.2207 134.057 90.3889 134.373 94.1314 115.736C100.072 86.1711 103.042 71.3937 103.042 71.3147C103.012 70.6928 102.933 69.4392 103.121 68.1361C103.319 66.7245 103.824 65.2438 105.022 64.4048C106.844 63.1215 109.774 63.6743 110.963 64.4048C111.913 64.9971 112.398 66.0829 112.507 67.6426C113.16 77.4547 99.0224 105.904 94.1314 144.363C91.6958 163.523 90.3593 173.977 94.1314 187.797C97.864 201.498 104.369 210.224 105.091 216.453Z" fill="#F2F2F2"/>
<path d="M234.909 216.453C234.839 217.036 234.82 217.578 234.859 218.111H264.254C264.522 217.578 264.749 217.026 264.947 216.453C268.541 206.157 262.631 189.021 270.125 163.612C275.69 144.758 286.075 130.01 290.917 123.139C296.867 114.689 303.61 106.891 311.421 94.4334C313.114 91.7386 314.857 88.8166 316.659 85.6282C317.263 84.5621 324.223 72.1933 323.589 71.8083C323.292 71.6306 321.451 74.1281 320.827 74.9672C315.322 82.3904 312.124 85.6381 307.54 90.9784C304.758 94.2163 301.471 98.2141 296.857 104.384C285.026 120.188 279.115 128.085 277.056 133.998C276.511 135.577 273.61 144.126 268.145 154.728C265.353 160.137 263.957 162.842 263.195 162.625C261.037 162.003 263.947 139.605 273.096 117.216C274.66 113.406 275.828 110.968 278.046 106.358C281.65 98.8361 301.718 57.0309 316.47 32.007C318.322 28.8581 320.094 25.9855 321.728 23.4683C322.045 22.9945 322.351 22.5305 322.649 22.0863C324.708 19.0262 326.53 16.6077 328.044 15.0481C328.846 14.2189 330.886 11.8695 334.975 7.151C336.599 5.27541 337.787 3.88358 338.589 2.8668C338.707 2.71877 338.816 2.57068 338.905 2.44234C339.876 1.17884 340.153 0.566764 339.925 0.241054C339.598 -0.222931 338.341 0.0436166 336.965 0.527301C336.816 0.576647 336.658 0.635871 336.509 0.695095C335.014 1.24789 333.5 1.96854 332.995 2.21532C328.361 4.43637 323.837 8.4145 319.649 13.1429C318.094 14.8901 316.599 16.736 315.154 18.6314C310.5 24.7516 306.441 31.4147 303.372 36.8934C299.61 43.6453 297.352 48.6106 297.352 48.6106C286.848 71.7392 275.195 98.1944 274.581 97.9674C273.907 97.7206 286.828 64.7898 290.59 46.9029C291.848 40.911 292.075 36.6071 290.422 35.7779C290.362 35.7483 290.303 35.7187 290.234 35.6989C289.976 35.61 289.739 35.6199 289.61 35.6298C289.61 35.6298 288.075 35.4324 286.462 35.7779C284.452 36.2122 282.165 41.7895 279.937 49.6175C274.145 69.7945 268.64 104.877 268.64 104.877C263.136 139.97 254.779 168.37 252.799 168.054C251.7 167.876 253.274 159.061 251.809 144.363C250.78 134.057 249.611 134.373 245.869 115.736C239.928 86.1711 236.958 71.3937 236.958 71.3147C236.988 70.6928 237.067 69.4392 236.879 68.1361C236.681 66.7245 236.176 65.2438 234.978 64.4048C233.156 63.1215 230.226 63.6743 229.038 64.4048C228.087 64.9971 227.602 66.0829 227.493 67.6426C226.84 77.4547 240.978 105.904 245.869 144.363C248.304 163.523 249.641 173.977 245.869 187.797C242.136 201.498 235.631 210.224 234.909 216.453Z" fill="#F2F2F2"/>
<path d="M273.286 217.592C273.286 217.769 273.142 217.913 272.964 217.913H50.1655V217.271H272.964C273.142 217.271 273.286 217.415 273.286 217.592Z" fill="#E6E6E6"/>
<path d="M140.165 204.007L142.674 215.23L150.526 214.142L148.345 202.615L140.165 204.007Z" fill="#A0616A"/>
<path d="M182.265 204.007L179.757 215.23L171.904 214.142L174.085 202.615L182.265 204.007Z" fill="#A0616A"/>
<path d="M197.117 178.226L182.983 135.301C179.822 125.699 170.831 119.207 160.694 119.207C149.419 119.207 139.739 127.205 137.644 138.251L129.827 179.462C128.708 185.363 133.12 190.831 139.074 191.075V219.252H141.256V191.087H187.064V219.252H189.245V190.975C195.138 190.105 199.048 184.089 197.117 178.226Z" fill="#CCCCCC"/>
<path d="M167.868 149.004L141.256 149.874C141.256 149.874 131.221 167.708 148.89 170.1C166.559 172.493 182.047 169.883 182.701 162.271C183.356 154.659 177.902 148.786 167.868 149.004Z" fill="#2F2E41"/>
<path d="M146.273 150.961C146.273 150.961 136.238 152.048 135.366 154.876C134.493 157.703 134.057 170.1 134.057 170.1L137.984 205.986L149.108 204.681L146.709 170.317L159.579 167.49L146.273 150.961Z" fill="#2F2E41"/>
<path d="M144.092 210.117C144.092 210.117 140.79 207.942 139.932 208.921C139.074 209.9 134.494 214.685 134.494 214.685L126.423 219.687C126.423 219.687 119.442 226.211 129.258 225.994C139.074 225.776 144.092 222.83 144.092 222.83C144.092 222.83 153.471 222.732 153.253 220.122C153.035 217.512 149.87 210.672 149.87 210.672L144.092 210.117Z" fill="#2F2E41"/>
<path d="M176.157 150.961C176.157 150.961 186.192 152.048 187.064 154.876C187.937 157.703 188.373 170.1 188.373 170.1L184.446 205.986L173.322 204.681L175.721 170.317L162.851 167.49L176.157 150.961Z" fill="#2F2E41"/>
<path d="M178.339 210.117C178.339 210.117 181.64 207.942 182.498 208.921C183.356 209.9 187.937 214.685 187.937 214.685L196.008 219.687C196.008 219.687 202.988 226.211 193.172 225.994C183.356 225.776 178.339 222.83 178.339 222.83C178.339 222.83 168.959 222.732 169.177 220.122C169.395 217.512 172.56 210.672 172.56 210.672L178.339 210.117Z" fill="#2F2E41"/>
<path d="M160.015 108.986H147.352L137.766 113.336L139.947 142.045C139.947 142.045 137.228 150.773 140.551 151.302C143.873 151.832 162.197 155.094 167.214 152.267C172.231 149.439 176.594 150.309 176.594 150.309L170.704 112.249L160.015 108.986Z" fill="#3F3D56"/>
<path d="M154.017 107.79C160.522 107.79 165.796 102.531 165.796 96.0452C165.796 89.5589 160.522 84.3008 154.017 84.3008C147.511 84.3008 142.237 89.5589 142.237 96.0452C142.237 102.531 147.511 107.79 154.017 107.79Z" fill="#A0616A"/>
<path d="M141.898 97.9673L143.933 100.612L146.733 96.6975C146.733 96.6975 146.967 100.177 154.667 98.8724C162.368 97.5675 164.235 97.1325 164.235 97.1325L165.168 101.047C165.168 101.047 166.101 98.4374 166.101 96.6975C166.101 94.9576 171.702 90.8253 165.868 87.3455C160.034 83.8657 163.068 80.6034 155.834 80.8208C148.6 81.0383 144.167 80.8208 143.467 83.4307C142.766 86.0406 141.133 89.3029 141.366 92.1303C141.6 94.9576 141.898 97.9673 141.898 97.9673Z" fill="#2F2E41"/>
<path d="M164.183 149.457C161.347 150.396 158.562 149.698 157.963 147.899C157.364 146.099 159.177 143.88 162.014 142.941C163.142 142.55 164.348 142.434 165.53 142.604L177.596 138.775L179.277 144.459L167.203 147.63C166.357 148.47 165.322 149.097 164.183 149.457Z" fill="#A0616A"/>
<path d="M108.897 136.744C106.182 135.5 104.624 133.095 105.419 131.372C106.213 129.65 109.058 129.262 111.774 130.507C112.866 130.989 113.826 131.725 114.574 132.653L126.011 138.069L123.348 143.367L112.355 137.465C111.161 137.504 109.975 137.256 108.897 136.744Z" fill="#A0616A"/>
<path d="M137.726 113.273C137.726 113.273 142.265 115.12 142.124 120.049C141.983 124.978 138.514 131.866 138.514 131.866C138.514 131.866 138.271 147.416 134.007 149.099C129.743 150.782 116.566 139.995 116.566 139.995L119.61 134.198L125.298 133.544L137.726 113.273Z" fill="#3F3D56"/>
<path d="M167.432 113.118C167.432 113.118 172.013 111.378 175.285 115.075C178.557 118.773 180.738 126.167 180.738 126.167C180.738 126.167 191.209 137.694 189.246 141.827C187.282 145.959 170.268 147.046 170.268 147.046L168.523 140.739L172.231 136.389L167.432 113.118Z" fill="#3F3D56"/>
<path d="M179.287 156.071H142.053C139.97 156.071 138.276 154.382 138.276 152.305V130.694C138.276 128.617 139.97 126.928 142.053 126.928H179.287C181.369 126.928 183.064 128.617 183.064 130.694V152.305C183.064 154.382 181.369 156.071 179.287 156.071Z" fill="#405888"/>
<path d="M81.0979 148.087C80.1755 147.604 78.7219 149.621 77.9355 149.152C77.152 148.685 78.3224 146.52 77.8816 143.488C77.8021 142.941 77.3011 139.495 75.9083 139.193C73.2684 138.62 69.7471 149.843 65.7663 149.325C64.8927 149.211 63.9041 148.52 61.1975 148.074C60.1208 147.897 59.5273 147.883 59.1802 148.237C58.6877 148.74 59.1217 149.545 59.4416 151.455C59.9213 154.32 59.2822 154.522 59.8664 156.685C60.3 158.29 60.8799 159.022 60.4985 159.468C59.9588 160.1 58.449 159.042 57.6743 159.696C56.8838 160.363 57.3922 162.362 58.001 163.719C59.1435 166.264 60.9704 167.285 62.4604 168.622C64.0796 170.076 66.0579 172.585 67.2139 177.146L76.0042 218.009C74.3863 209.51 70.3576 185.962 69.2312 176.984C68.906 174.392 68.6594 171.712 70.2569 169.612C71.7949 167.591 74.857 166.352 77.8688 163.329C78.2205 162.976 79.187 161.981 78.9158 161.22C78.6915 160.591 77.8255 160.695 77.6074 160.111C77.3147 159.328 78.6353 158.504 79.7668 156.697C80.5646 155.423 80.8628 154.308 81.1193 153.349C81.1966 153.06 82.3259 148.729 81.0979 148.087Z" fill="#F2F2F2"/>
<path d="M45.0517 194.593C44.548 194.905 45.1214 196.198 44.6636 196.448C44.2075 196.697 43.4794 195.499 41.8597 194.84C41.5676 194.721 39.7269 193.972 39.1763 194.566C38.1324 195.693 42.6413 200.654 41.2374 202.453C40.9294 202.848 40.3038 203.132 39.3035 204.328C38.9056 204.803 38.7274 205.09 38.8016 205.362C38.9069 205.748 39.4284 205.768 40.4612 206.162C42.0101 206.754 41.9251 207.125 43.1581 207.464C44.0733 207.714 44.6009 207.642 44.7106 207.957C44.8658 208.404 43.9096 208.837 44.0079 209.405C44.1083 209.984 45.239 210.312 46.0824 210.406C47.6652 210.581 48.6946 209.982 49.7831 209.639C50.9659 209.266 52.7716 209.021 55.3507 209.772L78.002 217.26C73.3515 215.6 60.5973 210.777 55.8526 208.738C54.4829 208.149 53.0924 207.496 52.52 206.109C51.9689 204.773 52.2423 202.917 51.6232 200.571C51.5509 200.297 51.3399 199.537 50.8871 199.45C50.5128 199.378 50.3141 199.832 49.9636 199.77C49.4935 199.688 49.4692 198.804 48.9063 197.729C48.5093 196.971 48.0463 196.503 47.6482 196.101C47.5281 195.98 45.7222 194.178 45.0517 194.593Z" fill="#F2F2F2"/>
<path d="M56.5175 190.658L54.5398 188.137L54.5519 187.847C54.6083 186.503 54.3632 185.374 53.8233 184.492C53.7375 184.352 53.6445 184.216 53.5498 184.078C53.1745 183.529 52.7078 182.847 52.5691 181.803C52.4929 181.22 52.4182 179.809 53.3683 179.405C53.6225 179.294 53.8658 179.293 54.0777 179.336C54.078 179.292 54.0789 179.248 54.0795 179.201C54.0957 178.623 54.201 178.315 54.3025 178.018C54.3803 177.79 54.461 177.554 54.5208 177.077C54.5471 176.868 54.559 176.691 54.5692 176.543C54.6009 176.092 54.6643 175.539 55.1862 175.227C55.7557 174.913 56.3275 175.192 56.7062 175.375C57.382 175.703 57.7774 175.996 58.0395 176.19C58.135 176.262 58.2431 176.341 58.2849 176.361C58.6249 176.513 59.9232 175.377 60.4143 174.953C61.5148 173.995 62.4671 173.167 63.3811 173.669C64.0355 174.028 64.2536 174.901 64.0446 176.333C63.9793 176.779 63.8546 177.164 63.7295 177.483C63.994 177.479 64.2762 177.549 64.5177 177.783C65.0885 178.338 64.9292 179.343 64.0465 180.773C63.8279 181.129 63.5324 181.607 62.9964 182.079C62.7437 182.301 62.4967 182.469 62.2831 182.609C62.356 182.737 62.4106 182.891 62.4203 183.078C62.45 183.628 62.1032 184.112 61.3687 184.498C60.5674 184.935 59.837 185.18 59.1932 185.397C58.6314 185.587 58.1482 185.752 57.829 185.979C57.2421 186.408 57.0708 187.194 56.9075 188.176L56.5175 190.658Z" fill="#F2F2F2"/>
<path d="M47.9642 173.671L46.0206 176.217L45.7356 176.279C44.4171 176.566 43.3847 177.089 42.6658 177.833C42.5515 177.951 42.4433 178.076 42.333 178.202C41.8959 178.703 41.3528 179.326 40.3752 179.725C39.8292 179.946 38.4787 180.376 37.8463 179.562C37.674 179.345 37.6108 179.111 37.5987 178.896C37.5564 178.906 37.5136 178.917 37.4676 178.928C36.9026 179.059 36.5769 179.036 36.2632 179.013C36.022 178.996 35.7732 178.978 35.2954 179.041C35.0858 179.069 34.9112 179.102 34.7643 179.13C34.319 179.214 33.7664 179.293 33.3316 178.869C32.8827 178.399 33.0076 177.777 33.0899 177.365C33.2366 176.63 33.4204 176.175 33.5424 175.873C33.5872 175.762 33.6371 175.638 33.6453 175.593C33.7064 175.226 32.2758 174.262 31.7395 173.896C30.5312 173.078 29.4857 172.369 29.7415 171.36C29.9239 170.638 30.715 170.207 32.1578 170.045C32.6071 169.995 33.0123 170.017 33.3531 170.057C33.2824 169.803 33.2788 169.513 33.4446 169.221C33.838 168.53 34.8536 168.428 36.4648 168.917C36.8657 169.037 37.4039 169.201 37.9977 169.598C38.2771 169.786 38.5028 169.981 38.6931 170.152C38.7991 170.049 38.9347 169.957 39.1137 169.9C39.6397 169.732 40.197 169.944 40.7581 170.554C41.3848 171.216 41.8078 171.859 42.1817 172.425C42.5086 172.918 42.7914 173.342 43.0925 173.593C43.6577 174.05 44.463 174.016 45.4576 173.924L47.9642 173.671Z" fill="#F2F2F2"/>
<path d="M41.623 166.562L39.6453 164.042L39.6574 163.751C39.7138 162.407 39.4687 161.279 38.9288 160.396C38.843 160.256 38.7499 160.12 38.6553 159.982C38.28 159.433 37.8133 158.751 37.6745 157.707C37.5984 157.125 37.5236 155.713 38.4737 155.31C38.728 155.199 38.9712 155.197 39.1832 155.24C39.1835 155.196 39.1844 155.153 39.185 155.105C39.2012 154.527 39.3065 154.219 39.4079 153.922C39.4858 153.694 39.5664 153.459 39.6262 152.982C39.6525 152.773 39.6644 152.596 39.6747 152.447C39.7064 151.996 39.7698 151.443 40.2917 151.132C40.8612 150.818 41.4329 151.096 41.8117 151.28C42.4875 151.608 42.8828 151.9 43.1449 152.095C43.2405 152.166 43.3486 152.246 43.3904 152.265C43.7303 152.417 45.0287 151.282 45.5198 150.857C46.6203 149.9 47.5725 149.071 48.4866 149.574C49.1409 149.933 49.3591 150.805 49.1501 152.238C49.0848 152.684 48.9601 153.069 48.835 153.387C49.0995 153.383 49.3816 153.454 49.6231 153.688C50.194 154.242 50.0347 155.248 49.152 156.677C48.9334 157.034 48.6379 157.511 48.1019 157.983C47.8492 158.205 47.6021 158.373 47.3885 158.513C47.4615 158.642 47.5161 158.796 47.5258 158.983C47.5555 159.533 47.2086 160.016 46.4742 160.403C45.6729 160.839 44.9424 161.084 44.2987 161.301C43.7369 161.491 43.2537 161.657 42.9344 161.883C42.3476 162.313 42.1763 163.098 42.0129 164.08L41.623 166.562Z" fill="#F2F2F2"/>
<path d="M76.8858 217.406L76.097 217.4L75.4804 217.884C75.4319 217.829 75.3086 217.71 75.1176 217.522C74.0724 216.494 70.8899 213.367 66.5485 208.029C63.518 204.304 60.646 200.323 58.0106 196.198C55.3713 192.065 53.6177 188.787 52.2079 186.152C51.1449 184.164 50.164 182.253 49.2095 180.39C46.658 175.413 44.2473 170.713 40.9147 165.917C40.1713 164.846 38.6227 162.618 35.7563 160.995C34.0937 160.055 32.2341 159.455 30.2295 159.215L30.4179 157.652C32.6316 157.919 34.69 158.584 36.5361 159.629C39.7142 161.428 41.4016 163.856 42.2123 165.023C45.6037 169.903 48.0371 174.649 50.6129 179.673C51.5647 181.529 52.5407 183.433 53.5996 185.412C54.9962 188.023 56.7347 191.273 59.3403 195.352C61.9436 199.428 64.7808 203.36 67.7726 207.039C72.0596 212.309 75.195 215.39 76.225 216.402C76.7746 216.942 76.8898 217.056 76.8858 217.406Z" fill="#F2F2F2"/>
<path d="M29.0821 162.855C29.0271 162.888 28.9705 162.921 28.9117 162.952C27.7304 163.593 26.2499 163.561 24.5111 162.859C23.6946 162.527 23.0419 161.977 21.7403 160.882C21.5392 160.713 20.5341 159.848 19.413 158.497C18.6801 157.614 18.4475 157.2 18.419 156.725C18.3864 156.196 18.5599 155.707 18.8324 155.282C18.7362 155.164 18.6683 155.024 18.6408 154.855C18.5246 154.156 19.1782 153.855 19.5291 153.689C19.7085 153.607 19.9333 153.507 20.1502 153.357C20.4924 153.124 20.6172 152.903 20.8074 152.569C20.9891 152.25 21.2151 151.853 21.658 151.439C22.5286 150.617 23.5403 150.385 23.8737 150.308C25.6239 149.898 27.0355 150.584 28.6698 151.378C28.9966 151.538 30.152 152.141 31.3327 153.216C32.1846 153.991 32.4052 154.433 32.5162 154.794C32.7462 155.534 32.5824 156.14 32.0912 157.557C31.5796 159.038 31.3222 159.781 31.0356 160.312C30.3672 161.547 29.9475 162.323 29.0821 162.855Z" fill="#F2F2F2"/>
<path d="M90.0941 134.244L100.401 131.855L101.14 133.99L106.126 132.647L109.414 131.761L112.608 125.575L110.342 119.026L103.594 118.963L101.53 119.367L95.7744 120.496C95.2871 121.3 95.5532 122.346 96.3659 122.821L96.6326 122.976L88.5344 124.374C88.5344 124.374 85.9476 128.964 90.0941 134.244Z" fill="#3F3D56"/>
<path d="M101.53 119.367L106.126 132.647L109.414 131.761L112.608 125.575L110.342 119.026L103.594 118.963L101.53 119.367Z" fill="#2F2E41"/>
<path d="M99.7871 119.921C100.496 119.764 101.008 119.351 100.929 118.997C100.851 118.644 100.212 118.484 99.5028 118.64C98.7934 118.797 98.2819 119.211 98.3604 119.564C98.4389 119.918 99.0777 120.078 99.7871 119.921Z" fill="#3F3D56"/>
<path d="M261.543 218.836L256.597 208.415L256.567 208.436V194.891H252.119V208.436L252.089 208.415L247.143 219.132C246.997 219.389 247.086 219.715 247.344 219.862C247.562 219.986 247.837 219.942 248.006 219.757L253.065 213.855L253.884 219.229C253.916 219.523 254.182 219.734 254.476 219.702C254.726 219.674 254.923 219.478 254.95 219.229L255.76 213.914L260.68 219.461C260.879 219.68 261.218 219.696 261.437 219.497C261.623 219.329 261.667 219.054 261.543 218.836Z" fill="#2F2E41"/>
<path d="M226.213 179.696C225.425 184.892 236.822 194.025 253.625 196.557C270.427 199.089 286.82 195.432 287.608 190.236C288.395 185.041 275.333 179.734 258.53 177.202C241.728 174.67 227 174.501 226.213 179.696Z" fill="#405888"/>
<path opacity="0.3" d="M226.213 179.696C225.425 184.892 236.822 194.025 253.625 196.557C270.427 199.089 286.82 195.432 287.608 190.236C288.395 185.041 275.333 179.734 258.53 177.202C241.728 174.67 227 174.501 226.213 179.696Z" fill="black"/>
<path d="M226.875 178.935C226.226 183.214 237.348 190.558 254.15 193.091C270.953 195.623 287.131 193.813 287.779 189.534C288.428 185.255 275.333 179.734 258.53 177.201C241.728 174.669 227.523 174.656 226.875 178.935Z" fill="#405888"/>
<path d="M264.924 115.325H202.146C199.618 115.325 197.562 113.275 197.562 110.755V63.4251C197.562 60.9056 199.618 58.8555 202.146 58.8555H264.924C267.451 58.8555 269.507 60.9056 269.507 63.4251V110.755C269.507 113.275 267.451 115.325 264.924 115.325Z" fill="white"/>
<path d="M264.924 115.325H202.146C199.618 115.325 197.562 113.275 197.562 110.755V63.4251C197.562 60.9056 199.618 58.8555 202.146 58.8555H264.924C267.451 58.8555 269.507 60.9056 269.507 63.4251V110.755C269.507 113.275 267.451 115.325 264.924 115.325ZM202.146 59.6186C200.041 59.6186 198.328 61.3262 198.328 63.4251V110.755C198.328 112.854 200.041 114.562 202.146 114.562H264.924C267.029 114.562 268.742 112.854 268.742 110.755V63.4251C268.742 61.3262 267.029 59.6186 264.924 59.6186H202.146Z" fill="#3F3D56"/>
<path d="M258.026 64.5784C258.661 64.5784 259.175 64.0659 259.175 63.4337C259.175 62.8015 258.661 62.2891 258.026 62.2891C257.392 62.2891 256.878 62.8015 256.878 63.4337C256.878 64.0659 257.392 64.5784 258.026 64.5784Z" fill="#3F3D56"/>
<path d="M261.088 64.5784C261.722 64.5784 262.236 64.0659 262.236 63.4337C262.236 62.8015 261.722 62.2891 261.088 62.2891C260.454 62.2891 259.94 62.8015 259.94 63.4337C259.94 64.0659 260.454 64.5784 261.088 64.5784Z" fill="#3F3D56"/>
<path d="M264.15 64.5784C264.784 64.5784 265.298 64.0659 265.298 63.4337C265.298 62.8015 264.784 62.2891 264.15 62.2891C263.515 62.2891 263.001 62.8015 263.001 63.4337C263.001 64.0659 263.515 64.5784 264.15 64.5784Z" fill="#3F3D56"/>
<path d="M204.068 81.9395C203.752 81.9395 203.494 82.1962 203.494 82.5118C203.494 82.6657 203.554 82.808 203.662 82.9131C203.771 83.0245 203.914 83.0841 204.068 83.0841H263.384C263.701 83.0841 263.958 82.8274 263.958 82.5118C263.958 82.3579 263.899 82.2155 263.79 82.1105C263.681 81.9991 263.538 81.9395 263.384 81.9395H204.068Z" fill="#E6E6E6"/>
<path d="M252.669 81.748V83.2742H204.068C203.858 83.2742 203.666 83.1903 203.529 83.0491C203.387 82.9118 203.303 82.721 203.303 82.5111C203.303 82.0914 203.647 81.748 204.068 81.748H252.669Z" fill="#405888"/>
<path d="M262.428 78.8864H254.774C253.93 78.8864 253.243 78.2019 253.243 77.3602C253.243 76.5185 253.93 75.834 254.774 75.834H262.428C263.272 75.834 263.958 76.5185 263.958 77.3602C263.958 78.2019 263.272 78.8864 262.428 78.8864Z" fill="#E6E6E6"/>
<path d="M212.296 70.8747H204.642C203.798 70.8747 203.111 70.1902 203.111 69.3485C203.111 68.5067 203.798 67.8223 204.642 67.8223H212.296C213.14 67.8223 213.826 68.5067 213.826 69.3485C213.826 70.1902 213.14 70.8747 212.296 70.8747Z" fill="#E6E6E6"/>
<path d="M204.068 99.1094C203.752 99.1094 203.494 99.3661 203.494 99.6817C203.494 99.8356 203.554 99.9779 203.662 100.083C203.771 100.194 203.914 100.254 204.068 100.254H263.384C263.701 100.254 263.958 99.9973 263.958 99.6817C263.958 99.5278 263.899 99.3855 263.79 99.2804C263.681 99.169 263.538 99.1094 263.384 99.1094H204.068Z" fill="#E6E6E6"/>
<path d="M223.202 98.918V100.444H204.068C203.858 100.444 203.666 100.36 203.529 100.219C203.387 100.082 203.303 99.8909 203.303 99.6811C203.303 99.2613 203.647 98.918 204.068 98.918H223.202Z" fill="#405888"/>
<path d="M262.428 96.0563H254.774C253.93 96.0563 253.243 95.3718 253.243 94.5301C253.243 93.6884 253.93 93.0039 254.774 93.0039H262.428C263.272 93.0039 263.958 93.6884 263.958 94.5301C263.958 95.3718 263.272 96.0563 262.428 96.0563Z" fill="#E6E6E6"/>
</g>
<defs>
<clipPath id="clip0_6079_20918">
<rect width="340" height="226" fill="white"/>
</clipPath>
</defs>
</svg>
