<svg width="40" height="40" viewBox="0 0 40 40" fill="none" xmlns="http://www.w3.org/2000/svg">
<rect width="40" height="40" rx="4" fill="#3A3A3A"/>
<path d="M13.3335 16.667H16.8109V27.3576H13.3335V16.667ZM26.2828 16.7924C26.2458 16.7807 26.2108 16.7681 26.172 16.7574C26.1253 16.7468 26.0783 16.7377 26.031 16.7302C25.8257 16.6882 25.6167 16.667 25.4071 16.667C23.3798 16.667 22.094 18.1413 21.6702 18.7108V16.667H18.1929V27.3576H21.6702V21.5264C21.6702 21.5264 24.2982 17.8663 25.4071 20.5545V27.3576H28.8835V20.1434C28.8821 19.3757 28.6259 18.6303 28.1553 18.0238C27.6846 17.4174 27.026 16.9843 26.2828 16.7924Z" fill="white"/>
<path d="M15.8856 15.1042C17.2951 15.1042 18.4377 13.9616 18.4377 12.5521C18.4377 11.1426 17.2951 10 15.8856 10C14.4761 10 13.3335 11.1426 13.3335 12.5521C13.3335 13.9616 14.4761 15.1042 15.8856 15.1042Z" fill="white"/>
</svg>
