<?xml version="1.0" encoding="UTF-8"?>
<!DOCTYPE svg PUBLIC "-//W3C//DTD SVG 1.1//EN" "http://www.w3.org/Graphics/SVG/1.1/DTD/svg11.dtd">
<svg xmlns="http://www.w3.org/2000/svg" version="1.1" width="1166px" height="247px" style="shape-rendering:geometricPrecision; text-rendering:geometricPrecision; image-rendering:optimizeQuality; fill-rule:evenodd; clip-rule:evenodd" xmlns:xlink="http://www.w3.org/1999/xlink">
<g><path style="opacity:0.994" fill="#405888" d="M 34.5,3.5 C 93.5009,3.33334 152.501,3.50001 211.5,4C 229,8.16667 239.833,19 244,36.5C 244.667,94.8333 244.667,153.167 244,211.5C 240.367,229.132 229.867,240.299 212.5,245C 153.167,245.667 93.8333,245.667 34.5,245C 15.4527,239.619 4.61937,227.119 2,207.5C 1.33333,152.167 1.33333,96.8333 2,41.5C 4.81074,21.8634 15.6441,9.19674 34.5,3.5 Z"/></g>
<g><path style="opacity:0.96" fill="#405787" d="M 936.5,44.5 C 951.655,42.1602 958.488,48.4936 957,63.5C 953.717,71.2267 947.884,74.3934 939.5,73C 928.845,70.203 925.011,63.3697 928,52.5C 930.098,48.8972 932.932,46.2305 936.5,44.5 Z"/></g>
<g><path style="opacity:0.964" fill="#405787" d="M 821.5,48.5 C 831.5,48.5 841.5,48.5 851.5,48.5C 851.333,62.8372 851.5,77.1705 852,91.5C 854.765,85.0692 859.598,81.2358 866.5,80C 899.021,75.3444 916.021,89.5111 917.5,122.5C 916.25,154.925 899.583,170.425 867.5,169C 859.968,168.829 854.802,165.329 852,158.5C 851.502,161.482 851.335,164.482 851.5,167.5C 841.5,167.5 831.5,167.5 821.5,167.5C 821.5,127.833 821.5,88.1667 821.5,48.5 Z M 863.5,99.5 C 876.131,97.6319 883.631,102.965 886,115.5C 887.355,124.486 886.355,133.153 883,141.5C 874.624,151.176 865.624,151.843 856,143.5C 850.795,132.145 850.128,120.478 854,108.5C 856.406,104.592 859.572,101.592 863.5,99.5 Z"/></g>
<g><path style="opacity:0.923" fill="#405787" d="M 560.5,51.5 C 572.458,52.5311 575.958,58.5311 571,69.5C 566.229,74.1008 561.062,74.6008 555.5,71C 550.821,66.2627 550.321,61.096 554,55.5C 556.013,53.7518 558.18,52.4185 560.5,51.5 Z"/></g>
<g><path style="opacity:1" fill="#fafbfc" d="M 81.5,54.5 C 102.554,54.0459 123.554,54.5459 144.5,56C 164.519,62.3571 175.519,76.0237 177.5,97C 176.33,122.996 162.997,138.163 137.5,142.5C 137.667,163.503 137.5,184.503 137,205.5C 121.244,197.372 105.411,189.372 89.5,181.5C 88.6668,152.172 88.1668,122.839 88,93.5C 83.1705,91.0862 78.5038,88.4196 74,85.5C 65.9864,72.429 68.4864,62.0957 81.5,54.5 Z"/></g>
<g><path style="opacity:0.96" fill="#405787" d="M 310.5,55.5 C 324.837,55.3334 339.171,55.5001 353.5,56C 382.576,57.0687 394.742,71.9021 390,100.5C 385.453,113.047 376.619,120.547 363.5,123C 351.838,123.5 340.171,123.667 328.5,123.5C 328.5,138.167 328.5,152.833 328.5,167.5C 322.5,167.5 316.5,167.5 310.5,167.5C 310.5,130.167 310.5,92.8333 310.5,55.5 Z M 328.5,71.5 C 339.91,71.0666 351.244,71.5666 362.5,73C 369.172,76.6753 372.172,82.342 371.5,90C 372.266,98.1414 368.933,103.808 361.5,107C 350.578,108.431 339.578,108.931 328.5,108.5C 328.5,96.1667 328.5,83.8333 328.5,71.5 Z"/></g>
<g><path style="opacity:0.963" fill="#405787" d="M 1063.5,57.5 C 1073.5,57.5 1083.5,57.5 1093.5,57.5C 1093.5,64.8333 1093.5,72.1667 1093.5,79.5C 1099.83,79.5 1106.17,79.5 1112.5,79.5C 1112.5,85.8333 1112.5,92.1667 1112.5,98.5C 1106.17,98.5 1099.83,98.5 1093.5,98.5C 1093.08,113.55 1093.58,128.55 1095,143.5C 1096.32,145.487 1098.15,146.654 1100.5,147C 1103.82,147.498 1107.15,147.665 1110.5,147.5C 1110.5,153.833 1110.5,160.167 1110.5,166.5C 1098.72,168.227 1087.05,167.727 1075.5,165C 1069.84,162.668 1066.34,158.501 1065,152.5C 1063.76,134.522 1063.26,116.522 1063.5,98.5C 1059.17,98.5 1054.83,98.5 1050.5,98.5C 1050.5,92.1667 1050.5,85.8333 1050.5,79.5C 1054.83,79.5 1059.17,79.5 1063.5,79.5C 1063.5,72.1667 1063.5,64.8333 1063.5,57.5 Z"/></g>
<g><path style="opacity:0.934" fill="#405787" d="M 774.5,61.5 C 780.5,61.5 786.5,61.5 792.5,61.5C 792.5,68.5 792.5,75.5 792.5,82.5C 797.833,82.5 803.167,82.5 808.5,82.5C 808.5,86.8333 808.5,91.1667 808.5,95.5C 803.167,95.5 797.833,95.5 792.5,95.5C 792.333,113.503 792.5,131.503 793,149.5C 794.459,153.957 797.626,155.957 802.5,155.5C 804.1,155.449 805.6,155.116 807,154.5C 807.499,159.155 807.666,163.821 807.5,168.5C 800.159,168.666 792.826,168.5 785.5,168C 776.712,164.611 772.879,158.111 774,148.5C 773.5,130.836 773.333,113.17 773.5,95.5C 769.5,95.5 765.5,95.5 761.5,95.5C 761.5,91.1667 761.5,86.8333 761.5,82.5C 765.5,82.5 769.5,82.5 773.5,82.5C 773.205,75.4122 773.538,68.4122 774.5,61.5 Z"/></g>
<g><path style="opacity:1" fill="#405888" d="M 83.5,64.5 C 102.503,64.3334 121.503,64.5001 140.5,65C 162.237,71.6313 170.737,86.1313 166,108.5C 161.781,121.551 152.947,129.551 139.5,132.5C 138.668,124.521 138.168,116.521 138,108.5C 119.244,98.8722 100.411,89.3722 81.5,80C 77.0834,74.0873 77.7501,68.9206 83.5,64.5 Z"/></g>
<g><path style="opacity:0.966" fill="#405787" d="M 999.5,76.5 C 1010.76,75.2121 1021.42,77.0455 1031.5,82C 1039.67,87.3334 1044.34,94.8334 1045.5,104.5C 1035.81,104.832 1026.14,104.498 1016.5,103.5C 1013.65,95.3066 1008.82,93.64 1002,98.5C 1000.88,101.956 1001.71,104.79 1004.5,107C 1014.78,110.82 1025.12,114.487 1035.5,118C 1047.25,126.236 1050.75,137.069 1046,150.5C 1042.71,157.121 1037.54,161.621 1030.5,164C 1010.97,170.568 992.806,168.068 976,156.5C 971.269,151.039 968.769,144.706 968.5,137.5C 978.167,137.5 987.833,137.5 997.5,137.5C 999.507,145.999 1004.84,149.499 1013.5,148C 1018.42,146.152 1019.58,142.986 1017,138.5C 1014.75,136.623 1012.25,135.123 1009.5,134C 1000.22,131.766 991.225,128.766 982.5,125C 970.551,115.101 968.385,103.268 976,89.5C 982.393,82.3904 990.226,78.0571 999.5,76.5 Z"/></g>
<g><path style="opacity:0.948" fill="#405887" d="M 927.5,78.5 C 937.5,78.5 947.5,78.5 957.5,78.5C 957.5,107.5 957.5,136.5 957.5,165.5C 947.5,165.5 937.5,165.5 927.5,165.5C 927.5,136.5 927.5,107.5 927.5,78.5 Z"/></g>
<g><path style="opacity:0.955" fill="#405888" d="M 437.5,79.5 C 441.106,79.2108 444.606,79.5442 448,80.5C 448.499,85.1548 448.666,89.8215 448.5,94.5C 434.629,93.8949 426.129,100.228 423,113.5C 422.5,131.497 422.333,149.497 422.5,167.5C 416.167,167.5 409.833,167.5 403.5,167.5C 403.5,138.833 403.5,110.167 403.5,81.5C 409.833,81.5 416.167,81.5 422.5,81.5C 422.334,85.5138 422.501,89.5138 423,93.5C 425.479,86.1843 430.312,81.5177 437.5,79.5 Z"/></g>
<g><path style="opacity:0.959" fill="#405787" d="M 486.5,79.5 C 526.455,78.345 543.622,97.6783 538,137.5C 530.233,162.229 513.4,172.729 487.5,169C 471.498,166.426 460.665,157.593 455,142.5C 450.097,125.555 452.097,109.555 461,94.5C 467.968,86.6579 476.468,81.6579 486.5,79.5 Z M 493.5,92.5 C 508.447,92.9446 516.947,100.611 519,115.5C 521.632,128.637 518.798,140.304 510.5,150.5C 501.559,156.584 492.225,157.084 482.5,152C 475.224,144.352 471.558,135.186 471.5,124.5C 471.189,113.638 474.856,104.471 482.5,97C 486.053,94.8792 489.72,93.3792 493.5,92.5 Z"/></g>
<g><path style="opacity:0.952" fill="#405787" d="M 619.5,79.5 C 644.05,76.5109 659.55,86.8442 666,110.5C 667.107,116.787 667.607,123.12 667.5,129.5C 647.167,129.5 626.833,129.5 606.5,129.5C 607.743,152.605 619.076,160.105 640.5,152C 644.553,148.394 646.886,143.894 647.5,138.5C 653.5,138.5 659.5,138.5 665.5,138.5C 663.86,153.919 655.526,163.752 640.5,168C 606.534,173.687 588.534,159.353 586.5,125C 586.44,101.562 597.44,86.3956 619.5,79.5 Z M 627.5,92.5 C 640.926,94.5951 647.926,102.595 648.5,116.5C 634.5,116.5 620.5,116.5 606.5,116.5C 607.254,102.76 614.254,94.7602 627.5,92.5 Z"/></g>
<g><path style="opacity:0.956" fill="#405787" d="M 709.5,79.5 C 721.276,77.9269 732.276,80.0936 742.5,86C 750.295,92.5901 754.961,100.923 756.5,111C 750.141,111.831 743.807,111.664 737.5,110.5C 732.987,94.2749 722.987,89.4416 707.5,96C 701.315,100.526 697.815,106.692 697,114.5C 696.007,123.631 696.674,132.631 699,141.5C 705.381,155.939 715.547,159.439 729.5,152C 733.553,148.394 735.886,143.894 736.5,138.5C 742.833,138.5 749.167,138.5 755.5,138.5C 751.181,159.312 738.348,169.646 717,169.5C 695.294,169.462 682.294,158.795 678,137.5C 673.757,117.667 678.924,100.833 693.5,87C 698.542,83.6426 703.876,81.1426 709.5,79.5 Z"/></g>
<g><path style="opacity:0.962" fill="#405787" d="M 553.5,81.5 C 559.5,81.5 565.5,81.5 571.5,81.5C 571.667,116.168 571.5,150.835 571,185.5C 569.77,191.805 566.27,196.305 560.5,199C 553.58,201.075 546.58,201.575 539.5,200.5C 539.5,195.833 539.5,191.167 539.5,186.5C 543.273,186.737 546.94,186.237 550.5,185C 551.717,183.352 552.55,181.519 553,179.5C 553.5,146.835 553.667,114.168 553.5,81.5 Z"/></g>
<g><path style="opacity:1" fill="#445b8a" d="M 98.5,98.5 C 108.385,103.359 118.218,108.359 128,113.5C 128.667,139.5 128.667,165.5 128,191.5C 118.333,186.5 108.667,181.5 99,176.5C 98.5,150.502 98.3334,124.502 98.5,98.5 Z"/></g>
<g><path style="opacity:0.95" fill="#877040" d="M 1165.5,150.5 C 1165.5,152.167 1165.5,153.833 1165.5,155.5C 1161.17,168.677 1152.5,172.511 1139.5,167C 1132.04,160.356 1130.54,152.522 1135,143.5C 1142.23,135.8 1150.4,134.633 1159.5,140C 1162.45,143.069 1164.45,146.569 1165.5,150.5 Z"/></g>
</svg>
