<svg width="264" height="210" viewBox="0 0 264 210" fill="none" xmlns="http://www.w3.org/2000/svg">
<g clip-path="url(#clip0_3150_31487)">
<path d="M222.147 200.747C223.183 200.811 223.755 199.524 222.971 198.775L222.893 198.465C222.903 198.44 222.914 198.415 222.924 198.391C223.542 196.917 225.243 196.219 226.719 196.83C231.388 198.76 226.459 203.196 226.829 206.197C226.959 207.233 231.017 207.29 230.788 208.307C232.946 203.589 234.08 198.437 234.078 193.257C234.078 191.956 234.006 190.654 233.86 189.356C233.74 188.294 233.575 187.239 233.361 186.193C232.203 180.54 229.698 175.157 226.087 170.661C224.351 169.713 225.41 168.23 224.535 166.453C224.221 165.812 221.418 165.798 221.301 165.095C221.427 165.111 223.238 163.23 222.64 162.3C222.246 161.688 222.369 160.908 222.874 160.385C222.924 160.333 222.971 160.279 223.014 160.221C224.508 158.194 226.568 158.547 227.644 161.301C229.941 162.459 229.964 164.382 228.555 166.231C227.659 167.408 227.537 169 226.75 170.26C226.831 170.363 226.915 170.464 226.996 170.567C228.481 172.47 229.766 174.516 230.849 176.666C230.542 174.276 230.993 171.398 231.762 169.542C232.644 167.413 234.303 165.621 235.756 163.779C237.492 161.58 241.025 162.578 241.332 165.363C241.335 165.39 241.338 165.417 241.341 165.443C241.126 165.565 240.915 165.694 240.709 165.83C239.537 166.606 239.943 168.424 241.333 168.637L241.364 168.642C241.287 169.416 238.541 171.854 238.347 172.608C240.204 179.781 238.814 180.727 233.101 180.848L232.801 181.275C233.342 182.832 233.778 184.426 234.105 186.04C234.413 187.539 234.627 189.055 234.748 190.576C234.897 192.496 234.885 194.426 234.724 196.342L234.734 196.274C235.144 194.163 236.289 192.191 237.953 190.824C240.431 188.787 243.934 188.036 246.608 186.398C247.895 185.61 249.545 186.627 249.321 188.12L249.31 188.192C248.912 188.353 248.523 188.541 248.148 188.752C247.932 188.873 247.722 189.003 247.516 189.139C246.343 189.915 246.75 191.733 248.14 191.946L248.171 191.951C248.194 191.954 248.214 191.957 248.236 191.96C247.554 193.583 241.05 195.871 239.859 197.17C238.701 203.435 239.27 203.248 233.939 201.426H233.936C233.354 203.964 232.503 206.445 231.41 208.808L222.377 208.811C222.344 208.711 222.315 208.608 222.286 208.507C223.121 208.559 223.963 208.51 224.785 208.357C224.115 207.535 223.444 206.707 222.774 205.885C222.758 205.868 222.745 205.852 222.732 205.836L222.722 205.823L221.792 202.762C221.865 202.083 221.985 201.409 222.147 200.747L222.147 200.746V200.746V200.747Z" fill="#F2F2F2"/>
<path d="M126.691 208.738L46.7607 208.766C42.7451 208.767 39.1482 206.692 37.1392 203.215C36.1346 201.477 35.6322 199.569 35.6315 197.662C35.6309 195.754 36.1322 193.846 37.1354 192.107L77.0753 119.399C79.0821 115.92 82.6776 113.843 86.6931 113.842C90.7087 113.84 94.3056 115.915 96.3149 119.392L136.31 192.082C137.312 193.816 137.813 195.721 137.813 197.628C137.813 199.534 137.312 201.442 136.309 203.181C134.302 206.659 130.707 208.737 126.691 208.738H126.691H126.691ZM36.6363 197.66C36.6361 199.397 45.4562 195.655 46.37 197.237C48.1977 200.4 43.107 207.764 46.7603 207.763C46.7603 207.763 133.615 205.844 135.441 202.68C136.353 201.098 136.809 199.362 136.809 197.627C136.808 195.891 136.351 194.156 135.437 192.575L95.4415 119.885C93.6189 116.731 90.3468 114.843 86.6935 114.844C83.0419 114.846 36.6364 195.924 36.6363 197.66H36.6363Z" fill="#3F3D56"/>
<path d="M127.579 207.735C126.577 209.74 173.502 209.124 174.057 209.124C174.057 209.124 187.246 208.832 187.523 208.352C187.662 208.112 187.731 207.848 187.731 207.585C187.731 207.321 187.661 207.058 187.523 206.817L181.449 195.779C181.172 195.3 180.676 195.013 180.121 195.014C180.098 195.014 180.064 195.034 180.02 195.073C171.918 202.314 161.933 207.1 151.068 207.262C139.515 207.433 127.643 207.607 127.579 207.735H127.579Z" fill="#3F3D56"/>
<path d="M0.5 209.069C0.500115 209.4 0.765892 209.666 1.09674 209.665L262.904 209.575C263.235 209.575 263.5 209.309 263.5 208.978C263.5 208.647 263.234 208.382 262.903 208.382L1.09633 208.472C0.765481 208.473 0.499885 208.738 0.5 209.069H0.5Z" fill="#CCCCCC"/>
<path d="M202.951 206.174L198.417 206.175L196.254 188.688L202.946 188.687L202.951 206.174Z" fill="#A0616A"/>
<path d="M187.417 206.077C187.276 206.315 187.202 207.082 187.202 207.359C187.202 208.208 187.892 208.897 188.741 208.897L202.782 208.892C203.362 208.892 203.832 208.422 203.832 207.842L203.831 207.257C203.831 207.257 204.525 205.5 203.095 203.335C203.095 203.335 201.318 205.031 198.661 202.377L197.878 200.958L192.21 205.106L189.068 205.494C188.38 205.579 187.771 205.481 187.417 206.077H187.417Z" fill="#2F2E41"/>
<path d="M185.567 191.217L181.272 192.67L173.622 176.797L179.961 174.652L185.567 191.217Z" fill="#A0616A"/>
<path d="M170.82 196.1C170.763 196.37 170.938 197.121 171.027 197.383C171.299 198.188 172.173 198.62 172.978 198.347L186.277 193.846C186.826 193.66 187.121 193.064 186.935 192.515L186.748 191.961C186.748 191.961 186.842 190.074 184.793 188.481C184.793 188.481 183.654 190.657 180.286 188.993L179.09 187.9L175.049 193.645L172.197 195.019C171.573 195.319 170.964 195.422 170.82 196.1L170.82 196.1Z" fill="#2F2E41"/>
<path d="M178.563 89.7723L169.769 118.896L159.388 145.093L175.824 182.505L181.918 179.794L174.626 145.427L189.918 122.106L197.054 194.906L203.149 194.566L211.415 106.692L212.593 87.5596L178.563 89.7723Z" fill="#2F2E41"/>
<path d="M205.122 25.2568L192.256 27.6316L191.242 33.3884L183.455 37.1159L179.406 79.4443C179.406 79.4443 172.637 88.2507 178.056 90.9577L212.593 87.5596C212.593 87.5596 214.284 81.2987 212.591 80.7047C210.898 80.1107 210.893 65.1556 210.893 65.1556L218.67 34.3948L207.156 30.3354L205.122 25.2568Z" fill="#E6E6E6"/>
<path d="M197.533 25.1454C203.271 25.1454 207.923 20.4936 207.923 14.7553C207.923 9.01703 203.271 4.36523 197.533 4.36523C191.795 4.36523 187.143 9.01703 187.143 14.7553C187.143 20.4936 191.795 25.1454 197.533 25.1454Z" fill="#A0616A"/>
<path d="M204.414 16.2973C203.585 16.7512 204.371 18.9183 203.853 19.1057C203.254 19.3222 201.07 16.8364 201.043 14.052C201.035 13.2093 201.229 12.8047 201.042 11.8055C200.798 10.4986 200.05 8.95704 199.356 8.99796C198.946 9.02222 198.544 9.60311 198.514 10.1215C198.472 10.848 199.178 11.134 199.077 11.5254C198.883 12.2708 195.919 12.7855 194.864 11.5268C194.037 10.5401 194.672 8.80761 194.302 8.7189C194.029 8.65351 193.737 9.60735 192.618 10.6852C192.196 11.0912 191.569 11.6952 191.214 11.5281C190.7 11.2867 191.073 9.58506 190.932 9.5625C190.815 9.54382 190.742 10.7398 190.091 11.8093C189.254 13.1833 187.527 14.2423 186.722 13.7762C186.228 13.4905 186.189 12.6954 186.159 12.0915C186.097 10.8192 184.248 7.89264 184.726 6.53159C185.7 3.76143 187.368 5.71413 188.122 4.78966C189.144 3.53815 190.06 4.21103 191.772 2.82271C193.445 1.46646 193.46 0.103312 194.58 0.0136054C195.588 -0.0671789 195.947 1.00876 197.107 0.855168C198.09 0.725054 198.304 -0.109451 199.073 0.0120465C199.776 0.123278 199.823 0.858432 200.758 1.13472C201.355 1.3111 201.486 1.0558 202.162 1.13423C203.568 1.29742 204.513 2.5783 204.69 2.81823C205.372 3.7432 205.107 4.13326 205.814 5.06434C206.423 5.86727 207.773 5.52631 208.281 5.92733C209.94 7.23769 210.653 9.65424 210.667 12.4085C210.677 14.335 210.426 15.3083 209.865 17.7398C209.44 19.5862 207.468 21.9722 206.382 23.0362C206.09 23.3218 205.272 24.1224 204.697 23.8792C204.152 23.6487 204.136 22.6122 204.135 22.4753C204.132 22.0046 204.258 21.4222 205.257 19.9476C206.307 18.3987 206.724 18.2219 206.661 17.7006C206.548 16.7792 205.074 15.9356 204.414 16.2973H204.414Z" fill="#2F2E41"/>
<path d="M168.171 113.165C167.848 115.874 168.983 118.236 170.706 118.442C172.43 118.647 174.089 116.619 174.412 113.911C174.554 112.725 174.416 111.606 174.071 110.705L175.298 99.2126L169.892 98.752L169.257 110.13C168.71 110.925 168.313 111.98 168.171 113.165H168.171H168.171Z" fill="#A0616A"/>
<path d="M183.709 36.8418C183.709 36.8418 180.908 36.8816 179.054 40.503C178.069 42.4273 172.797 78.4127 172.797 78.4127L167.941 107.891L176.213 107.933L182.659 80.016L188.081 63.8246L183.709 36.8418L183.709 36.8418Z" fill="#E6E6E6"/>
<path d="M206.987 108.84C206.195 111.45 206.899 113.975 208.56 114.479C210.221 114.983 212.209 113.276 213.001 110.666C213.348 109.523 213.408 108.397 213.227 107.45L216.444 96.3492L211.203 94.9502L208.587 106.042C207.91 106.729 207.334 107.698 206.987 108.84V108.84Z" fill="#A0616A"/>
<path d="M212.745 34.9048C212.745 34.9048 216.807 31.8558 220.195 36.5953C223.582 41.3347 224.95 80.2751 224.95 80.2751L215.477 104.32L208.366 101.952L215.128 72.4903L203.269 50.1458L212.745 34.9048H212.745Z" fill="#E6E6E6"/>
<path d="M110.017 192.703C130.226 192.703 146.609 176.32 146.609 156.11C146.609 135.901 130.226 119.518 110.017 119.518C89.8072 119.518 73.4242 135.901 73.4242 156.11C73.4242 176.32 89.8072 192.703 110.017 192.703Z" fill="#CC0000"/>
<path d="M110.023 178.542C111.879 178.542 113.383 177.038 113.383 175.182C113.383 173.327 111.879 171.822 110.023 171.822C108.168 171.822 106.664 173.327 106.664 175.182C106.664 177.038 108.168 178.542 110.023 178.542Z" fill="white"/>
<path d="M110.009 133.678C109.7 135.729 110.253 136.158 110.256 144.999C110.259 153.841 112.094 165.694 110.02 165.695C107.946 165.696 107.188 141.232 99.9863 139.067C91.5194 136.521 111.008 127.039 110.009 133.678Z" fill="white"/>
<path d="M60.9043 174.793L57.5982 181.779C61.595 178.913 67.8377 176.442 72.8055 175.119C68.1768 172.883 62.5129 169.278 59.1292 165.709L61.0307 173.09C38.7373 168.549 22.7281 151.447 22.7214 131.856L21.9161 131.579C21.9232 152.042 37.7109 170.157 60.9043 174.793V174.793Z" fill="#3F3D56"/>
</g>
<defs>
<clipPath id="clip0_3150_31487">
<rect width="263" height="209.666" fill="white" transform="translate(0.5)"/>
</clipPath>
</defs>
</svg>
