<svg width="145" height="150" viewBox="0 0 145 150" fill="none" xmlns="http://www.w3.org/2000/svg">
<path d="M136.616 140.057C136.616 145.715 106.034 150.303 68.308 150.303C30.5821 150.303 0 145.715 0 140.057C0 136.051 15.3296 132.58 37.6707 130.897C46.8835 130.201 57.2928 129.811 68.308 129.811C72.8361 129.811 77.2607 129.877 81.5399 130.002C112.933 130.928 136.616 135.077 136.616 140.057Z" fill="#3F3D56"/>
<path opacity="0.1" d="M59.4939 142.15C73.9756 142.15 85.7154 140.719 85.7154 138.955C85.7154 137.19 73.9756 135.76 59.4939 135.76C45.0122 135.76 33.2725 137.19 33.2725 138.955C33.2725 140.719 45.0122 142.15 59.4939 142.15Z" fill="black"/>
<path d="M59.3839 141.268C73.0746 141.268 84.1731 129.43 84.1731 114.827C84.1731 100.223 73.0746 88.3848 59.3839 88.3848C45.6932 88.3848 34.5947 100.223 34.5947 114.827C34.5947 129.43 45.6932 141.268 59.3839 141.268Z" fill="#3F3D56"/>
<path d="M67.2061 130.473H51.7817V144.575H67.2061V130.473Z" fill="#6C63FF"/>
<path d="M87.3682 133.887L86.4868 138.734L92.2159 139.616L95.9618 137.412L95.7414 133.887H87.3682Z" fill="#575A89"/>
<path d="M58.5023 42.8818C58.5023 42.8818 58.0616 47.9498 56.9598 48.1702C55.8581 48.3905 59.3837 57.2045 59.3837 57.2045H64.672L68.8587 56.1027L66.8755 51.2551C66.8755 51.2551 64.2313 47.7295 66.2145 44.865C68.1976 42.0004 58.5023 42.8818 58.5023 42.8818Z" fill="#A0616A"/>
<path opacity="0.1" d="M58.5023 42.8818C58.5023 42.8818 58.0616 47.9498 56.9598 48.1702C55.8581 48.3905 59.3837 57.2045 59.3837 57.2045H64.672L68.8587 56.1027L66.8755 51.2551C66.8755 51.2551 64.2313 47.7295 66.2145 44.865C68.1976 42.0004 58.5023 42.8818 58.5023 42.8818Z" fill="black"/>
<path d="M47.4851 81.6626C47.4851 81.6626 41.7561 92.6801 46.3834 94.8835C51.0107 97.087 52.1124 96.8667 52.1124 97.5277C52.1124 98.1888 51.231 97.9684 51.6717 99.0702C52.1124 100.172 50.7903 104.579 52.1124 107.223C53.4345 109.867 52.9938 111.85 52.9938 111.85C52.9938 111.85 52.9938 112.071 53.4345 112.952C53.8752 113.834 54.0956 114.495 53.8752 114.935C53.6549 115.376 52.3328 118.24 53.6549 118.902C54.977 119.563 61.8078 120.003 62.4688 118.902C63.1299 117.8 61.8078 117.139 62.4688 116.478C63.1299 115.817 63.5705 115.596 63.1299 115.156C62.6892 114.715 62.2485 109.206 62.2485 109.206C62.2485 109.206 63.3502 102.816 62.9095 101.935C62.4688 101.053 61.8078 100.172 62.2485 99.5109C62.6892 98.8498 63.1299 99.0702 63.3502 98.1888C63.5705 97.3074 64.0112 95.3242 64.0112 95.3242L66.4351 95.1039L72.1641 96.2056C72.1641 96.2056 78.5542 103.257 85.6054 105.46C85.6054 105.46 87.5885 107.443 88.2496 107.443C88.9106 107.443 88.9106 107.443 88.6903 107.884C88.4699 108.325 87.8089 108.325 88.2496 108.765C88.6903 109.206 89.3513 108.545 88.9106 109.206C88.4699 109.867 88.0292 109.867 88.4699 110.308C88.9106 110.749 88.2496 113.172 88.2496 113.393C88.2496 113.613 86.2664 134.326 86.9275 134.767C87.5885 135.207 96.8432 136.529 97.5042 134.767C98.1652 133.004 97.0635 130.8 97.0635 130.8C97.0635 130.8 100.369 104.359 99.4873 102.596C98.6059 100.833 95.5211 92.9004 78.9949 87.8324C78.9949 87.8324 74.3676 86.951 74.3676 86.29C74.3676 85.6289 73.9269 81.4423 73.0455 81.2219C72.1641 81.0016 67.0961 80.7812 67.0961 80.7812L60.706 82.7644L51.8921 81.2219L47.4851 81.6626Z" fill="#2F2E41"/>
<path d="M55.1972 118.683L54.0955 122.649C54.0955 122.649 53.2141 129.039 54.3158 130.581C55.1812 131.793 56.7264 133.276 59.592 133.537C60.3951 133.61 61.1993 133.408 61.8715 132.962C62.5438 132.517 63.0439 131.855 63.2891 131.087C63.322 130.995 63.3425 130.899 63.3501 130.802C63.3501 130.361 62.6891 125.073 62.6891 125.073L61.5874 119.564L61.367 118.021L55.1972 118.683Z" fill="#2F2E41"/>
<path d="M87.3682 137.633C87.3682 137.633 86.2664 136.531 86.0461 137.633C85.8257 138.735 84.9443 143.362 86.4868 143.582C88.0292 143.803 102.793 146.006 104.335 145.125C105.877 144.243 108.742 142.921 106.979 142.26C105.216 141.599 100.148 139.616 100.148 139.616C100.148 139.616 97.2838 135.87 96.8431 135.65C96.4024 135.43 93.9786 135.87 92.8769 136.752C91.7751 137.633 87.3682 137.633 87.3682 137.633Z" fill="#2F2E41"/>
<path d="M63.7908 47.5093C67.5633 47.5093 70.6216 44.451 70.6216 40.6785C70.6216 36.9059 67.5633 33.8477 63.7908 33.8477C60.0182 33.8477 56.96 36.9059 56.96 40.6785C56.96 44.451 60.0182 47.5093 63.7908 47.5093Z" fill="#A0616A"/>
<path d="M63.1297 56.1028L60.4855 53.2382L57.5546 47.5092C57.5546 47.5092 55.4175 46.8481 54.9768 47.9499C54.5361 49.0516 46.6036 52.5772 46.6036 52.5772C46.6036 52.5772 48.5867 71.0864 47.7053 72.8492C46.8239 74.612 45.2815 81.6632 46.6036 82.3242C47.9257 82.9853 54.0954 82.3242 56.0786 83.2056C58.0617 84.087 63.7908 84.087 65.3332 82.9853C66.8756 81.8835 67.3163 81.0021 68.8588 81.6632C70.1719 82.2259 73.2416 62.9862 74.1254 57.2528C74.1999 56.7712 74.1381 56.2784 73.9469 55.8302C73.7558 55.382 73.443 54.9962 73.044 54.7166C71.0668 53.3298 67.506 50.9399 66.8756 51.2551C65.9942 51.6958 63.1297 56.1028 63.1297 56.1028Z" fill="#575A89"/>
<path d="M72.6047 55.2227C73.1221 55.352 73.5876 55.6366 73.9385 56.0382C74.2895 56.4398 74.5092 56.9392 74.5681 57.4693L76.3506 73.5116C76.3506 73.5116 71.9436 82.9865 69.7401 76.5964C67.5367 70.2063 72.6047 55.2227 72.6047 55.2227Z" fill="#575A89"/>
<path d="M72.1641 75.0526L77.0118 73.7305C77.0118 73.7305 77.8932 79.9002 78.7746 79.9002C79.656 79.9002 75.6897 83.4258 73.7065 82.9851C71.7234 82.5444 68.8589 81.002 68.6385 79.9002C68.4182 78.7985 70.6217 74.1712 70.6217 74.1712L72.1641 75.0526Z" fill="#575A89"/>
<path d="M58.6341 43.627C59.0986 42.6028 59.0179 41.4082 59.4019 40.3512C59.6075 39.7852 59.9412 39.2744 60.3769 38.8588C60.8126 38.4431 61.3385 38.1338 61.9135 37.955C62.4885 37.7762 63.0971 37.7328 63.6917 37.8281C64.2862 37.9234 64.8507 38.1549 65.341 38.5045C65.835 38.8567 66.3302 39.3516 66.9332 39.2843C67.5825 39.2119 68.1616 38.4875 68.7586 38.753C69.4202 39.0473 69.2415 40.233 69.9119 40.5069C70.2647 40.6511 70.6817 40.4291 70.8852 40.1068C71.0631 39.7682 71.1601 39.3928 71.1685 39.0103C71.261 38.0705 71.3446 37.0759 70.937 36.2241C70.7656 35.9353 70.6162 35.6341 70.4901 35.3228C70.4188 35.0322 70.3901 34.7327 70.4051 34.4339C70.4014 33.3292 70.3207 32.177 69.7648 31.2225C69.148 30.1632 68.0077 29.4859 66.8181 29.1904C65.6284 28.8948 64.3821 28.9401 63.1607 29.0435C61.1416 29.2145 59.0359 29.5809 57.4452 30.8361C57.229 30.994 57.0429 31.1895 56.8958 31.4133C56.7561 31.6791 56.6575 31.9645 56.6031 32.2597C56.2592 33.6603 55.7435 35.013 55.0678 36.2871C54.7428 36.8272 54.4772 37.4009 54.2756 37.9982C54.1069 38.6051 54.1183 39.2968 54.4714 39.8184C54.7589 40.2432 55.2185 40.4695 55.5796 40.8167C55.9374 41.1608 56.1049 41.8225 56.5012 42.083C56.8473 42.3104 57.2617 42.1499 57.6146 42.3909C58.0677 42.7004 58.1005 43.379 58.6341 43.627Z" fill="#2F2E41"/>
<path d="M64.2314 59.408L64.8925 58.0859C64.8925 58.0859 74.5878 60.9505 76.571 63.5946C76.571 63.5946 81.4186 60.5098 84.0628 60.9505L86.707 61.3912L78.5541 68.6627L68.1977 67.7813L64.2314 59.408Z" fill="#F2F2F2"/>
<path d="M63.7906 58.0859L54.7563 70.6458L67.7569 77.0359C67.7569 77.0359 68.9723 77.6969 69.907 77.0359L78.554 73.0696L86.7069 61.3912L78.554 65.5778C78.554 65.5778 77.6726 63.815 75.9098 64.6964L63.7906 58.0859Z" fill="#6C63FF"/>
<path d="M77.6725 80.342L79.4353 75.7147C79.4353 75.7147 83.4016 70.6467 81.1981 68.2229C78.9946 65.7991 76.5708 75.274 76.5708 75.274L77.6725 80.342Z" fill="#A0616A"/>
<path d="M57.334 79.604L61.1804 76.4856C61.1804 76.4856 67.1541 74.0915 66.4641 70.8893C65.774 67.6871 58.9236 74.6672 58.9236 74.6672L57.334 79.604Z" fill="#A0616A"/>
<path opacity="0.1" d="M47.8153 57.3151H47.5949C47.5949 57.3151 44.1795 53.2386 43.5185 58.7473C42.8574 64.256 40.6539 82.5449 46.383 83.206C52.112 83.867 56.1885 80.4516 56.1885 80.4516C56.1885 80.4516 60.3751 74.0615 58.8327 74.0615C58.0864 74.0615 56.0566 73.7264 54.2054 73.8412C52.2304 73.9637 50.4559 74.52 50.5696 73.9514C50.79 72.8496 53.985 58.8575 47.8153 57.3151Z" fill="black"/>
<path d="M47.4849 53.0188L46.6035 52.5781C46.6035 52.5781 43.0779 53.2392 42.4169 58.7479C41.7559 64.2566 39.5524 82.5455 45.2814 83.2065C51.0105 83.8676 58.7227 82.3252 58.7227 82.3252C58.7227 82.3252 60.2651 73.9519 58.7227 73.9519C57.1802 73.9519 49.2477 75.0537 49.468 73.9519C49.6884 72.8502 53.6547 54.5613 47.4849 53.0188Z" fill="#575A89"/>
<path d="M74.4775 77.8081L76.9073 74.084L78.4438 80.2319L74.4775 81.9947V77.8081Z" fill="#575A89"/>
<path d="M24.5627 24.7035C27.8485 24.7035 30.5121 22.0399 30.5121 18.7541C30.5121 15.4683 27.8485 12.8047 24.5627 12.8047C21.2769 12.8047 18.6133 15.4683 18.6133 18.7541C18.6133 22.0399 21.2769 24.7035 24.5627 24.7035Z" fill="#F2F2F2"/>
<path d="M31.614 63.0449H17.5117V77.1472H31.614V63.0449Z" fill="#F2F2F2"/>
<path d="M81.9697 0L85.5391 6.18231L89.1083 12.3646H81.9697H74.8311L78.4003 6.18231L81.9697 0Z" fill="#F2F2F2"/>
<path d="M144.16 37.0676C144.075 39.7052 143.432 41.8194 142.233 43.41C141.033 45.0008 139.608 45.7963 137.958 45.7964C136.614 45.7964 135.435 45.018 134.423 43.461C133.41 41.9042 132.904 39.5093 132.904 36.2764C132.904 35.5618 132.921 34.8811 132.955 34.2345C132.989 33.5881 133.032 32.9755 133.083 32.3969L133.976 23.9999H128.08C127.06 34.6174 126.222 40.9343 125.567 42.9506C124.911 44.9669 123.801 45.975 122.236 45.9751C121.529 45.9577 120.855 45.6753 120.347 45.1839C120.053 44.9229 119.82 44.5998 119.665 44.2379C119.511 43.8759 119.438 43.4842 119.454 43.091C119.454 42.3086 120.071 41.2154 121.304 39.8113C122.538 38.4075 123.223 37.1271 123.359 35.9701L124.89 23.9999H122.414C121.717 24.004 121.03 24.1746 120.411 24.4975C119.841 24.7591 119.346 25.1582 118.969 25.6588L117.871 27.2923H116.978C117.812 24.7061 118.837 22.7621 120.054 21.4603C121.27 20.1586 122.669 19.5078 124.252 19.5078H143.752V23.9999H137.167C136.962 26.0417 136.805 28.0835 136.695 30.1253C136.584 32.1672 136.528 34.2175 136.529 36.2764C136.529 37.6718 136.852 38.8033 137.499 39.6709C138.145 40.5387 138.953 40.9726 139.923 40.9726C140.519 40.9726 141.144 40.7301 141.799 40.2451C142.11 40.0269 142.371 39.744 142.562 39.4158C142.754 39.0876 142.872 38.7219 142.909 38.3437C142.96 37.9696 142.999 37.6761 143.024 37.4632C143.05 37.2506 143.062 37.1188 143.063 37.0676L144.16 37.0676Z" fill="#6C63FF"/>
<path opacity="0.1" d="M144.16 37.0676C144.075 39.7052 143.432 41.8194 142.233 43.41C141.033 45.0008 139.608 45.7963 137.958 45.7964C136.614 45.7964 135.435 45.018 134.423 43.461C133.41 41.9042 132.904 39.5093 132.904 36.2764C132.904 35.5618 132.921 34.8811 132.955 34.2345C132.989 33.5881 133.032 32.9755 133.083 32.3969L133.976 23.9999H128.08C127.06 34.6174 126.222 40.9343 125.567 42.9506C124.911 44.9669 123.801 45.975 122.236 45.9751C121.529 45.9577 120.855 45.6753 120.347 45.1839C120.053 44.9229 119.82 44.5998 119.665 44.2379C119.511 43.8759 119.438 43.4842 119.454 43.091C119.454 42.3086 120.071 41.2154 121.304 39.8113C122.538 38.4075 123.223 37.1271 123.359 35.9701L124.89 23.9999H122.414C121.717 24.004 121.03 24.1746 120.411 24.4975C119.841 24.7591 119.346 25.1582 118.969 25.6588L117.871 27.2923H116.978C117.812 24.7061 118.837 22.7621 120.054 21.4603C121.27 20.1586 122.669 19.5078 124.252 19.5078H143.752V23.9999H137.167C136.962 26.0417 136.805 28.0835 136.695 30.1253C136.584 32.1672 136.528 34.2175 136.529 36.2764C136.529 37.6718 136.852 38.8033 137.499 39.6709C138.145 40.5387 138.953 40.9726 139.923 40.9726C140.519 40.9726 141.144 40.7301 141.799 40.2451C142.11 40.0269 142.371 39.744 142.562 39.4158C142.754 39.0876 142.872 38.7219 142.909 38.3437C142.96 37.9696 142.999 37.6761 143.024 37.4632C143.05 37.2506 143.062 37.1188 143.063 37.0676L144.16 37.0676Z" fill="black"/>
<path d="M144.16 36.2707C144.075 38.9083 143.432 41.0225 142.233 42.6131C141.033 44.2039 139.608 44.9994 137.958 44.9996C136.614 44.9996 135.435 44.2211 134.423 42.6642C133.41 41.1073 132.904 38.7124 132.904 35.4795C132.904 34.7649 132.921 34.0843 132.955 33.4377C132.989 32.7912 133.032 32.1787 133.083 31.6L133.976 23.203H128.08C127.06 33.8205 126.222 40.1374 125.567 42.1537C124.911 44.17 123.801 45.1782 122.236 45.1782C121.529 45.1609 120.855 44.8784 120.347 44.387C120.053 44.126 119.82 43.8029 119.665 43.441C119.511 43.079 119.438 42.6873 119.454 42.2941C119.454 41.5117 120.071 40.4185 121.304 39.0144C122.538 37.6106 123.223 36.3303 123.359 35.1732L124.89 23.203H122.414C121.717 23.2072 121.03 23.3778 120.411 23.7007C119.841 23.9622 119.346 24.3613 118.969 24.8619L117.871 26.4954H116.978C117.812 23.9092 118.837 21.9652 120.054 20.6634C121.27 19.3618 122.669 18.7109 124.252 18.7109H143.752V23.203H137.167C136.962 25.2448 136.805 27.2866 136.695 29.3285C136.584 31.3703 136.528 33.4206 136.529 35.4795C136.529 36.8749 136.852 38.0064 137.499 38.8741C138.145 39.7419 138.953 40.1757 139.923 40.1757C140.519 40.1757 141.144 39.9332 141.799 39.4483C142.11 39.23 142.371 38.9471 142.562 38.619C142.754 38.2908 142.872 37.9251 142.909 37.5469C142.96 37.1728 142.999 36.8793 143.024 36.6663C143.05 36.4538 143.062 36.3219 143.063 36.2707H144.16Z" fill="#6C63FF"/>
</svg>
