<svg width="159" height="150" viewBox="0 0 159 150" fill="none" xmlns="http://www.w3.org/2000/svg">
<path d="M131.838 122.886L79.0874 94.8605L106.249 25.6172L159 53.6432L131.838 122.886Z" fill="#F2F2F2"/>
<path d="M139.874 82.6593L99.9401 61.4429C99.8649 61.4029 99.8064 61.3298 99.7775 61.2397C99.7486 61.1495 99.7516 61.0497 99.786 60.9621C99.8203 60.8746 99.8831 60.8065 99.9606 60.7729C100.038 60.7393 100.124 60.7428 100.199 60.7828L140.133 81.9992C140.208 82.0392 140.266 82.1123 140.295 82.2024C140.324 82.2926 140.321 82.3924 140.287 82.4799C140.253 82.5675 140.19 82.6355 140.112 82.6692C140.035 82.7028 139.949 82.6993 139.874 82.6593Z" fill="white"/>
<path d="M142.094 76.9991L102.16 55.7827C102.123 55.7629 102.09 55.7348 102.062 55.6999C102.034 55.6651 102.012 55.6241 101.998 55.5795C101.983 55.5349 101.977 55.4874 101.978 55.4398C101.98 55.3921 101.989 55.3453 102.006 55.302C102.023 55.2586 102.047 55.2196 102.077 55.1871C102.107 55.1547 102.142 55.1294 102.181 55.1127C102.219 55.0961 102.26 55.0884 102.301 55.0901C102.342 55.0918 102.382 55.1028 102.419 55.1226L142.353 76.339C142.39 76.3588 142.424 76.3869 142.452 76.4218C142.48 76.4567 142.501 76.4976 142.516 76.5423C142.53 76.5869 142.537 76.6344 142.535 76.682C142.534 76.7296 142.524 76.7764 142.507 76.8198C142.49 76.8631 142.466 76.9021 142.436 76.9346C142.406 76.9671 142.371 76.9924 142.332 77.009C142.294 77.0257 142.253 77.0334 142.212 77.0317C142.171 77.03 142.131 77.0189 142.094 76.9991Z" fill="white"/>
<path d="M144.315 71.337L104.381 50.1206C104.344 50.1008 104.31 50.0727 104.282 50.0378C104.254 50.003 104.233 49.962 104.218 49.9174C104.204 49.8728 104.197 49.8253 104.199 49.7777C104.2 49.73 104.21 49.6832 104.227 49.6399C104.244 49.5965 104.268 49.5575 104.298 49.525C104.328 49.4926 104.363 49.4673 104.402 49.4506C104.44 49.434 104.481 49.4263 104.522 49.428C104.562 49.4297 104.603 49.4407 104.64 49.4605L144.574 70.6769C144.649 70.717 144.707 70.7901 144.736 70.8802C144.765 70.9703 144.762 71.0699 144.727 71.1574C144.693 71.2448 144.63 71.3128 144.553 71.3465C144.476 71.3802 144.39 71.3768 144.315 71.337Z" fill="white"/>
<path d="M146.535 65.6769L106.602 44.4605C106.564 44.4407 106.531 44.4125 106.503 44.3777C106.475 44.3428 106.453 44.3019 106.439 44.2572C106.425 44.2126 106.418 44.1651 106.42 44.1175C106.421 44.0699 106.431 44.0231 106.448 43.9797C106.465 43.9364 106.489 43.8974 106.519 43.8649C106.549 43.8324 106.584 43.8071 106.622 43.7905C106.661 43.7738 106.701 43.7661 106.742 43.7678C106.783 43.7695 106.823 43.7806 106.861 43.8003L146.794 65.0168C146.832 65.0366 146.865 65.0647 146.893 65.0996C146.921 65.1344 146.943 65.1754 146.957 65.22C146.971 65.2646 146.978 65.3121 146.976 65.3597C146.975 65.4073 146.965 65.4542 146.948 65.4975C146.931 65.5408 146.907 65.5799 146.877 65.6123C146.847 65.6448 146.812 65.6701 146.774 65.6868C146.736 65.7034 146.695 65.7111 146.654 65.7094C146.613 65.7077 146.573 65.6967 146.535 65.6769Z" fill="white"/>
<path d="M137.867 87.7745L97.9333 66.5581C97.896 66.5383 97.8625 66.5102 97.8346 66.4753C97.8067 66.4405 97.785 66.3995 97.7706 66.3549C97.7563 66.3103 97.7497 66.2628 97.7512 66.2152C97.7526 66.1675 97.7621 66.1207 97.7791 66.0774C97.7961 66.034 97.8203 65.995 97.8503 65.9625C97.8802 65.9301 97.9154 65.9048 97.9538 65.8881C97.9921 65.8715 98.0329 65.8638 98.0738 65.8655C98.1147 65.8672 98.155 65.8782 98.1922 65.898L138.126 87.1144C138.201 87.1544 138.26 87.2275 138.289 87.3176C138.317 87.4078 138.314 87.5076 138.28 87.5952C138.246 87.6827 138.183 87.7508 138.105 87.7844C138.028 87.8181 137.942 87.8145 137.867 87.7745V87.7745Z" fill="white"/>
<path d="M144.535 57.3734L113.342 40.8007C113.167 40.7127 113.025 40.5527 112.944 40.3511C112.863 40.1496 112.849 39.9205 112.904 39.7074C112.937 39.5916 112.991 39.4853 113.063 39.3953C113.134 39.3054 113.22 39.2338 113.317 39.1852C113.413 39.1366 113.517 39.1121 113.622 39.1133C113.727 39.1145 113.831 39.1413 113.926 39.1921L145.11 55.7598C145.289 55.8482 145.433 56.0105 145.515 56.2153C145.597 56.4202 145.611 56.6532 145.554 56.8693C145.52 56.9837 145.465 57.0883 145.394 57.1767C145.323 57.2651 145.236 57.3352 145.14 57.3826C145.044 57.43 144.941 57.4537 144.837 57.4521C144.733 57.4505 144.63 57.4237 144.535 57.3734Z" fill="white"/>
<path d="M24.5112 53.6432L77.2619 25.6172L104.424 94.8605L51.6733 122.886L24.5112 53.6432Z" fill="#F2F2F2"/>
<path d="M43.638 82.6593L83.5717 61.4429C83.609 61.4231 83.6425 61.395 83.6704 61.3601C83.6983 61.3252 83.72 61.2843 83.7343 61.2397C83.7486 61.195 83.7552 61.1475 83.7538 61.0999C83.7523 61.0523 83.7428 61.0055 83.7258 60.9622C83.7088 60.9188 83.6847 60.8798 83.6547 60.8473C83.6247 60.8148 83.5896 60.7895 83.5512 60.7729C83.5129 60.7562 83.4721 60.7485 83.4311 60.7502C83.3902 60.7519 83.35 60.763 83.3128 60.7828L43.3791 81.9992C43.3418 82.019 43.3083 82.0471 43.2804 82.082C43.2525 82.1168 43.2308 82.1578 43.2164 82.2024C43.2021 82.247 43.1955 82.2945 43.197 82.3422C43.1984 82.3898 43.2079 82.4366 43.2249 82.4799C43.2419 82.5233 43.2661 82.5623 43.2961 82.5948C43.326 82.6272 43.3612 82.6525 43.3996 82.6692C43.4379 82.6858 43.4787 82.6935 43.5196 82.6918C43.5605 82.6901 43.6008 82.6791 43.638 82.6593Z" fill="white"/>
<path d="M41.4173 76.9991L81.351 55.7827C81.4262 55.7428 81.4847 55.6697 81.5136 55.5795C81.5425 55.4893 81.5395 55.3895 81.5051 55.302C81.4708 55.2145 81.408 55.1464 81.3305 55.1127C81.2531 55.0791 81.1673 55.0826 81.0921 55.1226L41.1584 76.339C41.1211 76.3588 41.0876 76.387 41.0597 76.4218C41.0318 76.4567 41.0101 76.4976 40.9957 76.5423C40.9814 76.5869 40.9748 76.6344 40.9763 76.682C40.9777 76.7296 40.9872 76.7764 41.0042 76.8198C41.0212 76.8631 41.0454 76.9021 41.0754 76.9346C41.1053 76.9671 41.1405 76.9924 41.1788 77.009C41.2172 77.0257 41.258 77.0334 41.2989 77.0317C41.3398 77.03 41.3801 77.0189 41.4173 76.9991H41.4173Z" fill="white"/>
<path d="M39.1968 71.337L79.1305 50.1206C79.2057 50.0807 79.2642 50.0076 79.2931 49.9174C79.322 49.8272 79.319 49.7274 79.2846 49.6399C79.2503 49.5523 79.1875 49.4843 79.11 49.4506C79.0325 49.417 78.9467 49.4205 78.8715 49.4605L38.9378 70.6769C38.8627 70.717 38.8043 70.7901 38.7755 70.8802C38.7466 70.9703 38.7497 71.07 38.784 71.1575C38.8183 71.245 38.8811 71.313 38.9585 71.3467C39.0359 71.3804 39.1216 71.3769 39.1968 71.337Z" fill="white"/>
<path d="M36.9759 65.6769L76.9096 44.4605C76.9468 44.4407 76.9804 44.4125 77.0083 44.3777C77.0362 44.3428 77.0579 44.3019 77.0722 44.2572C77.0865 44.2126 77.0932 44.1651 77.0917 44.1175C77.0902 44.0699 77.0807 44.0231 77.0637 43.9797C77.0467 43.9364 77.0226 43.8974 76.9926 43.8649C76.9626 43.8324 76.9275 43.8071 76.8891 43.7905C76.8508 43.7738 76.81 43.7661 76.769 43.7678C76.7281 43.7695 76.6879 43.7806 76.6507 43.8003L36.717 65.0168C36.6417 65.0567 36.5832 65.1298 36.5543 65.22C36.5254 65.3101 36.5285 65.41 36.5628 65.4975C36.5972 65.585 36.66 65.6531 36.7374 65.6868C36.8149 65.7204 36.9007 65.7168 36.9759 65.6769H36.9759Z" fill="white"/>
<path d="M45.6449 87.7745L85.5785 66.5581C85.6538 66.5182 85.7123 66.445 85.7412 66.3549C85.7701 66.2647 85.767 66.1649 85.7327 66.0774C85.6983 65.9898 85.6355 65.9218 85.5581 65.8881C85.4806 65.8545 85.3948 65.858 85.3196 65.898L45.3859 87.1144C45.3487 87.1342 45.3151 87.1623 45.2872 87.1972C45.2593 87.2321 45.2376 87.273 45.2233 87.3176C45.209 87.3623 45.2024 87.4098 45.2038 87.4574C45.2053 87.505 45.2148 87.5518 45.2318 87.5952C45.2488 87.6385 45.2729 87.6775 45.3029 87.71C45.3329 87.7425 45.368 87.7677 45.4064 87.7844C45.4447 87.8011 45.4855 87.8088 45.5265 87.8071C45.5674 87.8054 45.6076 87.7943 45.6448 87.7745H45.6449Z" fill="white"/>
<path d="M38.976 57.3734L70.1693 40.8007C70.3449 40.7127 70.4865 40.5527 70.5673 40.3511C70.6481 40.1496 70.6625 39.9205 70.6077 39.7074C70.5741 39.5916 70.52 39.4853 70.449 39.3953C70.3779 39.3054 70.2913 39.2338 70.195 39.1852C70.0986 39.1366 69.9946 39.1121 69.8896 39.1133C69.7845 39.1145 69.6809 39.1413 69.5854 39.1921L38.4016 55.7598C38.2229 55.8482 38.0786 56.0105 37.9965 56.2153C37.9144 56.4202 37.9004 56.6532 37.9571 56.8693C37.9917 56.9837 38.0464 57.0883 38.1177 57.1767C38.189 57.2651 38.2753 57.3352 38.3712 57.3826C38.467 57.43 38.5703 57.4537 38.6744 57.4521C38.7786 57.4505 38.8813 57.4237 38.976 57.3734Z" fill="white"/>
<path d="M5.27338 135.404C5.60643 129.4 8.48094 123.308 13.2662 121.031C11.6528 127.299 11.9962 134.029 14.2359 140.03C15.1068 142.34 16.2823 144.805 15.6977 147.235C15.334 148.747 14.3173 149.955 13.1523 150.746C11.9873 151.538 10.6714 151.968 9.37195 152.39L9.12559 152.657C6.75593 147.31 4.94033 141.408 5.27338 135.404Z" fill="#F0F0F0"/>
<path d="M13.3205 121.14C10.6653 125.045 9.13489 129.825 8.94673 134.8C8.88989 135.87 8.97835 136.944 9.20886 137.982C9.46149 138.985 9.94026 139.891 10.5954 140.606C11.1948 141.286 11.8756 141.902 12.3224 142.74C12.5456 143.173 12.6876 143.656 12.7392 144.158C12.7907 144.659 12.7506 145.168 12.6214 145.65C12.3264 146.861 11.6751 147.876 11.0086 148.844C10.2684 149.918 9.48509 151.02 9.21729 152.394C9.18485 152.561 8.96468 152.493 8.99708 152.326C9.463 149.935 11.356 148.464 12.1833 146.282C12.5694 145.263 12.6941 144.103 12.2318 143.089C11.8275 142.201 11.1259 141.566 10.5139 140.883C9.86599 140.197 9.37232 139.336 9.07603 138.377C8.80084 137.355 8.67698 136.287 8.70973 135.218C8.75048 132.809 9.11647 130.422 9.79427 128.145C10.5555 125.541 11.6937 123.109 13.1598 120.952C13.2506 120.818 13.4107 121.007 13.3205 121.14V121.14Z" fill="white"/>
<path d="M8.92595 133.194C8.21299 133.044 7.56907 132.604 7.1092 131.952C6.64933 131.301 6.40344 130.48 6.41546 129.637C6.41622 129.603 6.42841 129.57 6.44948 129.546C6.47054 129.522 6.49883 129.508 6.52838 129.508C6.55793 129.507 6.58643 129.521 6.60788 129.544C6.62933 129.568 6.64205 129.6 6.64336 129.635C6.63093 130.42 6.86004 131.184 7.28934 131.79C7.71863 132.395 8.31984 132.803 8.98445 132.938C9.12884 132.967 9.06952 133.223 8.92595 133.194L8.92595 133.194Z" fill="white"/>
<path d="M10.2524 140.308C11.4768 139.338 12.3422 137.867 12.676 136.188C12.7089 136.021 12.9291 136.089 12.8962 136.256C12.546 138.002 11.6428 139.531 10.3667 140.537C10.245 140.633 10.1313 140.403 10.2524 140.308Z" fill="white"/>
<path d="M10.7791 125.778C11.0446 125.903 11.3326 125.949 11.6172 125.913C11.9018 125.876 12.1742 125.758 12.4098 125.569C12.5304 125.471 12.644 125.701 12.5242 125.798C12.263 126.006 11.962 126.136 11.6477 126.177C11.3333 126.218 11.015 126.169 10.7206 126.034C10.692 126.024 10.6676 126.002 10.6526 125.972C10.6376 125.942 10.633 125.906 10.6398 125.872C10.6476 125.838 10.6667 125.809 10.6928 125.792C10.7189 125.774 10.7499 125.769 10.7791 125.778Z" fill="white"/>
<path d="M28.696 130.648C28.6222 130.712 28.5484 130.775 28.4746 130.841C27.4861 131.699 26.5592 132.649 25.7029 133.682C25.6357 133.761 25.5685 133.842 25.5033 133.922C23.4632 136.436 21.8419 139.369 20.7218 142.572C20.2771 143.847 19.9164 145.16 19.6428 146.498C19.265 148.347 18.9818 150.387 18.1265 151.937C18.0388 152.099 17.9426 152.256 17.8383 152.405L9.42445 152.986C9.40476 152.976 9.38508 152.968 9.3653 152.958L9.03027 153C9.04024 152.929 9.05188 152.857 9.06184 152.787C9.06748 152.746 9.07499 152.705 9.08063 152.664C9.08498 152.637 9.08942 152.61 9.09201 152.585C9.09343 152.576 9.09494 152.567 9.09648 152.56C9.09907 152.535 9.10375 152.512 9.10644 152.49C9.17051 152.084 9.23714 151.678 9.30633 151.272C9.30622 151.27 9.30622 151.27 9.30798 151.268C9.84196 148.175 10.6025 145.107 11.739 142.271C11.7732 142.186 11.8072 142.098 11.8452 142.013C12.3636 140.738 12.9706 139.514 13.6603 138.354C14.0397 137.72 14.4464 137.109 14.8789 136.523C15.9988 135.012 17.316 133.715 18.7823 132.68C21.7055 130.618 25.163 129.666 28.4458 130.576C28.5297 130.599 28.6119 130.623 28.696 130.648Z" fill="#F0F0F0"/>
<path d="M28.6834 130.775C24.543 132.033 20.8484 134.777 18.1244 138.618C17.5253 139.432 17.0404 140.352 16.6873 141.342C16.3702 142.32 16.2839 143.379 16.4373 144.408C16.5637 145.372 16.789 146.34 16.712 147.323C16.6661 147.825 16.5296 148.31 16.3113 148.746C16.0931 149.183 15.798 149.561 15.4454 149.855C14.5834 150.616 13.538 150.97 12.5053 151.275C11.3588 151.614 10.1632 151.945 9.23829 152.855C9.12622 152.965 8.98578 152.757 9.09768 152.646C10.7069 151.063 12.9794 151.215 14.7689 150.053C15.6039 149.51 16.3034 148.671 16.4593 147.537C16.5956 146.545 16.3641 145.547 16.2289 144.572C16.0666 143.57 16.1176 142.537 16.3774 141.564C16.6859 140.556 17.1396 139.616 17.7191 138.785C18.998 136.89 20.5249 135.241 22.244 133.898C24.1987 132.352 26.3661 131.207 28.6525 130.513C28.794 130.47 28.824 130.733 28.6834 130.775Z" fill="white"/>
<path d="M18.9392 137.32C18.4476 136.701 18.1612 135.898 18.1311 135.056C18.101 134.213 18.3292 133.386 18.7749 132.721C18.8655 132.587 19.0489 132.744 18.9581 132.879C18.5421 133.497 18.3296 134.268 18.359 135.052C18.3884 135.836 18.6578 136.583 19.1185 137.156C19.2185 137.281 19.0387 137.444 18.9392 137.32H18.9392Z" fill="white"/>
<path d="M16.3182 143.927C17.7976 144.011 19.2496 143.443 20.3849 142.336C20.4973 142.226 20.6378 142.435 20.5255 142.544C19.3423 143.694 17.8301 144.282 16.2909 144.191C16.1442 144.182 16.1723 143.919 16.3182 143.927Z" fill="white"/>
<path d="M24.2553 132.697C24.4027 132.983 24.6087 133.221 24.8548 133.392C25.101 133.562 25.3797 133.658 25.6658 133.672C25.8125 133.679 25.7842 133.942 25.6384 133.936C25.3224 133.918 25.0147 133.812 24.7424 133.624C24.47 133.437 24.2413 133.175 24.076 132.861C24.0583 132.833 24.0505 132.798 24.0541 132.763C24.0577 132.729 24.0724 132.697 24.0954 132.674C24.1192 132.653 24.1494 132.643 24.1793 132.647C24.2093 132.652 24.2366 132.669 24.2553 132.697Z" fill="white"/>
<path d="M131.003 123.469H52.125V19.9297H131.003V123.469Z" fill="white"/>
<path d="M131.003 123.469H52.125V19.9297H131.003V123.469ZM52.5491 122.976H130.579V20.4232H52.5491L52.5491 122.976Z" fill="#CACACA"/>
<path d="M121.42 68.4089H61.7073C61.6516 68.4089 61.5964 68.3962 61.545 68.3714C61.4935 68.3466 61.4468 68.3102 61.4074 68.2644C61.368 68.2186 61.3368 68.1642 61.3155 68.1043C61.2942 68.0444 61.2832 67.9802 61.2832 67.9154C61.2832 67.8506 61.2942 67.7864 61.3155 67.7265C61.3368 67.6667 61.368 67.6123 61.4074 67.5664C61.4468 67.5206 61.4935 67.4842 61.545 67.4594C61.5964 67.4346 61.6516 67.4219 61.7073 67.4219H121.42C121.533 67.4219 121.64 67.4739 121.72 67.5664C121.799 67.659 121.844 67.7845 121.844 67.9154C121.844 68.0463 121.799 68.1718 121.72 68.2644C121.64 68.3569 121.533 68.4089 121.42 68.4089Z" fill="#E4E4E4"/>
<path d="M121.42 59.9441H61.7073C61.5948 59.9441 61.4869 59.8921 61.4074 59.7995C61.3279 59.707 61.2832 59.5815 61.2832 59.4506C61.2832 59.3197 61.3279 59.1941 61.4074 59.1016C61.4869 59.009 61.5948 58.957 61.7073 58.957H121.42C121.533 58.957 121.64 59.009 121.72 59.1016C121.799 59.1941 121.844 59.3197 121.844 59.4506C121.844 59.5815 121.799 59.707 121.72 59.7995C121.64 59.8921 121.533 59.9441 121.42 59.9441Z" fill="#E4E4E4"/>
<path d="M121.42 51.4793H61.7073C61.6516 51.4793 61.5964 51.4665 61.545 51.4417C61.4935 51.4169 61.4468 51.3805 61.4074 51.3347C61.368 51.2889 61.3368 51.2345 61.3155 51.1746C61.2942 51.1147 61.2832 51.0505 61.2832 50.9857C61.2832 50.9209 61.2942 50.8567 61.3155 50.7969C61.3368 50.737 61.368 50.6826 61.4074 50.6367C61.4468 50.5909 61.4935 50.5546 61.545 50.5298C61.5964 50.505 61.6516 50.4922 61.7073 50.4922H121.42C121.533 50.4922 121.64 50.5442 121.72 50.6367C121.799 50.7293 121.844 50.8548 121.844 50.9857C121.844 51.1166 121.799 51.2421 121.72 51.3347C121.64 51.4273 121.533 51.4793 121.42 51.4793Z" fill="#E4E4E4"/>
<path d="M121.42 43.0144H61.7073C61.5948 43.0144 61.4869 42.9624 61.4074 42.8699C61.3279 42.7773 61.2832 42.6518 61.2832 42.5209C61.2832 42.39 61.3279 42.2645 61.4074 42.1719C61.4869 42.0793 61.5948 42.0273 61.7073 42.0273H121.42C121.533 42.0273 121.64 42.0793 121.72 42.1719C121.799 42.2645 121.844 42.39 121.844 42.5209C121.844 42.6518 121.799 42.7773 121.72 42.8699C121.64 42.9624 121.533 43.0144 121.42 43.0144Z" fill="#E4E4E4"/>
<path d="M121.42 76.0574H61.7073C61.5948 76.0574 61.4869 76.0054 61.4074 75.9128C61.3279 75.8203 61.2832 75.6947 61.2832 75.5638C61.2832 75.433 61.3279 75.3074 61.4074 75.2149C61.4869 75.1223 61.5948 75.0703 61.7073 75.0703H121.42C121.533 75.0703 121.64 75.1223 121.72 75.2149C121.799 75.3074 121.844 75.433 121.844 75.5638C121.844 75.6947 121.799 75.8203 121.72 75.9128C121.64 76.0054 121.533 76.0574 121.42 76.0574Z" fill="#E4E4E4"/>
<path d="M121.42 114.034H61.7073C61.5948 114.034 61.4869 113.982 61.4074 113.889C61.3279 113.797 61.2832 113.671 61.2832 113.54C61.2832 113.41 61.3279 113.284 61.4074 113.191C61.4869 113.099 61.5948 113.047 61.7073 113.047H121.42C121.533 113.047 121.64 113.099 121.72 113.191C121.799 113.284 121.844 113.41 121.844 113.54C121.844 113.671 121.799 113.797 121.72 113.889C121.64 113.982 121.533 114.034 121.42 114.034Z" fill="#E4E4E4"/>
<path d="M107.116 106.111H76.0112C75.8033 106.111 75.604 106.015 75.457 105.843C75.31 105.672 75.2273 105.44 75.2271 105.198V83.9048C75.2273 83.6628 75.31 83.4309 75.457 83.2598C75.604 83.0887 75.8033 82.9925 76.0112 82.9922H107.116C107.324 82.9925 107.523 83.0887 107.67 83.2598C107.817 83.4309 107.9 83.6628 107.9 83.9048V105.198C107.9 105.44 107.817 105.672 107.67 105.843C107.523 106.015 107.324 106.111 107.116 106.111Z" fill="white"/>
<path d="M96.7285 93.9477C96.5702 93.7505 96.3794 93.5923 96.1675 93.4825C95.9556 93.3728 95.7269 93.3137 95.495 93.3089C95.2631 93.3041 95.0327 93.3536 94.8176 93.4544C94.6025 93.5553 94.4069 93.7055 94.2427 93.896L85.489 104.084C85.2577 104.352 84.9445 104.503 84.6178 104.504C84.2911 104.504 83.9775 104.354 83.7456 104.087L82.4491 102.581C82.2888 102.394 82.0985 102.246 81.8891 102.145C81.6796 102.044 81.4551 101.992 81.2284 101.992C81.0017 101.992 80.7772 102.044 80.5677 102.145C80.3583 102.246 80.168 102.394 80.0077 102.581L77.4985 105.504H105.629V105.087L96.7285 93.9477Z" fill="#6C63FF"/>
<path d="M107.116 106.111H76.0112C75.8033 106.111 75.604 106.015 75.457 105.843C75.31 105.672 75.2273 105.44 75.2271 105.198V83.9048C75.2273 83.6628 75.31 83.4309 75.457 83.2598C75.604 83.0887 75.8033 82.9925 76.0112 82.9922H107.116C107.324 82.9925 107.523 83.0887 107.67 83.2598C107.817 83.4309 107.9 83.6628 107.9 83.9048V105.198C107.9 105.44 107.817 105.672 107.67 105.843C107.523 106.015 107.324 106.111 107.116 106.111ZM76.0112 83.6006C75.9419 83.6007 75.8755 83.6328 75.8265 83.6898C75.7775 83.7468 75.7499 83.8241 75.7498 83.9048V105.198C75.7499 105.279 75.7775 105.356 75.8265 105.413C75.8755 105.47 75.9419 105.503 76.0112 105.503H107.116C107.185 105.503 107.252 105.47 107.301 105.413C107.35 105.356 107.377 105.279 107.377 105.198V83.9048C107.377 83.8241 107.35 83.7468 107.301 83.6898C107.252 83.6327 107.185 83.6007 107.116 83.6006L76.0112 83.6006Z" fill="#3F3D56"/>
<path d="M32.1284 102.553C32.2072 102.229 32.2242 101.889 32.178 101.557C32.1319 101.225 32.0237 100.909 31.8612 100.631C31.6986 100.353 31.4857 100.12 31.2374 99.9477C30.989 99.7758 30.7113 99.6693 30.4237 99.6357L28.7939 91.6836L26.2959 94.7814L28.2266 101.858C28.2102 102.424 28.3728 102.977 28.6835 103.413C28.9942 103.849 29.4314 104.137 29.9124 104.222C30.3933 104.308 30.8845 104.185 31.293 103.877C31.7014 103.57 31.9986 103.098 32.1284 102.553Z" fill="#FFB6B6"/>
<path d="M27.7714 99.6669C27.6535 99.6212 27.5452 99.5472 27.4535 99.4496C27.3618 99.352 27.2888 99.233 27.2392 99.1004L23.7835 89.2637C22.9023 86.9053 22.7872 84.2548 23.4596 81.805L25.6738 73.7332C25.7075 73.2991 25.8143 72.8769 25.9883 72.4909C26.1622 72.1049 26.3999 71.7626 26.6876 71.4836C26.9753 71.2045 27.3074 70.9942 27.665 70.8647C28.0226 70.7352 28.3987 70.6889 28.7716 70.7286C29.1446 70.7684 29.5072 70.8932 29.8387 71.0962C30.1701 71.2991 30.4639 71.5761 30.7034 71.9112C30.9428 72.2464 31.1231 72.6332 31.2339 73.0496C31.3448 73.4659 31.3841 73.9036 31.3495 74.3376L28.413 87.3356L30.3798 97.5439C30.4106 97.7524 30.3856 97.9669 30.3082 98.1584C30.2309 98.3498 30.1048 98.509 29.9472 98.6144L28.4894 99.5838C28.333 99.6877 28.1531 99.7336 27.9737 99.7155C27.9049 99.7087 27.837 99.6923 27.7714 99.6669Z" fill="#E4E4E4"/>
<path d="M40.0621 150.068H42.472L43.6186 139.25H40.0615L40.0621 150.068Z" fill="#FFB6B6"/>
<path d="M39.4473 149.153L44.1934 149.152H44.1936C44.9958 149.152 45.7651 149.523 46.3323 150.183C46.8995 150.843 47.2182 151.739 47.2183 152.672V152.787L39.4474 152.787L39.4473 149.153Z" fill="#2F2E41"/>
<path d="M26.4986 150.068H28.9085L30.0551 139.25H26.498L26.4986 150.068Z" fill="#FFB6B6"/>
<path d="M25.8838 149.153L30.63 149.152H30.6302C31.4323 149.152 32.2016 149.523 32.7688 150.183C33.3361 150.843 33.6547 151.739 33.6548 152.672V152.787L25.8839 152.787L25.8838 149.153Z" fill="#2F2E41"/>
<path d="M41.5135 95.5019L27.3802 94.0547C27.3802 94.0547 25.9839 104.424 26.1804 108.542C26.377 112.66 26.5736 119.066 26.5736 119.066L25.001 146.976L31.0949 146.061L31.8812 122.955L34.4367 110.372L37.3854 126.386L39.3511 146.976L44.6587 146.29L42.8895 121.353C42.8895 121.353 44.4622 98.9335 41.5135 95.5019Z" fill="#2F2E41"/>
<path d="M35.8129 65.0768C37.9842 65.0768 39.7445 63.0283 39.7445 60.5013C39.7445 57.9743 37.9842 55.9258 35.8129 55.9258C33.6416 55.9258 31.8813 57.9743 31.8813 60.5013C31.8813 63.0283 33.6416 65.0768 35.8129 65.0768Z" fill="#FFB8B8"/>
<path d="M40.1179 70.7171L37.3099 68.1158C37.3099 68.1158 34.2691 65.3851 32.4853 67.404L31.6844 68.7365C31.6844 68.7365 27.1438 70.7171 27.1438 73.2337L27.3597 87.0385C27.3597 87.0385 25.7871 94.1305 28.146 94.5881L41.8871 95.8823L41.7099 82.6918L40.1179 70.7171Z" fill="#E4E4E4"/>
<path d="M32.7657 64.5037C32.7657 64.5037 28.6376 61.0721 30.8 56.9542C32.3001 54.0974 35.4085 54.3235 37.1718 54.73C37.6469 54.832 38.0935 55.067 38.4731 55.4146C38.8528 55.7622 39.1541 56.2121 39.3511 56.7254C39.6459 57.5261 39.6459 58.3268 38.4665 58.3268C36.1075 58.3268 37.287 60.3858 37.287 60.3858C37.287 60.3858 35.7144 60.8433 36.1075 62.4447C36.5007 64.0462 32.7657 64.5037 32.7657 64.5037Z" fill="#2F2E41"/>
<path d="M54.3024 94.8268C54.2292 94.5014 54.0956 94.1987 53.9109 93.94C53.7263 93.6813 53.4952 93.4728 53.2339 93.3293C52.9725 93.1857 52.6873 93.1106 52.3983 93.1092C52.1093 93.1079 51.8236 93.1802 51.5613 93.3213L46.6877 87.4336L45.8872 91.5785L50.638 96.5341C50.8708 97.0313 51.2522 97.4118 51.71 97.6036C52.1678 97.7954 52.6701 97.7851 53.1218 97.5747C53.5735 97.3642 53.9432 96.9683 54.1608 96.4618C54.3784 95.9554 54.4288 95.3736 54.3024 94.8268H54.3024Z" fill="#FFB6B6"/>
<path d="M49.2909 94.9152C49.1694 94.9455 49.0437 94.9457 48.9221 94.9159C48.8006 94.886 48.6857 94.8266 48.5852 94.7417L41.3164 88.3094C39.5283 86.7984 38.2727 84.583 37.7831 82.0752L36.1689 73.8129C36.0082 73.419 35.9159 72.992 35.8971 72.5565C35.8784 72.121 35.9336 71.6855 36.0597 71.2749C36.1857 70.8643 36.3801 70.4866 36.6317 70.1635C36.8834 69.8404 37.1872 69.5782 37.526 69.392C37.8648 69.2057 38.2318 69.0991 38.6061 69.0781C38.9803 69.0571 39.3544 69.1222 39.707 69.2696C40.0596 69.4171 40.3838 69.6441 40.6609 69.9375C40.9381 70.2309 41.1628 70.5851 41.3222 70.9797L44.4634 83.9127L50.6117 91.545C50.7292 91.7064 50.8012 91.9059 50.8181 92.1166C50.835 92.3272 50.7959 92.5388 50.7061 92.7228L49.8731 94.4194C49.7837 94.6013 49.6488 94.7472 49.4863 94.8376C49.424 94.8723 49.3584 94.8984 49.2909 94.9152Z" fill="#E4E4E4"/>
<path d="M149.135 3.90308H35.6002C35.5566 3.9029 35.5149 3.88262 35.4841 3.84667C35.4533 3.81073 35.436 3.76205 35.436 3.7113C35.436 3.66056 35.4533 3.61188 35.4841 3.57593C35.5149 3.53999 35.5566 3.51971 35.6002 3.51953H149.135C149.178 3.51971 149.22 3.53999 149.251 3.57593C149.282 3.61188 149.299 3.66056 149.299 3.7113C149.299 3.76205 149.282 3.81073 149.251 3.84667C149.22 3.88262 149.178 3.9029 149.135 3.90308Z" fill="#CACACA"/>
<path d="M39.3092 1.21896C40.3103 1.21896 41.1218 0.274512 41.1218 -0.890521C41.1218 -2.05555 40.3103 -3 39.3092 -3C38.3081 -3 37.4966 -2.05555 37.4966 -0.890521C37.4966 0.274512 38.3081 1.21896 39.3092 1.21896Z" fill="#3F3D56"/>
<path d="M45.5709 1.21896C46.572 1.21896 47.3835 0.274512 47.3835 -0.890521C47.3835 -2.05555 46.572 -3 45.5709 -3C44.5698 -3 43.7583 -2.05555 43.7583 -0.890521C43.7583 0.274512 44.5698 1.21896 45.5709 1.21896Z" fill="#3F3D56"/>
<path d="M51.8326 1.21896C52.8337 1.21896 53.6452 0.274512 53.6452 -0.890521C53.6452 -2.05555 52.8337 -3 51.8326 -3C50.8315 -3 50.02 -2.05555 50.02 -0.890521C50.02 0.274512 50.8315 1.21896 51.8326 1.21896Z" fill="#3F3D56"/>
<path d="M145.383 1.16552H140.934C140.847 1.16517 140.763 1.12461 140.702 1.05272C140.64 0.980826 140.605 0.88347 140.605 0.781978C140.605 0.680485 140.64 0.58313 140.702 0.51124C140.763 0.43935 140.847 0.398788 140.934 0.398438H145.383C145.47 0.398788 145.554 0.43935 145.615 0.51124C145.677 0.58313 145.711 0.680485 145.711 0.781978C145.711 0.88347 145.677 0.980826 145.615 1.05272C145.554 1.12461 145.47 1.16517 145.383 1.16552Z" fill="#3F3D56"/>
<path d="M114.915 34.0545H68.2714C68.0114 34.061 67.7585 33.9562 67.5607 33.7599C67.3628 33.5636 67.2339 33.2895 67.1983 32.9898C67.1836 32.8245 67.1989 32.6574 67.2432 32.4993C67.2875 32.3413 67.3598 32.1958 67.4555 32.0724C67.5511 31.9489 67.668 31.8502 67.7985 31.7826C67.929 31.7151 68.0703 31.6801 68.2131 31.6801H114.842C115.106 31.672 115.364 31.778 115.565 31.9775C115.766 32.1771 115.896 32.4561 115.931 32.7609C115.943 32.9251 115.927 33.0906 115.881 33.2468C115.836 33.4031 115.763 33.5466 115.668 33.6683C115.572 33.79 115.456 33.8872 115.326 33.9536C115.196 34.0201 115.056 34.0545 114.915 34.0545Z" fill="#6C63FF"/>
</svg>
