<svg width="390" height="314" viewBox="0 0 390 314" fill="none" xmlns="http://www.w3.org/2000/svg">
<g clip-path="url(#clip0_6046_12709)">
<path d="M374.551 2.38097e-05H257.481C251.832 -0.000252093 246.351 1.91622 241.938 5.43441C237.526 8.95259 234.445 13.8631 233.203 19.3587L174.051 281.001C173.406 283.855 173.394 286.815 174.018 289.673C174.641 292.532 175.884 295.22 177.659 297.549C179.434 299.878 181.699 301.792 184.294 303.156C186.89 304.52 189.753 305.301 192.683 305.445L313.031 311.358C319.476 311.675 325.815 309.642 330.867 305.64C335.919 301.638 339.339 295.94 340.487 289.609L374.044 104.625L376.54 105.337L382.963 70.275L380.393 69.6346L389.76 17.9988C390.161 15.787 390.068 13.5142 389.487 11.3424C388.907 9.17057 387.853 7.1532 386.401 5.43412C384.949 3.71504 383.134 2.33659 381.087 1.39704C379.039 0.457493 376.809 -0.020012 374.555 -0.00143093L374.551 2.38097e-05Z" fill="#212D45"/>
<path d="M272.89 5.64063H259.226C255.302 5.64067 251.495 6.97908 248.439 9.43369C245.382 11.8883 243.26 15.3115 242.423 19.1349L185.644 278.642C185.317 280.137 185.317 281.683 185.644 283.177C185.972 284.672 186.619 286.078 187.541 287.299C188.464 288.521 189.64 289.53 190.989 290.257C192.338 290.984 193.829 291.412 195.359 291.511L315.317 299.352C318.701 299.573 322.048 298.544 324.72 296.461C327.392 294.378 329.201 291.387 329.803 288.058L378.252 19.8322C378.566 18.0961 378.494 16.3126 378.041 14.6075C377.587 12.9023 376.765 11.3171 375.63 9.96377C374.495 8.61039 373.077 7.5218 371.474 6.77482C369.872 6.02784 368.124 5.64067 366.356 5.64063H353.393C352.138 5.64059 350.918 6.05302 349.922 6.81408C348.926 7.57514 348.21 8.64236 347.883 9.85054C347.595 10.9175 346.963 11.86 346.083 12.532C345.203 13.2039 344.126 13.5679 343.018 13.5675H281.476C279.307 13.5674 277.218 12.751 275.626 11.2814C274.034 9.81186 273.057 7.79737 272.89 5.64063Z" fill="white"/>
<path d="M339.205 187.058C339.438 187.066 339.666 186.99 339.848 186.844C340.03 186.698 340.153 186.492 340.196 186.263L366.723 40.2644C366.749 40.1256 366.743 39.983 366.708 39.8464C366.673 39.7097 366.609 39.5822 366.52 39.4725C366.432 39.3637 366.321 39.2757 366.195 39.2145C366.069 39.1534 365.931 39.1207 365.791 39.1188L245.099 37.6973H245.088C244.869 37.6991 244.657 37.7751 244.487 37.9128C244.317 38.0505 244.199 38.2417 244.152 38.4551L212.879 179.715C212.848 179.853 212.848 179.996 212.878 180.134C212.908 180.272 212.967 180.402 213.052 180.515C213.136 180.627 213.244 180.719 213.368 180.785C213.491 180.851 213.628 180.889 213.769 180.896L339.205 187.058Z" fill="#E6E6E6"/>
<path d="M234.468 196.498C234.358 196.498 234.252 196.535 234.166 196.603C234.08 196.671 234.019 196.766 233.995 196.873L232.864 201.704C232.848 201.772 232.847 201.843 232.861 201.911C232.876 201.98 232.904 202.045 232.946 202.101C232.988 202.158 233.041 202.205 233.103 202.239C233.164 202.272 233.232 202.293 233.302 202.298L297.151 206.823C297.27 206.831 297.387 206.795 297.481 206.723C297.575 206.651 297.64 206.548 297.663 206.432L298.75 200.843C298.764 200.775 298.762 200.705 298.746 200.638C298.73 200.571 298.7 200.508 298.657 200.453C298.615 200.399 298.561 200.354 298.5 200.322C298.438 200.289 298.371 200.271 298.302 200.266L234.498 196.499L234.468 196.498Z" fill="#E6E6E6"/>
<path d="M312.042 224.765C312.157 224.775 312.272 224.743 312.366 224.675C312.459 224.608 312.526 224.51 312.554 224.398L313.937 218.797C313.954 218.729 313.956 218.657 313.942 218.588C313.929 218.518 313.9 218.453 313.858 218.396C313.817 218.338 313.763 218.291 313.701 218.257C313.639 218.222 313.57 218.202 313.499 218.197L231.96 212.51C231.85 212.502 231.739 212.531 231.648 212.594C231.557 212.657 231.49 212.75 231.46 212.856L230.022 217.696C230.001 217.765 229.997 217.838 230.008 217.909C230.019 217.98 230.046 218.048 230.087 218.108C230.128 218.167 230.182 218.217 230.244 218.253C230.307 218.289 230.377 218.311 230.449 218.317L312.042 224.765Z" fill="#E6E6E6"/>
<path d="M307.663 242.717C307.778 242.726 307.893 242.694 307.987 242.627C308.08 242.559 308.147 242.461 308.175 242.349L309.558 236.748C309.575 236.68 309.577 236.608 309.563 236.539C309.55 236.47 309.521 236.404 309.479 236.347C309.438 236.29 309.384 236.242 309.322 236.208C309.26 236.174 309.191 236.153 309.12 236.148L227.581 230.461C227.471 230.453 227.36 230.482 227.269 230.545C227.178 230.608 227.111 230.701 227.081 230.807L225.643 235.647C225.622 235.716 225.618 235.789 225.629 235.86C225.64 235.932 225.667 235.999 225.708 236.059C225.749 236.118 225.803 236.168 225.866 236.204C225.928 236.24 225.998 236.262 226.07 236.268L307.663 242.717Z" fill="#E6E6E6"/>
<path d="M166.289 305.915C166.289 309.976 129.018 310.408 83.1447 313.267C37.3124 316.124 0 309.976 0 305.915C0 301.855 37.4866 293.685 83.1447 298.563C129.018 303.465 166.289 301.855 166.289 305.915Z" fill="#E6E6E6"/>
<path d="M270.109 273.406C270.225 273.418 270.342 273.387 270.437 273.32C270.532 273.253 270.6 273.153 270.627 273.04L273.552 261.371C273.569 261.303 273.572 261.232 273.558 261.162C273.545 261.093 273.517 261.028 273.476 260.971C273.435 260.913 273.382 260.866 273.321 260.831C273.26 260.796 273.191 260.775 273.121 260.769L223.048 256.57C222.931 256.562 222.815 256.595 222.721 256.664C222.626 256.733 222.56 256.834 222.532 256.948L220.037 268.147C220.022 268.214 220.022 268.284 220.036 268.351C220.05 268.419 220.078 268.482 220.119 268.538C220.159 268.594 220.211 268.64 220.271 268.674C220.331 268.708 220.398 268.729 220.467 268.735L270.109 273.406Z" fill="#405888"/>
<path d="M67.9258 225.854C68.5564 225.423 69.0845 224.86 69.4729 224.203C69.8613 223.547 70.1007 222.814 70.1741 222.055C70.2475 221.296 70.1531 220.531 69.8977 219.812C69.6422 219.094 69.2319 218.44 68.6956 217.897L70.723 172.767L60.401 173.922L61.0009 218.066C60.1449 219.024 59.6713 220.262 59.6699 221.546C59.6686 222.829 60.1395 224.068 60.9934 225.028C61.8474 225.988 63.025 226.603 64.3029 226.754C65.5807 226.906 66.8701 226.585 67.9263 225.852L67.9258 225.854Z" fill="#A0616A"/>
<path d="M86.7559 302.25L92.6309 303.28L98.4373 281.173L90.7397 279.653L86.7559 302.25Z" fill="#A0616A"/>
<path d="M103.004 310.707L84.5402 307.47L85.7943 300.356L97.1243 302.343C99.0163 302.674 100.699 303.742 101.801 305.311C102.904 306.879 103.337 308.82 103.004 310.707L103.004 310.707Z" fill="#2F2E41"/>
<path d="M70.6318 305.182H76.5968L79.4344 282.239H70.6309L70.6318 305.182Z" fill="#A0616A"/>
<path d="M88.0977 310.707L69.3507 310.708L69.3503 303.485L80.8541 303.485C82.7751 303.484 84.6175 304.245 85.9759 305.6C87.3343 306.954 88.0976 308.791 88.0977 310.707Z" fill="#2F2E41"/>
<path d="M95.5184 296.959C95.4253 296.96 95.3324 296.954 95.2401 296.943L88.2193 296.367C87.8996 296.33 87.5909 296.228 87.312 296.068C87.033 295.907 86.7896 295.692 86.5966 295.436C86.4035 295.179 86.2648 294.886 86.1889 294.574C86.1129 294.262 86.1013 293.938 86.1549 293.621L93.1246 259.328L88.7457 236.295C88.71 236.108 88.6076 235.94 88.4575 235.822C88.3073 235.704 88.1195 235.644 87.9287 235.654C87.7379 235.663 87.557 235.741 87.4193 235.873C87.2816 236.005 87.1964 236.183 87.1795 236.373L80.7275 294.898C80.6673 295.515 80.3693 296.084 79.8963 296.486C79.4234 296.887 78.8126 297.09 78.1926 297.051L71.5781 296.806C70.9984 296.765 70.4539 296.513 70.0473 296.099C69.6408 295.686 69.4002 295.137 69.3711 294.559L69.8995 223.835L104.191 219.561L106.587 256.454L106.577 256.493L97.8241 295.15C97.6981 295.666 97.4025 296.124 96.9845 296.452C96.5665 296.78 96.0502 296.959 95.5184 296.959Z" fill="#2F2E41"/>
<path d="M81.2078 143.523C87.8076 143.523 93.1577 138.188 93.1577 131.607C93.1577 125.026 87.8076 119.69 81.2078 119.69C74.608 119.69 69.2578 125.026 69.2578 131.607C69.2578 138.188 74.608 143.523 81.2078 143.523Z" fill="#A0616A"/>
<path d="M92.4673 229.216C90.5983 229.227 88.7652 228.704 87.1849 227.709C81.395 224.101 74.8213 225.535 71.4175 226.711C71.0797 226.829 70.7195 226.87 70.3638 226.829C70.0082 226.789 69.6663 226.669 69.3638 226.478C69.0648 226.291 68.8121 226.038 68.6247 225.74C68.4373 225.441 68.3201 225.105 68.2817 224.755L62.0924 169.626C61.0551 160.389 66.6348 151.705 75.3595 148.977C75.6874 148.874 76.0207 148.777 76.3593 148.685C79.0743 147.951 81.9177 147.82 84.6893 148.299C87.4609 148.779 90.0934 149.859 92.4016 151.462C94.7528 153.083 96.7191 155.198 98.1622 157.659C99.6053 160.119 100.49 162.865 100.754 165.704L105.965 221.202C106.001 221.561 105.952 221.924 105.823 222.261C105.694 222.599 105.489 222.902 105.222 223.146C103.395 224.831 98.0927 229.216 92.4673 229.216Z" fill="#212D45"/>
<path d="M73.6171 181.448L59.6534 179.917C59.256 179.873 58.8727 179.745 58.5297 179.54C58.1866 179.336 57.8918 179.06 57.6653 178.731C57.4388 178.403 57.286 178.029 57.2172 177.637C57.1485 177.244 57.1654 176.841 57.2669 176.455L60.8216 162.945C60.9263 161.933 61.2312 160.951 61.7187 160.056C62.2063 159.162 62.8667 158.373 63.6619 157.734C64.4571 157.096 65.3713 156.621 66.3516 156.337C67.332 156.053 68.359 155.966 69.3734 156.08C70.3879 156.194 71.3695 156.508 72.2617 157.002C73.1538 157.497 73.9388 158.163 74.5713 158.963C75.2037 159.762 75.671 160.678 75.9463 161.658C76.2215 162.638 76.2992 163.663 76.1749 164.674L76.7028 178.586C76.7179 178.985 76.6467 179.382 76.4941 179.75C76.3415 180.119 76.111 180.45 75.8183 180.722C75.5257 180.994 75.1777 181.199 74.7982 181.325C74.4187 181.45 74.0165 181.492 73.6191 181.449L73.6171 181.448Z" fill="#212D45"/>
<path d="M105.908 223.922C106.481 223.418 106.937 222.796 107.243 222.097C107.55 221.399 107.698 220.643 107.68 219.881C107.661 219.119 107.475 218.371 107.134 217.688C106.794 217.006 106.308 216.407 105.71 215.932L102.269 170.887L92.1543 173.157L98.0901 217.024C97.3561 218.079 97.0356 219.365 97.1893 220.639C97.3429 221.913 97.9602 223.087 98.9239 223.937C99.8877 224.788 101.131 225.256 102.418 225.253C103.705 225.25 104.946 224.777 105.906 223.922H105.908Z" fill="#A0616A"/>
<path d="M88.2772 178.616C87.9844 178.345 87.7539 178.014 87.6012 177.645C87.4485 177.277 87.3774 176.88 87.3926 176.482L87.9205 162.569C87.8067 161.564 87.8926 160.546 88.1732 159.574C88.4538 158.602 88.9237 157.694 89.5561 156.903C90.1884 156.112 90.9708 155.453 91.8587 154.963C92.7465 154.474 93.7223 154.163 94.7304 154.05C95.7385 153.936 96.7592 154.022 97.7341 154.302C98.7091 154.581 99.6192 155.05 100.413 155.681C101.206 156.311 101.867 157.091 102.358 157.977C102.849 158.862 103.16 159.835 103.274 160.84L106.829 174.351C106.93 174.736 106.947 175.139 106.878 175.532C106.809 175.925 106.657 176.298 106.43 176.626C106.204 176.955 105.909 177.231 105.566 177.435C105.223 177.64 104.839 177.768 104.442 177.812L90.4783 179.343C90.0808 179.387 89.6785 179.344 89.299 179.219C88.9195 179.093 88.5716 178.887 88.2791 178.616L88.2772 178.616Z" fill="#212D45"/>
<path d="M80.4968 143.973C80.2838 143.973 80.0716 143.948 79.8643 143.9L79.8035 143.885C69.2971 142.284 66.9748 136.213 66.4654 133.679C65.938 131.055 66.5384 128.523 67.8958 127.539C67.1558 125.21 67.2745 123.143 68.2496 121.395C69.9525 118.349 73.6409 117.32 74.1367 117.192C77.0842 115.024 80.6106 116.471 81.2524 116.764C86.9542 114.661 89.1344 116.412 89.5275 116.803C92.076 117.259 93.6295 118.241 94.1453 119.722C95.114 122.502 92.0507 125.961 91.9198 126.107L91.8517 126.183L87.2879 126.4C86.8549 126.42 86.431 126.531 86.0438 126.726C85.6566 126.92 85.3147 127.194 85.0403 127.529C84.766 127.863 84.5652 128.252 84.4511 128.669C84.337 129.086 84.312 129.522 84.3779 129.95C84.5014 130.501 84.6574 131.045 84.845 131.577C85.6235 134.006 86.2073 136.081 85.4551 136.87C85.2845 137.023 85.0742 137.125 84.8483 137.164C84.6225 137.203 84.3902 137.178 84.178 137.091C83.4642 136.901 82.9801 136.941 82.7388 137.21C82.3641 137.627 82.4785 138.682 83.0609 140.182C83.2436 140.656 83.2928 141.171 83.2031 141.671C83.1134 142.171 82.8882 142.637 82.5519 143.019C82.2987 143.316 81.9838 143.556 81.6289 143.721C81.2739 143.885 80.8873 143.971 80.4958 143.973H80.4968Z" fill="#2F2E41"/>
</g>
<defs>
<clipPath id="clip0_6046_12709">
<rect width="390" height="314" fill="white"/>
</clipPath>
</defs>
</svg>
