<svg width="390" height="342" viewBox="0 0 390 342" fill="none" xmlns="http://www.w3.org/2000/svg">
<g clip-path="url(#clip0_6046_12801)">
<path d="M339.771 329.624V295.732C339.771 295.732 353.002 319.76 339.771 329.624Z" fill="#F1F1F1"/>
<path d="M340.59 329.617L315.58 306.697C315.58 306.697 342.258 313.217 340.59 329.617Z" fill="#F1F1F1"/>
<path d="M49.9624 329.624V295.732C49.9624 295.732 36.7316 319.76 49.9624 329.624Z" fill="#F1F1F1"/>
<path d="M49.1455 329.617L74.155 306.697C74.155 306.697 47.4768 313.217 49.1455 329.617Z" fill="#F1F1F1"/>
<path d="M277.25 78.2621H275.437V28.6906C275.437 24.9229 274.694 21.1921 273.25 17.7112C271.805 14.2303 269.688 11.0675 267.019 8.4033C264.351 5.73913 261.182 3.62579 257.695 2.18395C254.208 0.74211 250.471 3.07628e-06 246.697 0H141.491C137.716 -7.9981e-06 133.979 0.742089 130.492 2.18392C127.005 3.62575 123.837 5.73908 121.168 8.40324C118.499 11.0674 116.382 14.2302 114.938 17.7111C113.493 21.192 112.75 24.9228 112.75 28.6905V300.643C112.75 308.253 115.778 315.55 121.168 320.931C126.558 326.311 133.868 329.334 141.49 329.334H246.697C254.319 329.334 261.629 326.311 267.019 320.931C272.409 315.55 275.437 308.253 275.437 300.644V113.548H277.25V78.2621Z" fill="#212D45"/>
<path d="M247.856 7.46388H234.123C234.754 9.00953 234.995 10.6865 234.825 12.3471C234.654 14.0076 234.077 15.6008 233.144 16.9863C232.212 18.3718 230.952 19.507 229.476 20.292C228 21.0769 226.354 21.4876 224.682 21.4877H164.41C162.738 21.4876 161.092 21.077 159.616 20.292C158.14 19.507 156.881 18.3718 155.948 16.9863C155.015 15.6008 154.438 14.0076 154.267 12.3471C154.097 10.6865 154.338 9.00952 154.969 7.46387H142.143C136.45 7.46386 130.991 9.72121 126.966 13.7393C122.941 17.7574 120.68 23.2072 120.68 28.8897V300.444C120.68 303.257 121.235 306.043 122.313 308.643C123.392 311.242 124.973 313.604 126.966 315.594C128.959 317.583 131.325 319.162 133.929 320.238C136.533 321.315 139.324 321.869 142.143 321.869H247.856C250.674 321.869 253.465 321.315 256.069 320.238C258.673 319.162 261.039 317.584 263.032 315.594C265.025 313.604 266.606 311.242 267.685 308.643C268.764 306.043 269.319 303.257 269.319 300.444V28.8897C269.319 26.076 268.764 23.2899 267.685 20.6904C266.606 18.0909 265.025 15.7289 263.032 13.7393C261.039 11.7498 258.673 10.1716 256.069 9.09481C253.465 8.01807 250.674 7.46388 247.856 7.46388Z" fill="white"/>
<path d="M155.348 90.3478H132.949C132.548 90.3474 132.163 90.188 131.879 89.9048C131.596 89.6216 131.436 89.2375 131.436 88.837V66.4766C131.436 66.0761 131.596 65.6921 131.879 65.4089C132.163 65.1256 132.548 64.9663 132.949 64.9658H155.348C155.749 64.9663 156.134 65.1256 156.418 65.4089C156.702 65.6921 156.861 66.0761 156.862 66.4766V88.837C156.861 89.2375 156.702 89.6216 156.418 89.9048C156.134 90.188 155.749 90.3474 155.348 90.3478Z" fill="#6B6B6B"/>
<path d="M189.249 90.3478H166.849C166.448 90.3474 166.063 90.188 165.78 89.9048C165.496 89.6216 165.336 89.2375 165.336 88.837V66.4766C165.336 66.0761 165.496 65.6921 165.78 65.4088C166.063 65.1256 166.448 64.9663 166.849 64.9658H189.249C189.65 64.9663 190.035 65.1256 190.318 65.4088C190.602 65.6921 190.762 66.0761 190.762 66.4766V88.837C190.762 89.2375 190.602 89.6216 190.318 89.9048C190.035 90.188 189.65 90.3474 189.249 90.3478Z" fill="#E5E5E5"/>
<path d="M223.151 90.3478H200.752C200.35 90.3474 199.966 90.188 199.682 89.9048C199.398 89.6216 199.239 89.2375 199.238 88.837V66.4766C199.239 66.0761 199.398 65.6921 199.682 65.4088C199.966 65.1256 200.35 64.9663 200.752 64.9658H223.151C223.552 64.9663 223.937 65.1256 224.221 65.4088C224.504 65.6921 224.664 66.0761 224.664 66.4766V88.837C224.664 89.2375 224.504 89.6216 224.221 89.9048C223.937 90.188 223.552 90.3474 223.151 90.3478Z" fill="#E5E5E5"/>
<path d="M257.051 90.3478H234.652C234.251 90.3474 233.866 90.188 233.582 89.9048C233.299 89.6216 233.139 89.2375 233.139 88.837V66.4766C233.139 66.0761 233.299 65.6921 233.582 65.4089C233.866 65.1256 234.251 64.9663 234.652 64.9658H257.051C257.453 64.9663 257.837 65.1256 258.121 65.4089C258.405 65.6921 258.564 66.0761 258.565 66.4766V88.837C258.564 89.2375 258.405 89.6216 258.121 89.9048C257.837 90.188 257.453 90.3474 257.051 90.3478Z" fill="#E5E5E5"/>
<path d="M155.268 131.744H132.869C132.468 131.744 132.083 131.585 131.799 131.301C131.516 131.018 131.356 130.634 131.355 130.233V107.873C131.356 107.473 131.516 107.089 131.799 106.805C132.083 106.522 132.468 106.363 132.869 106.362H155.268C155.669 106.363 156.054 106.522 156.338 106.805C156.622 107.089 156.781 107.473 156.782 107.873V130.233C156.781 130.634 156.622 131.018 156.338 131.301C156.054 131.585 155.669 131.744 155.268 131.744Z" fill="#E5E5E5"/>
<path d="M189.169 131.744H166.769C166.368 131.744 165.983 131.585 165.7 131.301C165.416 131.018 165.256 130.634 165.256 130.233V107.873C165.256 107.473 165.416 107.089 165.7 106.805C165.983 106.522 166.368 106.363 166.769 106.362H189.169C189.57 106.363 189.954 106.522 190.238 106.805C190.522 107.089 190.681 107.473 190.682 107.873V130.233C190.681 130.634 190.522 131.018 190.238 131.301C189.954 131.585 189.57 131.744 189.169 131.744Z" fill="#E5E5E5"/>
<path d="M223.151 131.278H200.752C200.35 131.277 199.966 131.118 199.682 130.834C199.398 130.551 199.239 130.167 199.238 129.767V107.406C199.239 107.006 199.398 106.622 199.682 106.339C199.966 106.055 200.35 105.896 200.752 105.896H223.151C223.552 105.896 223.937 106.055 224.221 106.339C224.504 106.622 224.664 107.006 224.664 107.406V129.767C224.664 130.167 224.504 130.551 224.221 130.834C223.937 131.118 223.552 131.277 223.151 131.278Z" fill="#E5E5E5"/>
<path d="M232.861 116.111C233.673 120.446 237.845 123.302 242.182 122.489C243.494 122.243 244.671 121.69 245.65 120.916L255.515 131.554C256.119 132.204 257.148 132.202 257.751 131.548C258.313 130.938 258.282 129.989 257.68 129.417L247.14 119.375C248.407 117.655 248.985 115.435 248.561 113.17C247.749 108.836 243.577 105.979 239.24 106.793C234.903 107.606 232.048 111.776 232.861 116.111ZM234.564 115.793C233.929 112.398 236.165 109.132 239.56 108.497C242.956 107.862 246.223 110.097 246.858 113.492C247.493 116.887 245.257 120.153 241.862 120.788C238.466 121.423 235.199 119.188 234.564 115.793Z" fill="#405888"/>
<path d="M155.188 173.142H132.789C132.388 173.141 132.003 172.982 131.719 172.699C131.435 172.416 131.276 172.031 131.275 171.631V149.271C131.276 148.87 131.435 148.486 131.719 148.203C132.003 147.92 132.388 147.76 132.789 147.76H155.188C155.589 147.76 155.974 147.92 156.258 148.203C156.541 148.486 156.701 148.87 156.701 149.271V171.631C156.701 172.031 156.541 172.416 156.258 172.699C155.974 172.982 155.589 173.141 155.188 173.142Z" fill="#E5E5E5"/>
<path d="M189.088 173.142H166.689C166.288 173.141 165.903 172.982 165.62 172.699C165.336 172.416 165.176 172.031 165.176 171.631V149.271C165.176 148.87 165.336 148.486 165.62 148.203C165.903 147.92 166.288 147.76 166.689 147.76H189.088C189.49 147.76 189.874 147.92 190.158 148.203C190.442 148.486 190.601 148.87 190.602 149.271V171.631C190.601 172.031 190.442 172.416 190.158 172.699C189.874 172.982 189.49 173.141 189.088 173.142Z" fill="#E5E5E5"/>
<path d="M222.991 173.142H200.592C200.19 173.141 199.806 172.982 199.522 172.699C199.238 172.416 199.079 172.031 199.078 171.631V149.271C199.079 148.87 199.238 148.486 199.522 148.203C199.806 147.92 200.19 147.76 200.592 147.76H222.991C223.392 147.76 223.777 147.92 224.06 148.203C224.344 148.486 224.504 148.87 224.504 149.271V171.631C224.504 172.031 224.344 172.416 224.06 172.699C223.777 172.982 223.392 173.141 222.991 173.142Z" fill="#E5E5E5"/>
<path d="M256.891 173.142H234.492C234.091 173.141 233.706 172.982 233.422 172.699C233.139 172.416 232.979 172.031 232.979 171.631V149.271C232.979 148.87 233.139 148.486 233.422 148.203C233.706 147.92 234.091 147.76 234.492 147.76H256.891C257.292 147.76 257.677 147.92 257.961 148.203C258.245 148.486 258.404 148.87 258.405 149.271V171.631C258.404 172.031 258.245 172.416 257.961 172.699C257.677 172.982 257.292 173.141 256.891 173.142Z" fill="#E5E5E5"/>
<path d="M155.108 214.538H132.709C132.308 214.538 131.923 214.378 131.639 214.095C131.355 213.812 131.196 213.428 131.195 213.027V190.667C131.196 190.267 131.355 189.883 131.639 189.599C131.923 189.316 132.308 189.157 132.709 189.156H155.108C155.509 189.157 155.894 189.316 156.178 189.599C156.461 189.883 156.621 190.267 156.621 190.667V213.027C156.621 213.428 156.461 213.812 156.178 214.095C155.894 214.378 155.509 214.538 155.108 214.538Z" fill="#E5E5E5"/>
<path d="M189.008 214.538H166.609C166.208 214.538 165.823 214.378 165.539 214.095C165.256 213.812 165.096 213.428 165.096 213.027V190.667C165.096 190.267 165.256 189.883 165.539 189.599C165.823 189.316 166.208 189.157 166.609 189.156H189.008C189.41 189.157 189.794 189.316 190.078 189.599C190.362 189.883 190.521 190.267 190.522 190.667V213.027C190.521 213.428 190.362 213.812 190.078 214.095C189.794 214.378 189.41 214.538 189.008 214.538Z" fill="#E5E5E5"/>
<path d="M222.911 214.538H200.512C200.11 214.538 199.726 214.378 199.442 214.095C199.158 213.812 198.999 213.428 198.998 213.027V190.667C198.999 190.267 199.158 189.883 199.442 189.599C199.726 189.316 200.11 189.157 200.512 189.156H222.911C223.312 189.157 223.697 189.316 223.98 189.599C224.264 189.883 224.424 190.267 224.424 190.667V213.027C224.424 213.428 224.264 213.812 223.98 214.095C223.697 214.378 223.312 214.538 222.911 214.538Z" fill="#E5E5E5"/>
<path d="M256.811 214.538H234.412C234.011 214.538 233.626 214.378 233.342 214.095C233.059 213.812 232.899 213.428 232.898 213.027V190.667C232.899 190.267 233.059 189.883 233.342 189.599C233.626 189.316 234.011 189.157 234.412 189.156H256.811C257.212 189.157 257.597 189.316 257.881 189.599C258.164 189.883 258.324 190.267 258.325 190.667V213.027C258.324 213.428 258.164 213.812 257.881 214.095C257.597 214.378 257.212 214.538 256.811 214.538Z" fill="#E5E5E5"/>
<path d="M155.348 307.001H132.949C132.548 307.001 132.163 306.841 131.879 306.558C131.596 306.275 131.436 305.891 131.436 305.49V283.13C131.436 282.729 131.596 282.345 131.879 282.062C132.163 281.779 132.548 281.62 132.949 281.619H155.348C155.749 281.62 156.134 281.779 156.418 282.062C156.702 282.345 156.861 282.729 156.862 283.13V305.49C156.861 305.891 156.702 306.275 156.418 306.558C156.134 306.841 155.749 307.001 155.348 307.001Z" fill="white"/>
<path d="M189.249 307.001H166.849C166.448 307.001 166.063 306.841 165.78 306.558C165.496 306.275 165.336 305.891 165.336 305.49V283.13C165.336 282.729 165.496 282.345 165.78 282.062C166.063 281.779 166.448 281.62 166.849 281.619H189.249C189.65 281.62 190.035 281.779 190.318 282.062C190.602 282.345 190.762 282.729 190.762 283.13V305.49C190.762 305.891 190.602 306.275 190.318 306.558C190.035 306.841 189.65 307.001 189.249 307.001Z" fill="white"/>
<path d="M223.151 307.001H200.752C200.35 307.001 199.966 306.841 199.682 306.558C199.398 306.275 199.239 305.891 199.238 305.49V283.13C199.239 282.729 199.398 282.345 199.682 282.062C199.966 281.779 200.35 281.62 200.752 281.619H223.151C223.552 281.62 223.937 281.779 224.221 282.062C224.504 282.345 224.664 282.729 224.664 283.13V305.49C224.664 305.891 224.504 306.275 224.221 306.558C223.937 306.841 223.552 307.001 223.151 307.001Z" fill="white"/>
<path d="M257.051 307.001H234.652C234.251 307.001 233.866 306.841 233.582 306.558C233.299 306.275 233.139 305.891 233.139 305.49V283.13C233.139 282.729 233.299 282.345 233.582 282.062C233.866 281.779 234.251 281.62 234.652 281.619H257.051C257.453 281.62 257.837 281.779 258.121 282.062C258.405 282.345 258.564 282.729 258.565 283.13V305.49C258.564 305.891 258.405 306.275 258.121 306.558C257.837 306.841 257.453 307.001 257.051 307.001Z" fill="white"/>
<path d="M184.023 259.864C185.695 259.864 187.05 258.511 187.05 256.842C187.05 255.173 185.695 253.82 184.023 253.82C182.351 253.82 180.996 255.173 180.996 256.842C180.996 258.511 182.351 259.864 184.023 259.864Z" fill="#E5E5E5"/>
<path d="M194.919 259.864C196.591 259.864 197.946 258.511 197.946 256.842C197.946 255.173 196.591 253.82 194.919 253.82C193.248 253.82 191.893 255.173 191.893 256.842C191.893 258.511 193.248 259.864 194.919 259.864Z" fill="#E5E5E5"/>
<path d="M205.816 259.864C207.488 259.864 208.843 258.511 208.843 256.842C208.843 255.173 207.488 253.82 205.816 253.82C204.144 253.82 202.789 255.173 202.789 256.842C202.789 258.511 204.144 259.864 205.816 259.864Z" fill="#E5E5E5"/>
<path d="M389.531 329.824H0.469314C0.344844 329.824 0.225472 329.774 0.137459 329.687C0.0494451 329.599 0 329.479 0 329.355C0 329.231 0.0494451 329.112 0.137459 329.024C0.225472 328.936 0.344844 328.887 0.469314 328.887H389.531C389.655 328.887 389.775 328.936 389.863 329.024C389.951 329.112 390 329.231 390 329.355C390 329.479 389.951 329.599 389.863 329.687C389.775 329.774 389.655 329.824 389.531 329.824Z" fill="#CBCBCB"/>
<path d="M153.167 237.577C153.801 236.945 154.287 236.182 154.593 235.342C154.899 234.502 155.017 233.606 154.938 232.715C154.86 231.825 154.586 230.963 154.138 230.189C153.689 229.416 153.076 228.75 152.341 228.239L158.253 207.33L147.475 210.752L143.514 230.082C142.735 231.371 142.457 232.9 142.732 234.379C143.007 235.859 143.816 237.186 145.006 238.11C146.196 239.034 147.684 239.49 149.188 239.391C150.692 239.293 152.108 238.648 153.167 237.577Z" fill="#FFB7B7"/>
<path d="M156.232 224.762C156.039 224.799 155.843 224.815 155.647 224.811L145.309 224.604C144.92 224.597 144.537 224.506 144.185 224.339C143.834 224.172 143.522 223.932 143.271 223.636C143.02 223.339 142.835 222.992 142.728 222.619C142.621 222.245 142.596 221.853 142.653 221.469L153.141 150.729C153.454 148.683 154.489 146.816 156.061 145.466C157.632 144.116 159.636 143.371 161.709 143.366C163.018 143.369 164.31 143.67 165.486 144.244C166.661 144.819 167.691 145.652 168.497 146.682C169.303 147.712 169.864 148.911 170.138 150.189C170.411 151.468 170.391 152.791 170.077 154.06L162.643 184.117L158.427 222.375C158.366 222.955 158.119 223.501 157.724 223.93C157.329 224.36 156.806 224.651 156.232 224.762Z" fill="#212D45"/>
<path d="M160.556 336.432H166.309L169.047 314.277L160.555 314.278L160.556 336.432Z" fill="#FFB7B7"/>
<path d="M159.088 334.557L170.419 334.557H170.419C172.335 334.557 174.171 335.316 175.525 336.668C176.88 338.02 177.64 339.853 177.641 341.765V341.999L159.088 342L159.088 334.557Z" fill="#212D45"/>
<path d="M185.09 334.567L190.808 335.207L196.001 313.495L187.562 312.551L185.09 334.567Z" fill="#FFB7B7"/>
<path d="M183.84 332.54L195.101 333.8C197.004 334.014 198.745 334.973 199.94 336.467C201.135 337.961 201.686 339.867 201.473 341.767L201.447 342L183.01 339.937L183.84 332.54Z" fill="#212D45"/>
<path d="M155.155 213.147C155.155 213.147 147.267 230.579 154.233 241.902L158.383 330.059H167.912L177.156 258.847L193.582 279.929L183.574 329.134L195.228 329.788L211.416 279.929C211.416 279.929 198.98 224.951 194.873 223.627L192.174 211.06L155.155 213.147Z" fill="#212D45"/>
<path d="M151.644 228.451C151.644 228.451 144.537 236.593 163.31 239.404C182.082 242.215 201.794 237.998 202.263 232.376C202.732 226.754 151.644 228.451 151.644 228.451Z" fill="#CBCBCB"/>
<path d="M245.749 127.456C245.72 128.251 245.517 129.03 245.154 129.738C244.791 130.445 244.277 131.065 243.647 131.553C243.018 132.041 242.29 132.386 241.513 132.562C240.736 132.738 239.93 132.743 239.152 132.575L232.056 142.79L224.785 139.999L235.009 125.714C235.379 124.427 236.209 123.32 237.341 122.603C238.474 121.885 239.831 121.608 241.155 121.823C242.478 122.038 243.677 122.73 244.524 123.768C245.371 124.806 245.807 126.119 245.749 127.456Z" fill="#FFB7B7"/>
<path d="M185.737 140.6L175.704 136.069L162.85 136.987C162.85 136.987 147.353 155.074 153.454 172.408L149.699 232.845C173.634 239.404 184.514 227.102 201.793 232.376L196.456 165.208L185.737 140.6Z" fill="#212D45"/>
<path d="M179.031 145.001L185.737 140.6C185.737 140.6 195.051 139.195 198.774 142.801C198.774 142.801 211.411 143.857 214.463 147.006L217.823 147.762L228.987 133.331L235.818 137.037L225.963 163.741L196.456 165.208L179.031 145.001Z" fill="#212D45"/>
<path d="M181.347 130.986C189.021 126.798 191.842 117.192 187.647 109.531C183.451 101.87 173.829 99.054 166.154 103.242C158.479 107.43 155.659 117.036 159.854 124.697C164.049 132.359 173.672 135.174 181.347 130.986Z" fill="#FFB7B7"/>
<path d="M160.052 104.754C162.878 99.6787 166.411 96.3923 172.227 96.5109C178.043 96.6295 183.074 96.4 185.691 101.587C186.383 100.294 186.729 98.845 186.697 97.3798C187.487 97.8919 188.11 98.6237 188.488 99.4849C188.867 100.346 188.985 101.299 188.827 102.226C189.336 101.929 189.762 101.508 190.066 101.004C190.37 100.499 190.543 99.9263 190.567 99.3379C192.508 99.9828 193.013 102.714 192.031 104.505C191.049 106.296 189.123 107.332 187.274 108.208C185.426 109.084 186.28 113.715 185.073 115.364C184.23 116.515 183.845 117.925 183.278 119.233C183.254 119.285 183.213 119.327 183.163 119.353C181.861 120.077 181.04 121.372 181.27 122.841C181.297 122.951 181.291 123.067 181.251 123.174C179.604 126.272 177.826 129.513 174.84 131.362C172.444 132.806 169.574 133.249 166.853 132.595C163.8 131.866 161.162 129.846 159.259 127.355C157.356 124.863 156.132 121.919 155.213 118.924C154.397 116.267 153.804 113.426 154.451 110.723C155.097 108.02 157.289 105.517 160.065 105.308" fill="#212D45"/>
</g>
<defs>
<clipPath id="clip0_6046_12801">
<rect width="390" height="342" fill="white"/>
</clipPath>
</defs>
</svg>
