<svg width="300" height="264" viewBox="0 0 300 264" fill="none" xmlns="http://www.w3.org/2000/svg">
<g clip-path="url(#clip0_6046_12763)">
<path d="M297.61 260.225C297.085 260.958 296.556 261.687 296.032 262.41C294.525 263.449 292.738 264.004 290.909 264H9.09073C7.34292 264.001 5.63216 263.495 4.1656 262.543C3.67888 261.901 3.19765 261.253 2.71094 260.605L3.19765 260.337L145.866 181.148C147.132 180.447 148.555 180.078 150.001 180.076C151.448 180.074 152.871 180.439 154.139 181.137L297.128 259.957L297.61 260.225Z" fill="#405888"/>
<path d="M290.909 93.7117L167.263 22.2066C162.062 19.1991 156.163 17.6143 150.158 17.6113C144.152 17.6084 138.252 19.1873 133.048 22.1897L9.09091 93.7117C6.6809 93.7151 4.37057 94.6753 2.66644 96.3818C0.962299 98.0883 0.0034093 100.402 0 102.815V254.896C0.00280793 257.31 0.9615 259.624 2.66577 261.33C4.37004 263.037 6.68071 263.997 9.09091 264H290.909C293.319 263.996 295.629 263.035 297.333 261.329C299.037 259.622 299.996 257.309 300 254.896V102.815C299.997 100.402 299.038 98.0883 297.334 96.3818C295.629 94.6753 293.319 93.7151 290.909 93.7117ZM298.93 254.896C298.925 257.025 298.079 259.065 296.575 260.57C295.072 262.076 293.035 262.924 290.909 262.929H9.09091C6.96468 262.925 4.92663 262.077 3.42316 260.572C1.91968 259.066 1.07334 257.025 1.06952 254.896V102.815C1.07211 100.686 1.91805 98.644 3.42179 97.1382C4.92553 95.6324 6.9643 94.7852 9.09091 94.7827L133.048 23.2607C138.252 20.2583 144.152 18.6794 150.158 18.6823C156.163 18.6853 162.062 20.2701 167.263 23.2776L290.909 94.7827C293.036 94.7852 295.074 95.6324 296.578 97.1382C298.082 98.644 298.928 100.686 298.93 102.815V254.896Z" fill="#3F3D56"/>
<path d="M150.16 179.756C149.229 179.759 148.304 179.603 147.425 179.296L147.263 179.239L147.23 178.879C147.129 178.928 147.028 178.976 146.926 179.021L146.818 179.068L146.711 179.021C146.485 178.921 146.261 178.809 146.045 178.687L47.5938 123.289V10.1743C47.5967 7.54776 48.6399 5.02967 50.4946 3.17244C52.3493 1.31521 54.8639 0.270526 57.4868 0.267578H242.514C245.136 0.270526 247.651 1.31521 249.506 3.17244C251.36 5.02967 252.404 7.54776 252.407 10.1743V123.433L252.27 123.51L154.276 178.688C153.018 179.39 151.601 179.758 150.16 179.756Z" fill="white"/>
<path d="M150.16 180.023C149.199 180.027 148.244 179.866 147.336 179.549L147.012 179.434L146.998 179.281L146.818 179.361L146.603 179.266C146.369 179.163 146.138 179.047 145.914 178.921L47.3262 123.446V10.1744C47.3292 7.47695 48.4007 4.89082 50.3055 2.9834C52.2102 1.07598 54.7928 0.00305292 57.4866 0H242.513C245.207 0.00306423 247.79 1.07599 249.694 2.98341C251.599 4.89082 252.671 7.47695 252.674 10.1744V123.59L154.406 178.921C153.108 179.646 151.646 180.026 150.16 180.023ZM148.014 178.644C149.98 179.209 152.09 178.973 153.883 177.987L251.604 122.963V10.1744C251.602 7.76089 250.643 5.44697 248.939 3.74033C247.234 2.03369 244.924 1.07371 242.513 1.07099H57.4866C55.0764 1.0737 52.7656 2.03368 51.0613 3.74032C49.3571 5.44697 48.3984 7.76089 48.3957 10.1744V122.819L54.8073 126.424L146.439 177.988C146.563 178.058 146.69 178.124 146.818 178.186C146.947 178.124 147.073 178.058 147.197 177.988L147.918 177.582L148.014 178.644Z" fill="#3F3D56"/>
<path d="M297.631 97.6637L258.824 119.512L252.139 123.277L154.145 178.454C152.927 179.134 151.555 179.49 150.161 179.488C149.26 179.49 148.365 179.34 147.514 179.043C147.277 178.967 147.045 178.878 146.818 178.775C146.599 178.679 146.385 178.572 146.177 178.454L54.5457 126.891L47.8612 123.132L2.44948 97.578C2.326 97.5071 2.23543 97.3903 2.1974 97.253C2.15936 97.1156 2.17694 96.9688 2.24634 96.8444C2.31592 96.7209 2.43158 96.6302 2.56791 96.592C2.70425 96.5539 2.85013 96.5714 2.97354 96.6409L47.8612 121.9L54.5457 125.659L146.701 177.517C147.007 177.689 147.325 177.837 147.653 177.961C147.792 178.015 147.936 178.063 148.081 178.106C148.996 178.387 149.959 178.48 150.911 178.379C151.863 178.278 152.785 177.985 153.621 177.517L252.139 122.05L258.824 118.286L297.107 96.7319C297.168 96.6975 297.235 96.6754 297.305 96.667C297.375 96.6585 297.445 96.6639 297.513 96.6828C297.58 96.7017 297.644 96.7338 297.699 96.7771C297.754 96.8204 297.8 96.8742 297.834 96.9354C297.869 96.9966 297.891 97.064 297.899 97.1337C297.908 97.2034 297.902 97.2741 297.883 97.3417C297.865 97.4093 297.833 97.4726 297.789 97.5278C297.746 97.5831 297.692 97.6292 297.631 97.6637Z" fill="#3F3D56"/>
<path d="M87.7396 35.3424H72.7664C71.6317 35.3424 70.5436 34.891 69.7413 34.0876C68.939 33.2842 68.4883 32.1946 68.4883 31.0584C68.4883 29.9222 68.939 28.8326 69.7413 28.0292C70.5436 27.2258 71.6317 26.7744 72.7664 26.7744H87.7396C88.8742 26.7744 89.9624 27.2258 90.7647 28.0292C91.567 28.8326 92.0177 29.9222 92.0177 31.0584C92.0177 32.1946 91.567 33.2842 90.7647 34.0876C89.9624 34.891 88.8742 35.3424 87.7396 35.3424Z" fill="#212D45"/>
<path d="M105.387 49.8013H72.7664C71.6317 49.8013 70.5436 49.35 69.7413 48.5466C68.939 47.7432 68.4883 46.6536 68.4883 45.5174C68.4883 44.3812 68.939 43.2915 69.7413 42.4881C70.5436 41.6847 71.6317 41.2334 72.7664 41.2334H105.387C106.521 41.2334 107.609 41.6847 108.412 42.4881C109.214 43.2915 109.665 44.3812 109.665 45.5174C109.665 46.6536 109.214 47.7432 108.412 48.5466C107.609 49.35 106.521 49.8013 105.387 49.8013Z" fill="#E6E6E6"/>
<path d="M196.524 88.357H104.01C102.876 88.357 101.788 87.9057 100.985 87.1023C100.183 86.2989 99.7324 85.2092 99.7324 84.073C99.7324 82.9369 100.183 81.8472 100.985 81.0438C101.788 80.2404 102.876 79.7891 104.01 79.7891H196.524C197.658 79.7891 198.747 80.2404 199.549 81.0438C200.351 81.8472 200.802 82.9369 200.802 84.073C200.802 85.2092 200.351 86.2989 199.549 87.1023C198.747 87.9057 197.658 88.357 196.524 88.357Z" fill="#212D45"/>
<path d="M205.081 104.958H94.9207C93.786 104.958 92.6979 104.506 91.8956 103.703C91.0933 102.899 90.6426 101.81 90.6426 100.674C90.6426 99.5374 91.0933 98.4478 91.8956 97.6444C92.6979 96.841 93.786 96.3896 94.9207 96.3896H205.081C206.216 96.3896 207.304 96.841 208.106 97.6444C208.908 98.4478 209.359 99.5374 209.359 100.674C209.359 101.81 208.908 102.899 208.106 103.703C207.304 104.506 206.216 104.958 205.081 104.958Z" fill="#E6E6E6"/>
<path d="M205.081 121.022H94.9207C93.786 121.022 92.6979 120.571 91.8956 119.767C91.0933 118.964 90.6426 117.874 90.6426 116.738C90.6426 115.602 91.0933 114.512 91.8956 113.709C92.6979 112.905 93.786 112.454 94.9207 112.454H205.081C206.216 112.454 207.304 112.905 208.106 113.709C208.908 114.512 209.359 115.602 209.359 116.738C209.359 117.874 208.908 118.964 208.106 119.767C207.304 120.571 206.216 121.022 205.081 121.022Z" fill="#E6E6E6"/>
</g>
<defs>
<clipPath id="clip0_6046_12763">
<rect width="300" height="264" fill="white"/>
</clipPath>
</defs>
</svg>
