<svg width="390" height="278" viewBox="0 0 390 278" fill="none" xmlns="http://www.w3.org/2000/svg">
<g clip-path="url(#clip0_6046_12875)">
<path d="M356.114 250.085C359.534 256.13 356.634 276.545 356.634 276.545C356.634 276.545 337.64 268.507 334.22 262.465C332.581 259.563 332.162 256.129 333.055 252.918C333.948 249.707 336.079 246.982 338.981 245.341C341.882 243.701 345.317 243.279 348.529 244.168C351.742 245.058 354.47 247.186 356.114 250.085Z" fill="#F2EDE3"/>
<path d="M356.909 276.519L356.505 276.604C352.619 258.144 339.047 245.626 338.91 245.502L339.188 245.197C339.325 245.322 352.994 257.925 356.909 276.519Z" fill="#F8F6F4"/>
<path d="M387.191 256.968C382.55 265.386 356.381 276.789 356.381 276.789C356.381 276.789 352.067 248.578 356.706 240.163C358.935 236.122 362.679 233.131 367.114 231.849C371.548 230.567 376.311 231.099 380.353 233.327C384.396 235.556 387.388 239.298 388.67 243.732C389.952 248.165 389.42 252.927 387.191 256.968Z" fill="#F2EDE3"/>
<path d="M356.614 277.094L356.221 276.681C375.157 258.702 380.059 233.626 380.106 233.375L380.667 233.48C380.62 233.733 375.687 258.985 356.614 277.094Z" fill="#F8F6F4"/>
<path d="M111.688 213.224C108.694 213.214 105.712 212.828 102.813 212.076L102.242 211.918L101.712 211.652C82.5507 202.048 66.3855 189.362 53.6651 173.946C43.1352 161.11 34.9257 146.536 29.4057 130.879C22.8045 112.135 19.6287 92.3561 20.0299 72.4877C20.038 72.0707 20.0448 71.7486 20.0448 71.5268C20.0448 61.8686 25.4072 53.3943 33.7061 49.9373C40.0577 47.2914 97.727 23.6104 101.894 21.8994C109.741 17.9685 118.112 21.2495 119.452 21.8232C122.457 23.0515 175.769 44.8511 187.289 50.3355C199.162 55.9879 202.33 66.1423 202.33 71.2511C202.33 94.3804 198.324 115.997 190.421 135.499C184.039 151.285 174.994 165.859 163.68 178.585C141.85 203.145 120.014 211.852 119.803 211.928C117.194 212.826 114.448 213.264 111.688 213.224ZM106.553 200.507C108.447 200.932 112.805 201.568 115.646 200.532C119.255 199.216 137.531 189.741 154.609 170.527C178.206 143.98 190.179 110.607 190.196 71.3364C190.154 70.5408 189.589 64.8663 182.073 61.2881C170.775 55.9098 115.362 33.2573 114.804 33.029L114.651 32.9641C113.49 32.4776 109.794 31.4529 107.246 32.7875L106.736 33.0252C106.119 33.2789 44.9019 58.4154 38.3731 61.135C33.806 63.0374 32.1788 67.7505 32.1788 71.5268C32.1788 71.8028 32.1717 72.2042 32.1616 72.7231C31.6398 99.5935 37.8593 165.713 106.553 200.507Z" fill="#3F3D56"/>
<path d="M104.434 27.4143C104.434 27.4143 42.6613 52.7788 36.0427 55.5359C29.4242 58.2929 26.1149 64.9097 26.1149 71.5266C26.1149 78.1434 21.151 164.484 104.434 206.23C104.434 206.23 111.993 208.321 117.728 206.23C123.463 204.139 196.266 168.849 196.266 71.2509C196.266 71.2509 196.266 61.3256 184.684 55.8116C173.102 50.2975 117.102 27.4143 117.102 27.4143C117.102 27.4143 110.225 24.3816 104.434 27.4143Z" fill="#405888"/>
<path opacity="0.1" d="M111.05 47.2656V182.577C111.05 182.577 48.7255 152.584 49.2771 73.733L111.05 47.2656Z" fill="black"/>
<path d="M111.865 144.515L92.0117 118.994L103.557 110.017L112.958 122.1L144.715 88.585L155.334 98.6439L111.865 144.515Z" fill="white"/>
<path d="M389.524 278H208.111C207.985 278 207.864 277.95 207.774 277.861C207.685 277.771 207.635 277.65 207.635 277.524C207.635 277.398 207.685 277.277 207.774 277.187C207.864 277.098 207.985 277.048 208.111 277.048H389.524C389.65 277.048 389.771 277.098 389.861 277.187C389.95 277.277 390 277.398 390 277.524C390 277.65 389.95 277.771 389.861 277.861C389.771 277.95 389.65 278 389.524 278Z" fill="#CACACA"/>
<path d="M260.552 270.497L267.916 270.496L271.419 242.1L260.551 242.1L260.552 270.497Z" fill="#FFB8B8"/>
<path d="M258.674 268.092L273.176 268.092H273.177C275.628 268.092 277.979 269.065 279.712 270.798C281.445 272.531 282.419 274.881 282.419 277.331V277.632L258.674 277.632L258.674 268.092Z" fill="#2F2E41"/>
<path d="M285.312 270.497L292.676 270.496L296.179 242.1L285.311 242.1L285.312 270.497Z" fill="#FFB8B8"/>
<path d="M283.434 268.092L297.936 268.092H297.937C300.388 268.092 302.738 269.065 304.471 270.798C306.205 272.531 307.178 274.881 307.179 277.331V277.632L283.434 277.632L283.434 268.092Z" fill="#2F2E41"/>
<path d="M272.126 170.775L273.893 260.863L259.603 259.977L249.69 202.596L246.559 163.472L272.126 170.775Z" fill="#2F2E41"/>
<path d="M296.65 155.647L298.652 262.291L281.987 261.815L278.387 198.423L272.126 175.47L246.559 163.472L250.733 134.781L288.301 134.26L296.65 155.647Z" fill="#2F2E41"/>
<path d="M267.918 60.1853C274.975 60.1853 280.697 54.4654 280.697 47.4095C280.697 40.3537 274.975 34.6338 267.918 34.6338C260.86 34.6338 255.139 40.3537 255.139 47.4095C255.139 54.4654 260.86 60.1853 267.918 60.1853Z" fill="#FFB8B8"/>
<path d="M278.516 65.5674L280.474 68.5321L285.692 83.138L281.518 139.998L256.994 140.52L253.863 75.3131L260.421 67.1178L278.516 65.5674Z" fill="#CCCCCC"/>
<path d="M243.951 76.8781L239.776 76.3564C239.776 76.3564 238.733 76.8781 238.211 80.5296C237.689 84.1812 231.428 116.523 231.428 116.523L239.776 156.169L249.168 143.649L243.429 121.74L249.168 99.8307L243.951 76.8781Z" fill="#2F2E41"/>
<path d="M297.172 76.3564H300.302L308.129 118.61L300.824 151.474L293.519 139.476L295.606 126.435L294.563 114.958L290.91 108.176L297.172 76.3564Z" fill="#2F2E41"/>
<path d="M275.468 47.4092L273.145 46.8285C273.145 46.8285 271.402 36.9563 267.336 38.1177C263.27 39.2792 252.814 40.4406 252.814 35.7949C252.814 31.1491 262.689 27.0841 268.498 27.6649C274.306 28.2456 281.725 30.1721 283.6 38.6984C286.606 52.3666 277.398 55.819 277.398 55.819L277.551 55.3213C277.977 53.9395 278.007 52.4663 277.639 51.0681C277.271 49.67 276.519 48.4026 275.468 47.4092Z" fill="#2F2E41"/>
<path d="M240.297 76.3561L256.994 69.5747L260.907 66.7056L272.647 118.61L278.126 65.1406L299.78 76.3561L292.475 111.828L291.432 125.391L294.562 136.346C294.562 136.346 305.52 144.171 301.867 152.517C298.215 160.863 294.041 161.385 294.041 161.385C294.041 161.385 276.3 144.692 275.256 140.519C274.213 136.346 272.647 129.043 272.647 129.043C272.647 129.043 263.777 162.428 253.342 161.907C242.906 161.385 242.906 150.43 242.906 150.43L245.515 138.954L249.689 126.956L247.602 107.133L240.297 76.3561Z" fill="#2F2E41"/>
</g>
<defs>
<clipPath id="clip0_6046_12875">
<rect width="390" height="278" fill="white"/>
</clipPath>
</defs>
</svg>
